<svg id="Layer_1" data-name="Layer 1" xmlns="http://www.w3.org/2000/svg" xmlns:xlink="http://www.w3.org/1999/xlink" viewBox="0 0 1417.32 1168.63"><defs><style>.cls-1{fill:none;}.cls-2{clip-path:url(#clip-path);}.cls-3{fill:#d2d8d6;}</style><clipPath id="clip-path"><rect class="cls-1" x="0.75" width="1016.7" height="1168.63"/></clipPath></defs><g class="cls-2"><path class="cls-3" d="M-208.39,1718.17a34.83,34.83,0,0,0,31.33-19.58l316.91-650.07A34.83,34.83,0,0,0,77.24,1018l-316.91,650.08a34.83,34.83,0,0,0,16,46.57A34.74,34.74,0,0,0-208.39,1718.17Z"/><path class="cls-3" d="M-57.95,1644.62a34.83,34.83,0,0,0,31.33-19.57L290.29,975a34.83,34.83,0,0,0-62.61-30.52L-89.23,1594.53a34.82,34.82,0,0,0,16,46.56A34.67,34.67,0,0,0-57.95,1644.62Z"/><path class="cls-3" d="M623.13,174.47a41,41,0,1,0,38.18-43.67A41,41,0,0,0,623.13,174.47Z"/><path class="cls-3" d="M838.42,178.9a36.42,36.42,0,0,0,32.76-20.47L1114.9-341.51a36.42,36.42,0,0,0-16.78-48.69,36.42,36.42,0,0,0-48.69,16.78L805.71,126.52a36.43,36.43,0,0,0,32.71,52.38Z"/><path class="cls-3" d="M719.92,97.89a36.41,36.41,0,0,0,32.76-20.46L1084-602.28A36.42,36.42,0,0,0,1067.26-651a36.42,36.42,0,0,0-48.69,16.78L687.21,45.51a36.43,36.43,0,0,0,32.71,52.38Z"/><polygon class="cls-3" points="-154.94 1183.23 834.61 -694.11 -788.73 -615.36 -788.73 1290.99 -154.94 1183.23"/></g></svg>