<svg xmlns="http://www.w3.org/2000/svg" viewBox="0 0 39.22 34.4"><defs><style>.cls-1{fill:#fff;}</style></defs><g id="Layer_2" data-name="Layer 2"><g id="Layer_1-2" data-name="Layer 1"><path class="cls-1" d="M28.09,7.28V1.85A.89.89,0,0,0,27.2,1h-.67a.89.89,0,0,0-.89.89v3c0,.49-.28.61-.62.26L20.2.26A.88.88,0,0,0,19,.26L.2,19.09c-.35.35-.23.63.26.63l4.76,0a.91.91,0,0,1,.89.9L6.06,33.51A.89.89,0,0,0,7,34.4h8a.88.88,0,0,0,.88-.89V22a2.28,2.28,0,0,1,.54-1.58,5.43,5.43,0,0,1,3.17-.87,5.21,5.21,0,0,1,3.11.86A2.28,2.28,0,0,1,23.2,22V33.51a.88.88,0,0,0,.88.89h8a.89.89,0,0,0,.89-.89L33,20.61a.88.88,0,0,1,.89-.88l4.84,0c.49,0,.61-.28.26-.62L28.72,8.8a2.46,2.46,0,0,1-.63-1.52m2.5,10.87-.05,12.92a.88.88,0,0,1-.89.88H26.53a.88.88,0,0,1-.89-.88V21.83c0-.49,0-.95,0-1a3.56,3.56,0,0,0-.32-1c-.85-1.69-3-2.73-5.75-2.73-2.32,0-4.85.85-5.81,2.72a4.37,4.37,0,0,0-.31,1.72l0,9.52a.88.88,0,0,1-.89.88H9.41a.88.88,0,0,1-.89-.88l0-12.85a.89.89,0,0,0-.88-.9H6.31c-.49,0-.61-.29-.26-.64L19,3.73a.88.88,0,0,1,1.25,0L33.09,16.65c.35.35.23.63-.26.63H31.48a.88.88,0,0,0-.89.88"/></g></g></svg>