<svg xmlns="http://www.w3.org/2000/svg" viewBox="0 0 37.03 32.04"><defs><style>.cls-1{fill:#fff;}</style></defs><g id="Layer_2" data-name="Layer 2"><g id="Layer_1-2" data-name="Layer 1"><path class="cls-1" d="M33.54,5H32.07V3.51A4.52,4.52,0,0,0,30.76.59,2.9,2.9,0,0,0,28.87,0h-.58L3.36,5A3.52,3.52,0,0,0,0,8.46V28.55A3.54,3.54,0,0,0,3.5,32h30A3.54,3.54,0,0,0,37,28.55V8.46A3.54,3.54,0,0,0,33.54,5ZM27.9,1.77A1.68,1.68,0,0,1,30,3.12V4.89l-22.06.8s-.53-.45,1-.68C13.47,4.29,24.65,2.27,27.9,1.77ZM35,28.55A1.47,1.47,0,0,1,33.54,30H3.5a1.61,1.61,0,0,1-1.61-1.46V8.46A1.59,1.59,0,0,1,3.5,7h30A1.46,1.46,0,0,1,35,8.46v2.76H21a1,1,0,0,0-1,1V24.77a1,1,0,0,0,1,1H35Zm.43-4.36H21.58V12.83H35.43Z"/><path class="cls-1" d="M28.29,15a3.49,3.49,0,1,0,0,7,3.49,3.49,0,0,0,0-7Zm0,5.67a2.19,2.19,0,1,1,0-4.37,2.19,2.19,0,0,1,0,4.37Z"/></g></g></svg>