<svg xmlns="http://www.w3.org/2000/svg" xmlns:xlink="http://www.w3.org/1999/xlink" viewBox="0 0 157.77 157.77"><defs><style>.cls-1{fill:#2f5f62;stroke-miterlimit:10;stroke-width:5px;stroke:url(#New_Gradient_Swatch);}.cls-2{fill:#fff;}.cls-3{fill:#e6e7e8;}</style><linearGradient id="New_Gradient_Swatch" y1="78.88" x2="157.77" y2="78.88" gradientUnits="userSpaceOnUse"><stop offset="0" stop-color="#5cd0c0"/><stop offset="1" stop-color="#236c78"/></linearGradient></defs><g id="Layer_2" data-name="Layer 2"><g id="Layer_1-2" data-name="Layer 1"><circle class="cls-1" cx="78.88" cy="78.88" r="76.38"/><path class="cls-2" d="M72.09,123.33a2,2,0,1,0-2.8,2.8l5.1,5.1-5.1,5.1a2,2,0,0,0,0,2.8,2,2,0,0,0,2.8,0l7.9-7.9Zm9.07,0a2,2,0,1,0-2.81,2.8l5.1,5.1-5.1,5.1a2,2,0,0,0,2.81,2.8l7.9-7.9Z"/><path class="cls-3" d="M74.38,131.23l-5.09,5.1a2,2,0,0,0,0,2.8,2,2,0,0,0,2.8,0l7.9-7.9Z"/><path class="cls-3" d="M83.44,131.23l-5.09,5.1a2,2,0,0,0,2.81,2.8l7.89-7.9Z"/><path class="cls-2" d="M59,100.32a2.91,2.91,0,0,1-1,2.36,4.12,4.12,0,0,1-2.73.81h-.87v3.39h-2V97.35h3.05a4,4,0,0,1,2.63.75A2.69,2.69,0,0,1,59,100.32Zm-4.57,1.52h.67a2.24,2.24,0,0,0,1.39-.37,1.52,1.52,0,0,0,.08-2.12A1.81,1.81,0,0,0,55.35,99h-.92Z"/><path class="cls-2" d="M65.27,106.88l-.39-1h0a3,3,0,0,1-1,.88,3.43,3.43,0,0,1-1.39.24,2.23,2.23,0,0,1-1.65-.6,2.31,2.31,0,0,1-.6-1.71A1.93,1.93,0,0,1,61,103a4.79,4.79,0,0,1,2.45-.61l1.26,0V102a1,1,0,0,0-1.13-1.1,5.19,5.19,0,0,0-2.06.52l-.65-1.34a5.86,5.86,0,0,1,2.79-.66,3.49,3.49,0,0,1,2.24.64,2.35,2.35,0,0,1,.79,1.94v4.86Zm-.59-3.38-.77,0a2.49,2.49,0,0,0-1.29.31,1,1,0,0,0-.42.88q0,.84,1,.84a1.53,1.53,0,0,0,1.11-.4,1.42,1.42,0,0,0,.41-1.06Z"/><path class="cls-2" d="M67.66,99.59h2.18l1.37,4.1a6,6,0,0,1,.25,1.27h0a6.36,6.36,0,0,1,.28-1.27l1.35-4.1h2.14l-3.09,8.22A3.52,3.52,0,0,1,71,109.52a3,3,0,0,1-1.83.57,4.81,4.81,0,0,1-1-.11V108.4a3.21,3.21,0,0,0,.78.09,1.39,1.39,0,0,0,.92-.33,2,2,0,0,0,.62-1l.12-.36Z"/><path class="cls-2" d="M79.92,97.35h3a5.65,5.65,0,0,1,2.94.58,2,2,0,0,1,.92,1.83,2.28,2.28,0,0,1-.4,1.4,1.57,1.57,0,0,1-1.07.66v.07a2.07,2.07,0,0,1,1.31.75,2.45,2.45,0,0,1,.4,1.48,2.4,2.4,0,0,1-.94,2,4.06,4.06,0,0,1-2.56.73H79.92Zm2,3.78h1.18a2.14,2.14,0,0,0,1.19-.26,1,1,0,0,0,.37-.84.86.86,0,0,0-.4-.79A2.71,2.71,0,0,0,83,99H81.94Zm0,1.6v2.48h1.32a1.89,1.89,0,0,0,1.23-.32,1.16,1.16,0,0,0,.4-1c0-.8-.56-1.19-1.69-1.19Z"/><path class="cls-2" d="M88.65,97.71c0-.65.36-1,1.09-1s1.08.32,1.08,1a.94.94,0,0,1-.27.72,1.14,1.14,0,0,1-.81.26C89,98.69,88.65,98.36,88.65,97.71Zm2.08,9.17h-2V99.59h2Z"/><path class="cls-2" d="M94.8,106.88h-2V96.74h2Z"/><path class="cls-2" d="M98.88,106.88h-2V96.74h2Z"/><path class="cls-2" d="M106.05,104.72a2,2,0,0,1-.78,1.71,3.87,3.87,0,0,1-2.33.58,6.73,6.73,0,0,1-1.36-.11,5.11,5.11,0,0,1-1-.31V105a6.78,6.78,0,0,0,1.25.43,4.93,4.93,0,0,0,1.22.18c.72,0,1.09-.21,1.09-.63a.52.52,0,0,0-.15-.38,1.85,1.85,0,0,0-.49-.33,10,10,0,0,0-.94-.43,6.1,6.1,0,0,1-1.24-.66,1.91,1.91,0,0,1-.57-.68,2.28,2.28,0,0,1-.18-1,1.72,1.72,0,0,1,.75-1.5,3.64,3.64,0,0,1,2.14-.53A6.11,6.11,0,0,1,106,100l-.6,1.43c-.37-.15-.71-.28-1-.38a3.28,3.28,0,0,0-1-.15c-.58,0-.88.16-.88.48a.57.57,0,0,0,.29.46,8,8,0,0,0,1.24.58,5.62,5.62,0,0,1,1.25.64,1.86,1.86,0,0,1,.59.7A2.2,2.2,0,0,1,106.05,104.72Z"/><path class="cls-2" d="M96.94,71.77h6.21c.45,0,.89,0,1.33,0,.73.07,1.19.44,1.19,1.16a29.62,29.62,0,0,1-.25,5.42,6.37,6.37,0,0,1-2.87,4,8.7,8.7,0,0,1-5.1,1.37q-19.19,0-38.37,0a11.1,11.1,0,0,1-2.8-.37,5.21,5.21,0,0,1-3.37-2.84,5.54,5.54,0,0,1-.6-2.53c-.08-5.67-.16-11.33-.19-17q-.06-7,0-14c0-3.4.13-6.8.2-10.2a6.42,6.42,0,0,1,1.93-4.48,7,7,0,0,1,5-2.2q12.16,0,24.34,0H89.4a6.88,6.88,0,0,1,6,3.07,7.89,7.89,0,0,1,1.18,3,27.38,27.38,0,0,1,.31,4.53q0,15.06,0,30.13Zm-3.2,0V69.5q0-15.24,0-30.46,0-.93-.06-1.86a4,4,0,0,0-3.9-3.9c-.82-.06-1.64-.11-2.45-.11H61.25a16,16,0,0,0-2.19.13A3.92,3.92,0,0,0,56,35.22a7,7,0,0,0-.78,3.56q0,17.69,0,35.37c0,1,0,2,0,3.06A3.7,3.7,0,0,0,56,79.58a2.8,2.8,0,0,0,4.06.36A2.93,2.93,0,0,0,61.1,77.5c0-1.33,0-2.66,0-4a1.56,1.56,0,0,1,1.72-1.73H93.74ZM83.45,74.89c-6.14,0-12.28,0-18.41,0-.58,0-.82.12-.84.76,0,1.39-.17,2.79-.27,4.18-.06.85,0,.87.79.87q16.69,0,33.38,0a5,5,0,0,0,2.27-.57,4.22,4.22,0,0,0,2.27-4.38c-.06-.65-.23-.85-.91-.85C95.64,74.9,89.54,74.89,83.45,74.89Z"/><path class="cls-2" d="M73.19,41.88c.8,0,1.55,0,2.31,0,.46,0,.43-.3.49-.61a5,5,0,0,1,.45-1.72c.42-.68,1.23-.45,1.81-.26.33.1.5.68.73,1.06,0,0,0,.13,0,.19.08,1.44.07,1.5,1.56,1.55a4.69,4.69,0,0,1,3.76,2,2.69,2.69,0,0,1,.26,3.07,1.53,1.53,0,0,1-1.7.73c-.61-.13-.82-.59-.89-1.16a1.61,1.61,0,0,0-1.73-1.6c-3.79,0-7.58,0-11.37,0-1.25,0-1.71.55-1.73,1.8,0,.63,0,1.25,0,1.87,0,1.52.62,2.18,2.15,2.2,3.3,0,6.6,0,9.9,0,.49,0,1,0,1.47,0a3.94,3.94,0,0,1,4,3.11,11.5,11.5,0,0,1,0,5.22A3.3,3.3,0,0,1,83.2,62a14.34,14.34,0,0,1-2.39.83,1.23,1.23,0,0,1-.19,0c-1.52.12-1.52.12-1.64,1.62A1.37,1.37,0,0,1,77.6,65.8c-1,0-1.51-.42-1.6-1.35C75.87,63,75.87,63,74.35,63h-.2c-1,0-1,0-1,1,0,.56,0,1.24-.57,1.52a2.76,2.76,0,0,1-1.59.23c-.33-.07-.65-.59-.8-1A9,9,0,0,1,70,63.39a.74.74,0,0,0-.48-.45c-.54-.09-1.1-.06-1.65-.13a4.25,4.25,0,0,1-3.4-2.61,2.15,2.15,0,0,1,0-2.35,3.46,3.46,0,0,1,1-.91c.55-.3,1.35.26,1.55,1,.07.26.08.53.17.78A1.64,1.64,0,0,0,69,59.83c3.79,0,7.58,0,11.37,0,1.12,0,1.6-.55,1.61-1.87A29.05,29.05,0,0,0,81.72,55a.81.81,0,0,0-.75-.8,20.85,20.85,0,0,0-2.35-.26q-4.92,0-9.84,0a4.4,4.4,0,0,1-3.62-1.5A4.69,4.69,0,0,1,64.1,49.3a14.66,14.66,0,0,1,.36-4.47,3,3,0,0,1,2.08-2.17,23.34,23.34,0,0,1,3-.7c.41-.08.46-.29.49-.64,0-.61-.07-1.26.44-1.8a1.53,1.53,0,0,1,1.71-.27,1.5,1.5,0,0,1,.8.9A8.11,8.11,0,0,1,73.19,41.88Z"/></g></g></svg>