<svg xmlns="http://www.w3.org/2000/svg" viewBox="0 0 42.73 37.84"><defs><style>.cls-1{fill:#fff;}</style></defs><g id="Layer_2" data-name="Layer 2"><g id="Layer_1-2" data-name="Layer 1"><path class="cls-1" d="M16,30.74a3.55,3.55,0,1,1-3.55,3.55A3.54,3.54,0,0,1,16,30.74"/><path class="cls-1" d="M31.47,30.74a3.55,3.55,0,1,1-3.55,3.55,3.55,3.55,0,0,1,3.55-3.55"/><path class="cls-1" d="M40.51,11.27H18.59A1.73,1.73,0,0,0,17.29,13a2,2,0,0,0,1.3,1.84H38.24l-1.1,3.74H17.82a1.6,1.6,0,0,0-1.21,1.59,1.81,1.81,0,0,0,1.21,1.72H36.16l-1,3.5h-20L13.85,14.83l-.42-3.56S13,8,12.82,6.63,9.2,3.56,1.87.11c-1.72-.73-3.16,2.43,0,4.07l5.78,2.7S9,7.66,9.11,8.71s2.46,18.43,2.46,18.43.09,2.42,2.29,2.42h22a2.35,2.35,0,0,0,2.21-1.93l4.37-13s1.29-3.39-2-3.39"/></g></g></svg>