<svg xmlns="http://www.w3.org/2000/svg" xmlns:xlink="http://www.w3.org/1999/xlink" viewBox="0 0 98.86 98.86"><defs><style>.cls-1{fill:url(#radial-gradient);}.cls-2{fill:url(#radial-gradient-2);}.cls-3{fill:url(#radial-gradient-3);}.cls-4{fill:url(#radial-gradient-4);}.cls-5{fill:url(#radial-gradient-5);}.cls-6{fill:url(#radial-gradient-6);}.cls-7{fill:url(#radial-gradient-7);}.cls-8{fill:url(#radial-gradient-8);}.cls-9{fill:url(#radial-gradient-9);}.cls-10{fill:url(#radial-gradient-10);}.cls-11{fill:url(#radial-gradient-11);}.cls-12{fill:url(#radial-gradient-12);}.cls-13{fill:url(#radial-gradient-13);}.cls-14{fill:url(#radial-gradient-14);}.cls-15{fill:url(#radial-gradient-15);}.cls-16{fill:url(#radial-gradient-16);}.cls-17{fill:url(#radial-gradient-17);}.cls-18{fill:url(#radial-gradient-18);}.cls-19{fill:url(#radial-gradient-19);}.cls-20{fill:url(#radial-gradient-20);}.cls-21{fill:url(#radial-gradient-21);}.cls-22{fill:url(#radial-gradient-22);}.cls-23{fill:url(#radial-gradient-23);}.cls-24{fill:url(#radial-gradient-24);}.cls-25{fill:url(#radial-gradient-25);}.cls-26{fill:url(#radial-gradient-26);}.cls-27{fill:url(#radial-gradient-27);}.cls-28{fill:url(#linear-gradient);}.cls-29{fill:url(#linear-gradient-2);}</style><radialGradient id="radial-gradient" cx="53.15" cy="2.54" r="121.39" gradientUnits="userSpaceOnUse"><stop offset="0.13" stop-color="#fff"/><stop offset="0.34" stop-color="#fcfcfd"/><stop offset="0.52" stop-color="#f1f5f7"/><stop offset="0.69" stop-color="#dfe7ec"/><stop offset="0.85" stop-color="#c6d5dd"/><stop offset="1" stop-color="#a8becb"/></radialGradient><radialGradient id="radial-gradient-2" cx="53.32" cy="6.02" r="119.84" xlink:href="#radial-gradient"/><radialGradient id="radial-gradient-3" cx="53.49" cy="9.39" r="118.18" xlink:href="#radial-gradient"/><radialGradient id="radial-gradient-4" cx="53.65" cy="12.64" r="116.43" xlink:href="#radial-gradient"/><radialGradient id="radial-gradient-5" cx="53.8" cy="15.79" r="114.59" xlink:href="#radial-gradient"/><radialGradient id="radial-gradient-6" cx="53.95" cy="18.84" r="112.68" xlink:href="#radial-gradient"/><radialGradient id="radial-gradient-7" cx="54.1" cy="21.8" r="110.71" xlink:href="#radial-gradient"/><radialGradient id="radial-gradient-8" cx="54.24" cy="24.65" r="108.69" xlink:href="#radial-gradient"/><radialGradient id="radial-gradient-9" cx="54.38" cy="27.42" r="106.63" xlink:href="#radial-gradient"/><radialGradient id="radial-gradient-10" cx="54.52" cy="30.1" r="104.55" xlink:href="#radial-gradient"/><radialGradient id="radial-gradient-11" cx="54.65" cy="32.7" r="102.45" xlink:href="#radial-gradient"/><radialGradient id="radial-gradient-12" cx="54.79" cy="35.23" r="100.34" xlink:href="#radial-gradient"/><radialGradient id="radial-gradient-13" cx="54.92" cy="37.69" r="98.23" xlink:href="#radial-gradient"/><radialGradient id="radial-gradient-14" cx="55.06" cy="40.08" r="96.14" xlink:href="#radial-gradient"/><radialGradient id="radial-gradient-15" cx="55.19" cy="42.42" r="94.07" xlink:href="#radial-gradient"/><radialGradient id="radial-gradient-16" cx="55.33" cy="44.7" r="92.02" xlink:href="#radial-gradient"/><radialGradient id="radial-gradient-17" cx="55.48" cy="46.94" r="90.01" xlink:href="#radial-gradient"/><radialGradient id="radial-gradient-18" cx="55.62" cy="49.15" r="88.04" xlink:href="#radial-gradient"/><radialGradient id="radial-gradient-19" cx="55.77" cy="51.32" r="86.13" xlink:href="#radial-gradient"/><radialGradient id="radial-gradient-20" cx="55.92" cy="53.47" r="84.27" xlink:href="#radial-gradient"/><radialGradient id="radial-gradient-21" cx="56.09" cy="55.61" r="82.48" xlink:href="#radial-gradient"/><radialGradient id="radial-gradient-22" cx="56.25" cy="57.74" r="80.76" xlink:href="#radial-gradient"/><radialGradient id="radial-gradient-23" cx="56.43" cy="59.87" r="79.13" xlink:href="#radial-gradient"/><radialGradient id="radial-gradient-24" cx="56.61" cy="62.01" r="77.58" xlink:href="#radial-gradient"/><radialGradient id="radial-gradient-25" cx="56.8" cy="64.16" r="76.15" xlink:href="#radial-gradient"/><radialGradient id="radial-gradient-26" cx="57.01" cy="66.34" r="74.83" xlink:href="#radial-gradient"/><radialGradient id="radial-gradient-27" cx="57.22" cy="68.56" r="73.64" xlink:href="#radial-gradient"/><linearGradient id="linear-gradient" x1="9.59" y1="49.43" x2="89.27" y2="49.43" gradientUnits="userSpaceOnUse"><stop offset="0" stop-color="#ea9302"/><stop offset="1" stop-color="#c76319"/></linearGradient><linearGradient id="linear-gradient-2" x1="38.54" y1="49.43" x2="60.93" y2="49.43" xlink:href="#linear-gradient"/></defs><g id="Layer_2" data-name="Layer 2"><g id="Layer_1-2" data-name="Layer 1"><circle class="cls-1" cx="49.43" cy="49.43" r="49.43"/><path class="cls-2" d="M98,48.37A48.6,48.6,0,1,1,48.37.84,48.6,48.6,0,0,1,98,48.37Z"/><path class="cls-3" d="M97.18,47.31A47.8,47.8,0,1,1,47.31,1.68,47.79,47.79,0,0,1,97.18,47.31Z"/><path class="cls-4" d="M96.33,46.25A47,47,0,1,1,46.25,2.53,47,47,0,0,1,96.33,46.25Z"/><path class="cls-5" d="M95.49,45.19A46.25,46.25,0,1,1,45.19,3.37,46.26,46.26,0,0,1,95.49,45.19Z"/><path class="cls-6" d="M94.65,44.13A45.53,45.53,0,1,1,44.14,4.21,45.54,45.54,0,0,1,94.65,44.13Z"/><path class="cls-7" d="M93.81,43.07a44.83,44.83,0,1,1-50.73-38A44.83,44.83,0,0,1,93.81,43.07Z"/><path class="cls-8" d="M93,42A44.16,44.16,0,1,1,42,5.89,44.15,44.15,0,0,1,93,42Z"/><path class="cls-9" d="M92.12,41A43.52,43.52,0,1,1,41,6.74,43.52,43.52,0,0,1,92.12,41Z"/><path class="cls-10" d="M91.28,39.9A42.92,42.92,0,1,1,39.9,7.58,42.93,42.93,0,0,1,91.28,39.9Z"/><path class="cls-11" d="M90.44,38.84A42.36,42.36,0,1,1,38.84,8.42,42.34,42.34,0,0,1,90.44,38.84Z"/><path class="cls-12" d="M89.59,37.78A41.81,41.81,0,1,1,37.78,9.26,41.81,41.81,0,0,1,89.59,37.78Z"/><path class="cls-13" d="M88.75,36.72a41.32,41.32,0,1,1-52-26.62A41.33,41.33,0,0,1,88.75,36.72Z"/><path class="cls-14" d="M87.91,35.66A40.87,40.87,0,1,1,35.67,11,40.87,40.87,0,0,1,87.91,35.66Z"/><path class="cls-15" d="M87.07,34.6A40.45,40.45,0,1,1,34.61,11.79,40.44,40.44,0,0,1,87.07,34.6Z"/><path class="cls-16" d="M86.23,33.54A40.08,40.08,0,1,1,33.55,12.63,40.07,40.07,0,0,1,86.23,33.54Z"/><path class="cls-17" d="M85.38,32.48a39.74,39.74,0,1,1-52.89-19A39.74,39.74,0,0,1,85.38,32.48Z"/><path class="cls-18" d="M84.54,31.42A39.46,39.46,0,1,1,31.43,14.31,39.47,39.47,0,0,1,84.54,31.42Z"/><path class="cls-19" d="M83.7,30.37A39.21,39.21,0,1,1,30.37,15.16,39.2,39.2,0,0,1,83.7,30.37Z"/><path class="cls-20" d="M82.86,29.31A39,39,0,1,1,29.31,16,39,39,0,0,1,82.86,29.31Z"/><path class="cls-21" d="M82,28.25A38.86,38.86,0,1,1,28.25,16.84,38.86,38.86,0,0,1,82,28.25Z"/><path class="cls-22" d="M81.17,27.19a38.75,38.75,0,1,1-54-9.51A38.76,38.76,0,0,1,81.17,27.19Z"/><path class="cls-23" d="M80.33,26.13a38.7,38.7,0,1,1-54.19-7.6A38.7,38.7,0,0,1,80.33,26.13Z"/><path class="cls-24" d="M79.49,25.07a38.69,38.69,0,1,1-54.41-5.7A38.68,38.68,0,0,1,79.49,25.07Z"/><path class="cls-25" d="M78.64,24A38.72,38.72,0,1,1,24,20.21,38.71,38.71,0,0,1,78.64,24Z"/><path class="cls-26" d="M77.8,23A38.8,38.8,0,1,1,23,21.05,38.8,38.8,0,0,1,77.8,23Z"/><path class="cls-27" d="M77,21.89a38.94,38.94,0,1,1-55.06,0A38.94,38.94,0,0,1,77,21.89Z"/><path class="cls-28" d="M49.43,89.27A39.84,39.84,0,1,1,89.27,49.43,39.88,39.88,0,0,1,49.43,89.27Zm0-77.26A37.42,37.42,0,1,0,86.85,49.43,37.47,37.47,0,0,0,49.43,12Z"/><path class="cls-29" d="M58.2,30.06h-17a2.49,2.49,0,0,0-2.62,2.42v33.9a2.5,2.5,0,0,0,2.62,2.42h17a2.59,2.59,0,0,0,2.73-2.42V32.48A2.59,2.59,0,0,0,58.2,30.06ZM49.73,65.91a1.51,1.51,0,1,1,1.51-1.5A1.51,1.51,0,0,1,49.73,65.91Zm8.78-4.38H41V33.09H58.51Z"/></g></g></svg>