<svg xmlns="http://www.w3.org/2000/svg" xmlns:xlink="http://www.w3.org/1999/xlink" viewBox="0 0 14.3 11.92"><defs><style>.cls-1{fill:url(#linear-gradient);}.cls-2{fill:url(#linear-gradient-2);}.cls-3{fill:url(#linear-gradient-3);}</style><linearGradient id="linear-gradient" y1="5.96" x2="14.3" y2="5.96" gradientUnits="userSpaceOnUse"><stop offset="0" stop-color="#193233"/><stop offset="1" stop-color="#005d55"/></linearGradient><linearGradient id="linear-gradient-2" y1="8.94" x2="7.92" y2="8.94" xlink:href="#linear-gradient"/><linearGradient id="linear-gradient-3" x1="6.37" y1="8.94" x2="14.29" y2="8.94" xlink:href="#linear-gradient"/></defs><g id="Layer_2" data-name="Layer 2"><g id="Layer_1-2" data-name="Layer 1"><path class="cls-1" d="M2.38.41a1.38,1.38,0,0,0-2,0,1.38,1.38,0,0,0,0,2L4,6,.41,9.54a1.38,1.38,0,0,0,0,2,1.39,1.39,0,0,0,2,0L7.93,6Zm6.37,0a1.38,1.38,0,0,0-2,0,1.38,1.38,0,0,0,0,2L10.36,6,6.78,9.54a1.4,1.4,0,0,0,1,2.38,1.42,1.42,0,0,0,1-.41L14.3,6Z"/><path class="cls-2" d="M4,6,.41,9.54a1.38,1.38,0,0,0,0,2,1.39,1.39,0,0,0,2,0L7.92,6Z"/><path class="cls-3" d="M10.35,6,6.78,9.54a1.4,1.4,0,0,0,1,2.38,1.42,1.42,0,0,0,1-.41L14.29,6Z"/></g></g></svg>