<svg xmlns="http://www.w3.org/2000/svg" xmlns:xlink="http://www.w3.org/1999/xlink" viewBox="0 0 157.77 157.77"><defs><style>.cls-1{fill:#2a595d;stroke-miterlimit:10;stroke-width:5px;stroke:url(#New_Gradient_Swatch);}.cls-2{fill:#fff;}.cls-3{fill:#e6e7e8;}</style><linearGradient id="New_Gradient_Swatch" y1="78.88" x2="157.77" y2="78.88" gradientUnits="userSpaceOnUse"><stop offset="0" stop-color="#5cd0c0"/><stop offset="1" stop-color="#236c78"/></linearGradient></defs><g id="Layer_2" data-name="Layer 2"><g id="Layer_1-2" data-name="Layer 1"><circle class="cls-1" cx="78.88" cy="78.88" r="76.38"/><path class="cls-2" d="M72.09,123.33a2,2,0,1,0-2.8,2.8l5.1,5.1-5.1,5.1a2,2,0,0,0,0,2.8,2,2,0,0,0,2.8,0l7.9-7.9Zm9.07,0a2,2,0,1,0-2.81,2.8l5.1,5.1-5.1,5.1a2,2,0,0,0,2.81,2.8l7.9-7.9Z"/><path class="cls-3" d="M74.38,131.23l-5.09,5.1a2,2,0,0,0,0,2.8,2,2,0,0,0,2.8,0l7.9-7.9Z"/><path class="cls-3" d="M83.44,131.23l-5.09,5.1a2,2,0,0,0,2.81,2.8l7.89-7.9Z"/><path class="cls-2" d="M74.65,88.85a2.9,2.9,0,0,1-1,2.35A4.11,4.11,0,0,1,71,92h-.87v3.39h-2V85.88h3a4.08,4.08,0,0,1,2.63.74A2.71,2.71,0,0,1,74.65,88.85Zm-4.57,1.51h.67A2.18,2.18,0,0,0,72.14,90a1.28,1.28,0,0,0,.47-1.07,1.33,1.33,0,0,0-.39-1A1.87,1.87,0,0,0,71,87.53h-.92Z"/><path class="cls-2" d="M80.92,95.41l-.39-1h0a2.88,2.88,0,0,1-1,.87,3.26,3.26,0,0,1-1.39.25,2.23,2.23,0,0,1-1.65-.6,2.31,2.31,0,0,1-.6-1.71,1.93,1.93,0,0,1,.81-1.71,4.69,4.69,0,0,1,2.45-.61l1.26,0v-.32a1,1,0,0,0-1.13-1.11,5.22,5.22,0,0,0-2.06.53l-.66-1.34a5.93,5.93,0,0,1,2.8-.66,3.44,3.44,0,0,1,2.24.64,2.33,2.33,0,0,1,.79,1.94v4.86ZM80.33,92l-.77,0a2.49,2.49,0,0,0-1.29.31,1,1,0,0,0-.42.87c0,.56.32.85,1,.85a1.57,1.57,0,0,0,1.11-.4,1.43,1.43,0,0,0,.41-1.06Z"/><path class="cls-2" d="M83.31,88.12h2.18l1.37,4.1a5.42,5.42,0,0,1,.24,1.27h0a6.36,6.36,0,0,1,.28-1.27l1.35-4.1h2.14l-3.09,8.22a3.52,3.52,0,0,1-1.21,1.71,3,3,0,0,1-1.83.57,4.81,4.81,0,0,1-1-.11V96.93a3.81,3.81,0,0,0,.78.08,1.43,1.43,0,0,0,.92-.32,2.17,2.17,0,0,0,.62-1l.12-.36Z"/><path class="cls-2" d="M71.17,106.57a4.72,4.72,0,0,1-1.34,3.61A5.49,5.49,0,0,1,66,111.43h-2.7V101.9h3a5.05,5.05,0,0,1,3.63,1.23A4.53,4.53,0,0,1,71.17,106.57Zm-2.1.06c0-2-.91-3.07-2.71-3.07H65.28v6.2h.87Q69.07,109.76,69.07,106.63Z"/><path class="cls-2" d="M78.77,108.78a2.47,2.47,0,0,1-.93,2,4.06,4.06,0,0,1-2.58.74,6.09,6.09,0,0,1-2.7-.57v-1.88a10.8,10.8,0,0,0,1.63.61,5.17,5.17,0,0,0,1.22.17,1.71,1.71,0,0,0,1-.25.87.87,0,0,0,.36-.76.83.83,0,0,0-.16-.5,1.92,1.92,0,0,0-.46-.42,11.63,11.63,0,0,0-1.23-.64,6,6,0,0,1-1.31-.79,2.81,2.81,0,0,1-.7-.88,2.47,2.47,0,0,1-.26-1.18,2.45,2.45,0,0,1,.85-2,3.55,3.55,0,0,1,2.37-.73,5.47,5.47,0,0,1,1.42.18,10.33,10.33,0,0,1,1.41.49L78.07,104a9.24,9.24,0,0,0-1.26-.44,4.19,4.19,0,0,0-1-.13,1.29,1.29,0,0,0-.88.27.9.9,0,0,0-.31.7.83.83,0,0,0,.13.47,1.29,1.29,0,0,0,.39.38,12.87,12.87,0,0,0,1.28.67,5,5,0,0,1,1.83,1.28A2.5,2.5,0,0,1,78.77,108.78Z"/><path class="cls-2" d="M84.17,111.43h-2v-7.85H79.56V101.9h7.2v1.68H84.17Z"/><path class="cls-2" d="M93.67,101.9h2l-3.24,9.53H90.26L87,101.9h2l1.79,5.67c.1.34.21.73.31,1.17s.18.76.2.93a16.84,16.84,0,0,1,.49-2.1Z"/><g id="dstv"><path id="Shape" class="cls-2" d="M105.45,67.89H93.67c-1.65,0-2-.46-2-1.73V59.6a.4.4,0,0,1,.38-.4h6.85a1.11,1.11,0,0,1,.62.31l6.14,8.07c.11.18,0,.31-.18.31m-61.21,0H41.53a.42.42,0,0,1-.42-.42V55.19a.42.42,0,0,1,.42-.43h2.71c6.7,0,10.23,2.77,10.23,6.54s-3.58,6.55-10.23,6.55m79.2-10.39h-2a1.07,1.07,0,0,0-.66.34l-7.45,9.76a.29.29,0,0,1-.49,0L106,57.8a1,1,0,0,0-.74-.34H92.07a.42.42,0,0,1-.43-.42V53.81a.84.84,0,0,0-.82-.85H70.61c-3.13.11-4.47.42-5.89,1.25a3.42,3.42,0,0,0-2,2.94c0,1.25,1,2.5,3.07,3.72.53.31,2.42,1.23,5.67,2.74,2,.94,3.16,1.72,3.07,2.5-.14,1.25-1.25,1.67-3.92,1.67H58.41c-.29,0-.54,0-.54-.29a.34.34,0,0,1,.2-.29h0a6.75,6.75,0,0,0,3.65-5.9c0-3.79-3.18-8.34-15.79-8.34h-11a.83.83,0,0,0-.82.85v15a.82.82,0,0,0,.82.82h11c.42,0,.82,0,1.22,0H74.55a11.56,11.56,0,0,0,5.87-1.25,3.37,3.37,0,0,0,2-2.94c0-1.25-1-2.47-3.06-3.7-.54-.31-2.43-1.23-5.67-2.74-2-.94-3.07-1.72-3.07-2.3,0-1.25,1.33-1.87,4-1.87H83.8a.42.42,0,0,1,.42.42v10.9c0,1.61,1,3.48,4.25,3.48H114a1.19,1.19,0,0,0,.91-.4l8.74-11.5s.22-.25-.18-.25"/></g></g></g></svg>