<svg xmlns="http://www.w3.org/2000/svg" viewBox="0 0 18.75 19.14"><defs><style>.cls-1{fill:#6689c9;}.cls-1,.cls-2,.cls-3,.cls-4{fill-rule:evenodd;}.cls-2{fill:#4db74b;}.cls-3{fill:#ffcd05;}.cls-4{fill:#e22f31;}</style></defs><g id="Layer_2" data-name="Layer 2"><g id="Layer_1-2" data-name="Layer 1"><g id="GOOGLE_3-1" data-name="GOOGLE 3-1"><g id="G"><path class="cls-1" d="M17.38,15a7.07,7.07,0,0,1-1.48,1.79c-3.33-2.59-2.7-2.09-3-2.36a4.65,4.65,0,0,0,1.81-2.66c.07-.21,0-.29-.21-.29-1.54,0-3.08,0-4.63,0-.32,0-.32,0-.32-.34,0-1,0-2.09,0-3.13,0-.2,0-.28.26-.28h8.53c.16,0,.25,0,.28.2A10.53,10.53,0,0,1,17.38,15Z"/><path class="cls-2" d="M15.9,16.81a7.94,7.94,0,0,1-3.58,2A9.63,9.63,0,0,1,3.55,17,8.83,8.83,0,0,1,1,13.85l3.13-2.43a6.19,6.19,0,0,0,1.17,2,5.85,5.85,0,0,0,7.58,1C13.19,14.71,12.56,14.22,15.9,16.81Z"/><path class="cls-3" d="M4.15,11.42,1,13.85A9.45,9.45,0,0,1,1,5.28C4.49,7.94,4,7.54,4.17,7.68A6,6,0,0,0,4.15,11.42Z"/><path class="cls-4" d="M15.81,2.67c-2.68,2.62-2.47,2.6-2.67,2.42a5.61,5.61,0,0,0-9,2.59C4,7.55,4.5,8,1,5.28A9.46,9.46,0,0,1,8,.14a9.21,9.21,0,0,1,7.83,2.18C15.93,2.44,16,2.52,15.81,2.67Z"/></g></g></g></g></svg>