<svg xmlns="http://www.w3.org/2000/svg" xmlns:xlink="http://www.w3.org/1999/xlink" viewBox="0 0 112.39 112.39"><defs><style>.cls-1{fill:url(#linear-gradient);}</style><linearGradient id="linear-gradient" y1="56.2" x2="112.39" y2="56.2" gradientUnits="userSpaceOnUse"><stop offset="0" stop-color="#5cd0c0"/><stop offset="1" stop-color="#236c78"/></linearGradient></defs><g id="Layer_2" data-name="Layer 2"><g id="Layer_1-2" data-name="Layer 1"><path class="cls-1" d="M56.2,112.39A56.2,56.2,0,1,1,112.39,56.2,56.26,56.26,0,0,1,56.2,112.39Zm0-107.71A51.52,51.52,0,1,0,107.71,56.2,51.58,51.58,0,0,0,56.2,4.68Zm-7,31.24c-7,0-18.79-1.2-18.79-5.68s11.81-5.67,18.79-5.67S68,25.76,68,30.24,56.15,35.92,49.17,35.92Zm0-8.75c-9.9,0-15.8,2-16.19,3.12.39,1,6.29,3,16.19,3s15.65-2,16.18-3.07C64.82,29.14,58.94,27.17,49.17,27.17Zm16.2,3.12h0ZM68,37.61V31.12a1.31,1.31,0,1,0-2.61,0v6.49c0,1.17-5.51,3.92-16.19,3.92S33,38.78,33,37.61V31.12a1.3,1.3,0,1,0-2.6,0v6.49c0,4.48,9.74,6.53,18.79,6.53S68,42.09,68,37.61Zm0,8.74V38.11a1.31,1.31,0,0,0-2.61,0v8.24c0,1.18-5.51,3.93-16.19,3.93S33,47.53,33,46.35V38.11a1.3,1.3,0,0,0-2.6,0v8.24c0,4.49,9.74,6.53,18.79,6.53S68,50.84,68,46.35ZM55.66,60.6A1.3,1.3,0,1,0,55.35,58a54.6,54.6,0,0,1-6.24.35C38.47,58.37,33,55.63,33,54.46V45.11a1.3,1.3,0,0,0-2.6,0v9.35c0,4.48,9.71,6.51,18.73,6.51A55.38,55.38,0,0,0,55.66,60.6ZM68,52.11V46.86a1.31,1.31,0,0,0-2.61,0v5.25a1.31,1.31,0,0,0,2.61,0Zm-18,17.61a1.31,1.31,0,0,0,0-2.61h-.79C38.47,67.12,33,64.38,33,63.21V52.11a1.3,1.3,0,1,0-2.6,0v11.1c0,4.47,9.71,6.51,18.73,6.51ZM51,77.87a1.31,1.31,0,0,0,1.26-1.35,1.29,1.29,0,0,0-1.34-1.26c-.6,0-1.21,0-1.82,0C38.47,75.29,33,72.55,33,71.39V62.6a1.3,1.3,0,1,0-2.6,0v8.79c0,4.47,9.71,6.51,18.73,6.51C49.75,77.9,50.39,77.89,51,77.87Zm20.9,12.27a17,17,0,1,1,17-17A17.06,17.06,0,0,1,71.91,90.14Zm0-31.48A14.44,14.44,0,1,0,86.35,73.1,14.45,14.45,0,0,0,71.91,58.66ZM78.46,76.6a4.8,4.8,0,0,0-4.8-4.8h-3.5a2.2,2.2,0,0,1,0-4.4h7a1.3,1.3,0,0,0,0-2.6h-7a4.8,4.8,0,1,0,0,9.6h3.5a2.2,2.2,0,1,1,0,4.39h-7a1.31,1.31,0,0,0,0,2.61h7A4.81,4.81,0,0,0,78.46,76.6ZM73.21,66.1V62.6a1.3,1.3,0,1,0-2.6,0v3.5a1.3,1.3,0,0,0,2.6,0Zm0,17.49v-3.5a1.3,1.3,0,0,0-2.6,0v3.5a1.3,1.3,0,0,0,2.6,0Z"/></g></g></svg>