<svg xmlns="http://www.w3.org/2000/svg" viewBox="0 0 72.86 72.86"><defs><style>.cls-1{fill:#fff;}</style></defs><g id="Layer_2" data-name="Layer 2"><g id="Layer_1-2" data-name="Layer 1"><path class="cls-1" d="M36.43,72.86A36.43,36.43,0,1,1,72.86,36.43,36.47,36.47,0,0,1,36.43,72.86Zm0-70.27A33.84,33.84,0,1,0,70.27,36.43,33.88,33.88,0,0,0,36.43,2.59Z"/><path class="cls-1" d="M45.36,51.34H13.63a.76.76,0,0,1-.76-.76V36.72a.76.76,0,0,1,.76-.76H45.36a.75.75,0,0,1,.75.76V50.58A.75.75,0,0,1,45.36,51.34Zm-31-1.52H44.6V37.47H14.39Z"/><path class="cls-1" d="M29.49,51.34c-3.17,0-5.76-3.45-5.76-7.69S26.32,36,29.49,36s5.77,3.45,5.77,7.69S32.67,51.34,29.49,51.34Zm0-13.87c-2.34,0-4.24,2.77-4.24,6.18s1.9,6.17,4.24,6.17,4.25-2.77,4.25-6.17S31.84,37.47,29.49,37.47Z"/><path class="cls-1" d="M29.49,41.64a.76.76,0,0,1-.75-.75v-.56a.76.76,0,1,1,1.51,0v.56A.76.76,0,0,1,29.49,41.64Z"/><path class="cls-1" d="M29.49,47.17A2.12,2.12,0,0,1,27.4,45a.76.76,0,0,1,.76-.76.75.75,0,0,1,.75.76.58.58,0,1,0,1.16,0,.6.6,0,0,0-.58-.62,2.14,2.14,0,1,1,2.1-2.14.76.76,0,0,1-1.52,0,.58.58,0,1,0-.58.62,2.14,2.14,0,0,1,0,4.28Z"/><path class="cls-1" d="M29.49,47.8a.76.76,0,0,1-.75-.76v-.63a.76.76,0,1,1,1.51,0V47A.76.76,0,0,1,29.49,47.8Z"/><path class="cls-1" d="M39.76,44.41H37.43a.76.76,0,0,1,0-1.52h2.33a.76.76,0,0,1,0,1.52Z"/><path class="cls-1" d="M41.16,48.63H37a.76.76,0,0,1-.76-.76.75.75,0,0,1,.76-.75h3.52a2.23,2.23,0,0,1,1.29-1.42V41.6a2.25,2.25,0,0,1-1.29-1.42H37a.76.76,0,0,1-.76-.76.75.75,0,0,1,.76-.75h4.15a.75.75,0,0,1,.76.75.74.74,0,0,0,.66.81.76.76,0,0,1,.75.76v5.32a.76.76,0,0,1-.75.76.74.74,0,0,0-.66.8A.76.76,0,0,1,41.16,48.63Z"/><path class="cls-1" d="M21.56,44.41H19.23a.76.76,0,1,1,0-1.52h2.33a.76.76,0,1,1,0,1.52Z"/><path class="cls-1" d="M22,48.63H17.82a.75.75,0,0,1-.75-.76.74.74,0,0,0-.66-.8.76.76,0,0,1-.76-.76V41a.76.76,0,0,1,.76-.76.75.75,0,0,0,.66-.81.74.74,0,0,1,.75-.75H22a.75.75,0,0,1,.75.75.76.76,0,0,1-.75.76H18.46a2.28,2.28,0,0,1-1.29,1.42v4.1a2.25,2.25,0,0,1,1.29,1.42H22a.75.75,0,0,1,.75.75A.76.76,0,0,1,22,48.63Z"/><path class="cls-1" d="M57.64,42H48.38a.76.76,0,1,1,0-1.52h9.26a1.56,1.56,0,0,0,1.56-1.55V24.34a1.56,1.56,0,0,0-1.56-1.56H31.78a1.56,1.56,0,0,0-1.55,1.56v9.43a.76.76,0,0,1-1.52,0V24.34a3.07,3.07,0,0,1,3.07-3.07H57.64a3.07,3.07,0,0,1,3.07,3.07v14.6A3.08,3.08,0,0,1,57.64,42Z"/><path class="cls-1" d="M60,30.93H29.47a.76.76,0,0,1-.76-.76V25.79a.76.76,0,0,1,.76-.76h8.94a.76.76,0,1,1,0,1.52H30.23v2.86h29V26.55H43.52a.76.76,0,0,1,0-1.52H60a.76.76,0,0,1,.76.76v4.38A.76.76,0,0,1,60,30.93Z"/><path class="cls-1" d="M55.26,34.59H50.93a.76.76,0,0,1,0-1.52h4.33a.76.76,0,0,1,0,1.52Z"/><path class="cls-1" d="M55.26,38.05H48.38a.76.76,0,1,1,0-1.51h6.88a.76.76,0,1,1,0,1.51Z"/></g></g></svg>