<svg xmlns="http://www.w3.org/2000/svg" xmlns:xlink="http://www.w3.org/1999/xlink" viewBox="0 0 182.27 182.27"><defs><style>.cls-1{fill:#d68107;stroke-width:5px;stroke:url(#New_Gradient_Swatch_copy_2);}.cls-1,.cls-2{stroke-miterlimit:10;}.cls-2{fill:none;stroke:#f7941d;stroke-width:2px;}.cls-3{fill:#fff;}.cls-4{fill:#e6e7e8;}</style><linearGradient id="New_Gradient_Swatch_copy_2" x1="12.25" y1="91.13" x2="170.02" y2="91.13" gradientUnits="userSpaceOnUse"><stop offset="0" stop-color="#ea9302"/><stop offset="1" stop-color="#c76319"/></linearGradient></defs><g id="Layer_2" data-name="Layer 2"><g id="Layer_1-2" data-name="Layer 1"><circle class="cls-1" cx="91.13" cy="91.13" r="76.38"/><circle class="cls-2" cx="91.13" cy="91.13" r="90.13"/><path class="cls-3" d="M84.34,134.63a2,2,0,1,0-2.8,2.81l5.1,5.09-5.1,5.1a2,2,0,0,0,0,2.8,2,2,0,0,0,2.8,0l7.91-7.9Zm9.07,0a2,2,0,0,0-2.81,2.81l5.1,5.09-5.1,5.1a2,2,0,0,0,2.81,2.8l7.9-7.9Z"/><path class="cls-4" d="M86.63,142.54l-5.09,5.09a2,2,0,0,0,0,2.8,2,2,0,0,0,2.8,0l7.9-7.89Z"/><path class="cls-4" d="M95.69,142.54l-5.09,5.09a2,2,0,0,0,2.81,2.8l7.89-7.89Z"/><path class="cls-3" d="M90.37,85.55h-1.3V83.92a3.76,3.76,0,0,0-.78-2.3l-3.81-4.93a5.08,5.08,0,0,1-1-3.09V63.81a5.12,5.12,0,0,0-5.12-5.11.65.65,0,0,0-.65.64V72.85H76.37V59.34a1.94,1.94,0,0,1,1.94-1.94,6.41,6.41,0,0,1,6.41,6.41V73.6a3.74,3.74,0,0,0,.79,2.29l3.81,4.94a5.08,5.08,0,0,1,1.05,3.09Z"/><path class="cls-3" d="M73.43,85.55h-1.3V58.05a17.49,17.49,0,0,1,3.69-10.72l4.93-6,1,.83-4.92,5.95a16.15,16.15,0,0,0-3.4,9.9Z"/><polygon class="cls-3" points="110.14 80.56 93.96 80.56 93.96 79.26 108.84 79.26 108.84 32.55 81.9 32.55 81.9 53.08 80.6 53.08 80.6 31.25 110.14 31.25 110.14 80.56"/><path class="cls-3" d="M97.49,60.79H91.13v-1.3h6.36a1.47,1.47,0,1,0,0-2.93H93.25a2.77,2.77,0,0,1,0-5.54h6.36v1.3H93.25a1.47,1.47,0,0,0,0,2.94h4.24a2.77,2.77,0,1,1,0,5.53Z"/><rect class="cls-3" x="94.72" y="60.14" width="1.3" height="2.82"/><rect class="cls-3" x="94.72" y="48.85" width="1.3" height="2.82"/><path class="cls-3" d="M102,76.92H100.7a6,6,0,0,1,6-6v1.3A4.68,4.68,0,0,0,102,76.92Z"/><path class="cls-3" d="M84.24,40.7V39.4a4.68,4.68,0,0,0,4.67-4.67h1.3A6,6,0,0,1,84.24,40.7Z"/><path class="cls-3" d="M106.67,40.7a6,6,0,0,1-6-6H102a4.68,4.68,0,0,0,4.68,4.67Z"/><path class="cls-3" d="M90.21,76.92h-1.3a4.68,4.68,0,0,0-4.67-4.67V71A6,6,0,0,1,90.21,76.92Z"/><path class="cls-3" d="M75.53,101.43a3.51,3.51,0,0,1-.55,1.93,3.61,3.61,0,0,1-1.6,1.31,5.88,5.88,0,0,1-2.43.47,9.71,9.71,0,0,1-2-.17,7.37,7.37,0,0,1-1.65-.57v-2.81a9.12,9.12,0,0,0,1.88.72,7.16,7.16,0,0,0,1.79.26,1.76,1.76,0,0,0,1-.24.76.76,0,0,0,.33-.63.68.68,0,0,0-.13-.42,1.48,1.48,0,0,0-.43-.36,14.65,14.65,0,0,0-1.55-.76,7.51,7.51,0,0,1-1.72-1A3.09,3.09,0,0,1,67.7,98a3.62,3.62,0,0,1-.28-1.5A3,3,0,0,1,68.6,94a5.19,5.19,0,0,1,3.23-.9,9.06,9.06,0,0,1,3.7.84l-1,2.44a7,7,0,0,0-2.83-.75,1.53,1.53,0,0,0-.9.21.68.68,0,0,0-.28.54.76.76,0,0,0,.36.61,12.85,12.85,0,0,0,1.93,1,5.38,5.38,0,0,1,2.1,1.46A3.2,3.2,0,0,1,75.53,101.43Z"/><path class="cls-3" d="M85.5,105H78.56V93.29H85.5v2.53H81.72v1.84h3.5v2.54h-3.5v2.2H85.5Z"/><path class="cls-3" d="M99.91,105H95.77L91.5,96.74h-.08c.11,1.3.16,2.29.16,3V105h-2.8V93.29H92.9l4.26,8.12h0c-.08-1.18-.12-2.12-.12-2.84V93.29h2.82Z"/><path class="cls-3" d="M113.59,98.88a6,6,0,0,1-1.61,4.51,6.19,6.19,0,0,1-4.53,1.59h-3.79V93.29h4a6.11,6.11,0,0,1,4.35,1.44A5.42,5.42,0,0,1,113.59,98.88Zm-3.28.12a3.69,3.69,0,0,0-.64-2.39,2.35,2.35,0,0,0-1.93-.77h-.92v6.55h.71a2.54,2.54,0,0,0,2.11-.84A4.09,4.09,0,0,0,110.31,99Z"/><path class="cls-3" d="M68.81,112.94h3.53l-3.83,11.69H64.79L61,112.94h3.55l1.59,5.92a19.83,19.83,0,0,1,.55,2.75,13.37,13.37,0,0,1,.22-1.4c.11-.55.21-1,.3-1.31Z"/><path class="cls-3" d="M82,124.63l-.58-2.19h-3.8L77,124.63H73.57l3.82-11.74H81.6l3.86,11.74Zm-1.23-4.78-.51-1.92c-.12-.43-.26-1-.43-1.66s-.27-1.16-.33-1.45c-.05.27-.14.72-.28,1.34s-.46,1.85-.94,3.69Z"/><path class="cls-3" d="M88,124.63V112.94h3.16v9.14h4.5v2.55Z"/><path class="cls-3" d="M108.65,112.94v7a4.71,4.71,0,0,1-1.3,3.55,6.17,6.17,0,0,1-7.42,0,4.66,4.66,0,0,1-1.28-3.52v-7.11h3.17v6.86a2.79,2.79,0,0,0,.47,1.8,1.66,1.66,0,0,0,1.36.56,1.68,1.68,0,0,0,1.41-.56,3,3,0,0,0,.43-1.82v-6.84Z"/><path class="cls-3" d="M119.27,124.63h-6.94V112.94h6.94v2.53h-3.78v1.84H119v2.54h-3.5v2.2h3.78Z"/></g></g></svg>