<svg xmlns="http://www.w3.org/2000/svg" xmlns:xlink="http://www.w3.org/1999/xlink" viewBox="0 0 119.22 119.22"><defs><style>.cls-1{fill:#00a79d;}.cls-2{fill:#017c70;}.cls-3{fill:url(#linear-gradient);}.cls-4{fill:#fff;}</style><linearGradient id="linear-gradient" x1="65.65" y1="55.72" x2="106.26" y2="96.33" gradientUnits="userSpaceOnUse"><stop offset="0" stop-color="#005a5f"/><stop offset="1" stop-color="#00a79d"/></linearGradient></defs><g id="Layer_2" data-name="Layer 2"><g id="Layer_1-2" data-name="Layer 1"><circle class="cls-1" cx="59.61" cy="59.61" r="59.61" transform="translate(-22.08 38.78) rotate(-30.69)"/><path class="cls-2" d="M1.28,60.89A59.61,59.61,0,0,1,102.4,18.11,59.61,59.61,0,1,0,18.11,102.4,59.45,59.45,0,0,1,1.28,60.89Z"/><path class="cls-3" d="M47.61,88.89l28.51,28a59.62,59.62,0,0,0,43.1-57.28c0-.52,0-1,0-1.57L92.1,31Z"/><path class="cls-4" d="M51.29,89.87a7.4,7.4,0,0,1-5.81-2.81L25.92,62.39a7.41,7.41,0,1,1,11.61-9.21L57.09,77.85a7.42,7.42,0,0,1-5.8,12Z"/><path class="cls-4" d="M51.28,89.87a7.42,7.42,0,0,1-5.8-12L81.69,32.17a7.41,7.41,0,1,1,11.62,9.21L57.09,87.06A7.42,7.42,0,0,1,51.28,89.87Z"/></g></g></svg>