<svg xmlns="http://www.w3.org/2000/svg" xmlns:xlink="http://www.w3.org/1999/xlink" viewBox="0 0 34.12 32.92"><defs><style>.cls-1{fill:url(#linear-gradient);}.cls-2{fill:url(#linear-gradient-2);}.cls-3{fill:#010101;}.cls-4{fill:url(#linear-gradient-3);}</style><linearGradient id="linear-gradient" x1="15.02" y1="29.8" x2="11.63" y2="62.21" gradientUnits="userSpaceOnUse"><stop offset="0.02" stop-color="#ec1c24"/><stop offset="1" stop-color="#be1e2d"/></linearGradient><linearGradient id="linear-gradient-2" x1="10.71" y1="26.16" x2="10.71" y2="30.76" xlink:href="#linear-gradient"/><linearGradient id="linear-gradient-3" x1="3.28" y1="25.34" x2="3.28" y2="31.37" xlink:href="#linear-gradient"/></defs><g id="Layer_2" data-name="Layer 2"><g id="Layer_1-2" data-name="Layer 1"><path class="cls-1" d="M24.45,15.31a14.47,14.47,0,0,1-2.6,1.22,12.49,12.49,0,0,1-3.08.77c-.44.07-.9.13-1.36.18h0c-4.3.37-8-.56-10.08-2.54l-.06,0c0,.08,0,.16,0,.24a3.7,3.7,0,0,0,.92,2.39c1.71,2,5,3,8.81,3.09a15.38,15.38,0,0,0,6.64-1.32,7,7,0,0,0,2.22-1.62,3.71,3.71,0,0,0,1-2.38,3.62,3.62,0,0,0-.39-1.59A8.66,8.66,0,0,1,24.45,15.31ZM16.94,12.6c-4,.31-7.49-.44-9.65-2.16a3.73,3.73,0,0,0,.92,2.17c1.7,2,5,3,8.8,3.09a15.32,15.32,0,0,0,6.64-1.32,6.89,6.89,0,0,0,2.22-1.62,3.62,3.62,0,0,0,1-2.38,3.45,3.45,0,0,0-.58-1.93C25.69,9.19,23.31,12.12,16.94,12.6Zm.12-1.81a15.16,15.16,0,0,0,6.63-1.32,6.94,6.94,0,0,0,2.23-1.62,3.67,3.67,0,0,0,1-2.37A3.63,3.63,0,0,0,26,3.09c-1.71-2-5-3-8.81-3.09a15.35,15.35,0,0,0-6.64,1.31A7.16,7.16,0,0,0,8.29,2.93a3.73,3.73,0,0,0-1,2.38A3.71,3.71,0,0,0,8.25,7.7C10,9.66,13.24,10.73,17.06,10.79ZM9.63,3.38c.92-1.13,3.8-2.23,7.18-2.17A12.9,12.9,0,0,1,22.44,2.4,4.68,4.68,0,0,1,24,3.5a1.49,1.49,0,0,1,.41,1,1.44,1.44,0,0,1-.43,1C23,6.55,20.13,7.66,16.75,7.6a13.19,13.19,0,0,1-5.63-1.19A4.83,4.83,0,0,1,9.61,5.3a1.49,1.49,0,0,1-.41-1A1.44,1.44,0,0,1,9.63,3.38Z"/><path class="cls-2" d="M10.21,26.08a1.41,1.41,0,0,0-1.12-.45H6.89l-.16.83h2.2a.66.66,0,0,1,.54.24.7.7,0,0,1,.13.59l0,.15v.09h-2A2,2,0,0,0,6.2,28a2,2,0,0,0-.73,1.19l0,.09A1.3,1.3,0,0,0,6.8,31H9.68l.78-3.7A1.29,1.29,0,0,0,10.21,26.08Zm-1.2,4H7a.7.7,0,0,1-.56-.24.64.64,0,0,1-.12-.59l0-.09a1,1,0,0,1,.36-.59,1.05,1.05,0,0,1,.66-.24h2Zm6.15-4.49-.93,4.48h-2.1a.7.7,0,0,1-.56-.24.67.67,0,0,1-.12-.59l.75-3.65h-.84l-.76,3.65a1.34,1.34,0,0,0,.24,1.19,1.38,1.38,0,0,0,1.12.47h2.12l-.07.31a1.06,1.06,0,0,1-.38.59,1,1,0,0,1-.64.24H10.11l-.18.84h2.89a2,2,0,0,0,1.29-.49,2.06,2.06,0,0,0,.75-1.18L16,25.63Z"/><path class="cls-3" d="M24,31H21.14A1.36,1.36,0,0,1,20,30.48a1.34,1.34,0,0,1-.23-1.19l0-.09A2,2,0,0,1,20.54,28a2,2,0,0,1,1.31-.48h2v-.09l0-.15a.65.65,0,0,0-.67-.83H20.89l.17-.83h2.37a1.43,1.43,0,0,1,1.12.45,1.32,1.32,0,0,1,.25,1.17Zm-.67-.83.35-1.75h-2a1,1,0,0,0-.65.24,1,1,0,0,0-.36.59l0,.09a.64.64,0,0,0,.13.59.68.68,0,0,0,.55.24Z"/><path class="cls-3" d="M29.55,29.53a1.64,1.64,0,0,1-.73,1.08,2.14,2.14,0,0,1-1.25.37H24.72l.17-.84h2.85c.57,0,.89-.2,1-.61l0-.2c.09-.41-.15-.61-.71-.61H26.76a1.55,1.55,0,0,1-1.1-.36,1.1,1.1,0,0,1-.3-1.09l.05-.2A1.64,1.64,0,0,1,26.14,26a2.21,2.21,0,0,1,1.25-.36h2.86l-.16.83H27.23c-.57,0-.89.2-1,.61l0,.2c-.08.41.16.61.72.61h1.28a1.55,1.55,0,0,1,1.1.37,1.07,1.07,0,0,1,.29,1.08Z"/><path class="cls-3" d="M33.4,30.94H32.07a1.3,1.3,0,0,1-1.36-1.66l.59-2.86h-.53l.19-.86h.53l.39-1.91h.86l-.4,1.91h1.78l-.19.86H32.15l-.59,2.86a.67.67,0,0,0,.12.59.69.69,0,0,0,.55.24h1.34Z"/><path class="cls-4" d="M6.38,26.11a2,2,0,0,1-.73,1.17,2,2,0,0,1-1.28.47H1.49L.83,31H0l1.5-7.22H5.21a1.31,1.31,0,0,1,1.08.48,1.38,1.38,0,0,1,.24,1.17Zm-.83,0,.15-.73a.67.67,0,0,0-.12-.59A.65.65,0,0,0,5,24.56H2.16l-.5,2.37H4.54a1,1,0,0,0,.64-.23A1.07,1.07,0,0,0,5.55,26.11Z"/><path d="M22.56,24.49h-3.5a1.1,1.1,0,0,0-1,.83l-.33,1.6h2.18l-.17.85H17.54L16.87,31H16l1.16-5.65a2.17,2.17,0,0,1,2.06-1.67h3.49Z"/></g></g></svg>