<svg xmlns="http://www.w3.org/2000/svg" viewBox="0 0 33.21 32.87"><defs><style>.cls-1{fill:#009ade;}.cls-2{fill:#002f87;}.cls-3{fill:#002169;}</style></defs><g id="Layer_2" data-name="Layer 2"><g id="Layer_1-2" data-name="Layer 1"><path class="cls-1" d="M22.41,24H19.82a.36.36,0,0,0-.35.3l-1,6.62a.22.22,0,0,0,.22.25H20a.25.25,0,0,0,.25-.21l.3-1.88a.35.35,0,0,1,.35-.3h.82a2.65,2.65,0,0,0,2.94-2.45,2,2,0,0,0-.33-1.67A2.41,2.41,0,0,0,22.41,24Zm.29,2.42c-.14.92-.84.92-1.53.92h-.39l.27-1.73a.23.23,0,0,1,.22-.18h.18c.46,0,.9,0,1.13.27A.82.82,0,0,1,22.7,26.44Z"/><path class="cls-2" d="M4,24H1.4a.35.35,0,0,0-.35.3L0,30.94a.21.21,0,0,0,.22.25H1.45a.35.35,0,0,0,.35-.3l.28-1.79a.37.37,0,0,1,.36-.3h.82A2.65,2.65,0,0,0,6.2,26.35a2,2,0,0,0-.33-1.67A2.41,2.41,0,0,0,4,24Zm.3,2.42c-.14.92-.85.92-1.53.92H2.36l.27-1.73a.22.22,0,0,1,.21-.18H3c.47,0,.91,0,1.14.27A.89.89,0,0,1,4.28,26.44Z"/><path class="cls-2" d="M11.7,26.41H10.47a.2.2,0,0,0-.21.18l-.06.35-.09-.13a1.74,1.74,0,0,0-1.46-.52,2.85,2.85,0,0,0-2.76,2.49,2.33,2.33,0,0,0,.46,1.9,2,2,0,0,0,1.56.63,2.36,2.36,0,0,0,1.71-.71l0,.34a.21.21,0,0,0,.21.25h1.11a.36.36,0,0,0,.36-.3l.67-4.23A.22.22,0,0,0,11.7,26.41ZM10,28.82A1.38,1.38,0,0,1,8.58,30a1.06,1.06,0,0,1-.83-.34,1,1,0,0,1-.19-.87A1.38,1.38,0,0,1,9,27.6a1,1,0,0,1,1,1.22Z"/><path class="cls-1" d="M30.13,26.41H28.89a.2.2,0,0,0-.21.18l-.06.35-.08-.13a1.77,1.77,0,0,0-1.46-.52,2.86,2.86,0,0,0-2.77,2.49,2.34,2.34,0,0,0,.47,1.9,1.93,1.93,0,0,0,1.55.63,2.4,2.4,0,0,0,1.72-.71l-.06.34a.21.21,0,0,0,.21.25h1.12a.35.35,0,0,0,.35-.3l.67-4.23A.22.22,0,0,0,30.13,26.41ZM28.4,28.82A1.38,1.38,0,0,1,27,30a1,1,0,0,1-.83-.34,1,1,0,0,1-.2-.87,1.38,1.38,0,0,1,1.39-1.19,1,1,0,0,1,.82.34A1,1,0,0,1,28.4,28.82Z"/><path class="cls-2" d="M18.29,26.41H17.05a.37.37,0,0,0-.3.16L15,29.09l-.73-2.43a.36.36,0,0,0-.34-.25H12.74a.21.21,0,0,0-.2.28l1.37,4-1.29,1.82a.22.22,0,0,0,.18.34H14a.34.34,0,0,0,.29-.16l4.14-6A.21.21,0,0,0,18.29,26.41Z"/><path class="cls-1" d="M31.58,24.2l-1.06,6.74a.21.21,0,0,0,.22.25H31.8a.37.37,0,0,0,.36-.3l1-6.62A.22.22,0,0,0,33,24H31.8A.23.23,0,0,0,31.58,24.2Z"/><path class="cls-1" d="M24.66,5.44a4.25,4.25,0,0,0-.91-3.82C22.76.48,21,0,18.67,0H12a1,1,0,0,0-.94.8L8.3,18.39a.56.56,0,0,0,.56.66H13l-.28,1.8a.5.5,0,0,0,.49.58h3.47a.83.83,0,0,0,.82-.7l0-.18.65-4.14,0-.23a.84.84,0,0,1,.83-.7h.51c3.36,0,6-1.37,6.76-5.31a4.51,4.51,0,0,0-.7-4,3.15,3.15,0,0,0-.94-.74h0"/><path class="cls-3" d="M24.66,5.44a4.25,4.25,0,0,0-.91-3.82C22.76.48,21,0,18.67,0H12a1,1,0,0,0-.94.8L8.3,18.39a.56.56,0,0,0,.56.66H13l1-6.55,0,.21a1,1,0,0,1,.94-.81h2c3.83,0,6.84-1.56,7.72-6.07,0-.13.05-.26.07-.39"/><path class="cls-2" d="M15.12,5.47a.84.84,0,0,1,.46-.63.86.86,0,0,1,.36-.08h5.22a10.2,10.2,0,0,1,1.72.13l.44.08.42.11.19.06a7,7,0,0,1,.73.3,4.25,4.25,0,0,0-.91-3.82C22.76.48,21,0,18.67,0H12a1,1,0,0,0-.94.8L8.3,18.39a.56.56,0,0,0,.56.66H13l1-6.55Z"/></g></g></svg>