<svg xmlns="http://www.w3.org/2000/svg" xmlns:xlink="http://www.w3.org/1999/xlink" viewBox="0 0 40.02 40.02"><defs><style>.cls-1{fill:url(#linear-gradient);}</style><linearGradient id="linear-gradient" y1="20.01" x2="40.02" y2="20.01" gradientUnits="userSpaceOnUse"><stop offset="0" stop-color="#193233"/><stop offset="1" stop-color="#005d55"/></linearGradient></defs><g id="Layer_2" data-name="Layer 2"><g id="Layer_1-2" data-name="Layer 1"><path class="cls-1" d="M17.5,20.33H15.41V16.92H17.5V14.23c0-2.52,1.34-3.83,4.33-3.83h2.79v3.49H22.44c-.77,0-.93.32-.93,1.11v1.92h3.11l-.71,3.37h-2.4v9.34h-4ZM40,20A20,20,0,1,0,20,40,20,20,0,0,0,40,20Zm-2.31,0A17.7,17.7,0,1,1,20,2.31,17.72,17.72,0,0,1,37.71,20Z"/></g></g></svg>