<svg xmlns="http://www.w3.org/2000/svg" xmlns:xlink="http://www.w3.org/1999/xlink" viewBox="0 0 40.02 40.02"><defs><style>.cls-1{fill:url(#linear-gradient);}.cls-2{fill:url(#linear-gradient-2);}</style><linearGradient id="linear-gradient" x1="11.22" y1="20.01" x2="28.81" y2="20.01" gradientUnits="userSpaceOnUse"><stop offset="0" stop-color="#193233"/><stop offset="1" stop-color="#005d55"/></linearGradient><linearGradient id="linear-gradient-2" x1="0" y1="20.01" x2="40.02" y2="20.01" xlink:href="#linear-gradient"/></defs><g id="Layer_2" data-name="Layer 2"><g id="Layer_1-2" data-name="Layer 1"><path class="cls-1" d="M11.22,25.54a10.22,10.22,0,0,0,5.53,1.62c8,0,10.48-5.66,10.26-10.74a6.56,6.56,0,0,0,1.8-1.87,6.5,6.5,0,0,1-2,.58,3.51,3.51,0,0,0,1.51-2A7.29,7.29,0,0,1,26,14a3.62,3.62,0,0,0-2.64-1.14,3.74,3.74,0,0,0-3.47,4.61,10.49,10.49,0,0,1-7.48-3.95,3.62,3.62,0,0,0,1.12,4.82,3.65,3.65,0,0,1-1.64-.45,3.62,3.62,0,0,0,2.9,3.59,3.87,3.87,0,0,1-1.63.06,3.7,3.7,0,0,0,3.52,2.38A7.73,7.73,0,0,1,11.22,25.54Z"/><path class="cls-2" d="M20,40A20,20,0,1,1,40,20,20,20,0,0,1,20,40ZM20,2.31A17.7,17.7,0,1,0,37.71,20,17.72,17.72,0,0,0,20,2.31Z"/></g></g></svg>