<svg xmlns="http://www.w3.org/2000/svg" xmlns:xlink="http://www.w3.org/1999/xlink" viewBox="0 0 157.77 157.77"><defs><style>.cls-1{fill:#2f5f62;stroke-miterlimit:10;stroke-width:5px;stroke:url(#New_Gradient_Swatch);}.cls-2{fill:#fff;}.cls-3{fill:#e6e7e8;}</style><linearGradient id="New_Gradient_Swatch" y1="78.88" x2="157.77" y2="78.88" gradientUnits="userSpaceOnUse"><stop offset="0" stop-color="#5cd0c0"/><stop offset="1" stop-color="#236c78"/></linearGradient></defs><g id="Layer_2" data-name="Layer 2"><g id="Layer_1-2" data-name="Layer 1"><circle class="cls-1" cx="78.88" cy="78.88" r="76.38"/><path class="cls-2" d="M72.09,123.33a2,2,0,1,0-2.8,2.8l5.1,5.1-5.1,5.1a2,2,0,0,0,0,2.8,2,2,0,0,0,2.8,0l7.9-7.9Zm9.07,0a2,2,0,1,0-2.81,2.8l5.1,5.1-5.1,5.1a2,2,0,0,0,2.81,2.8l7.9-7.9Z"/><path class="cls-3" d="M74.38,131.23l-5.09,5.1a2,2,0,0,0,0,2.8,2,2,0,0,0,2.8,0l7.9-7.9Z"/><path class="cls-3" d="M83.44,131.23l-5.09,5.1a2,2,0,0,0,2.81,2.8l7.89-7.9Z"/><path class="cls-2" d="M40.57,96.67h3a5.75,5.75,0,0,1,2.94.58,2,2,0,0,1,.91,1.84,2.3,2.3,0,0,1-.4,1.4,1.62,1.62,0,0,1-1.06.66v.06a2.15,2.15,0,0,1,1.31.76,2.51,2.51,0,0,1,.4,1.47,2.44,2.44,0,0,1-1,2,4.09,4.09,0,0,1-2.55.73H40.57Zm2,3.78h1.17a2.12,2.12,0,0,0,1.19-.26.94.94,0,0,0,.37-.84.83.83,0,0,0-.4-.78,2.57,2.57,0,0,0-1.27-.24H42.59Zm0,1.6v2.49h1.32a2,2,0,0,0,1.23-.32,1.21,1.21,0,0,0,.4-1c0-.79-.57-1.19-1.7-1.19Z"/><path class="cls-2" d="M54.55,106.21l-.27-.94h-.1a2.2,2.2,0,0,1-.91.79,3.18,3.18,0,0,1-1.34.28,2.53,2.53,0,0,1-1.93-.69,2.75,2.75,0,0,1-.66-2V98.92h2v4.25a2.13,2.13,0,0,0,.28,1.19,1,1,0,0,0,.9.39,1.32,1.32,0,0,0,1.2-.56,3.4,3.4,0,0,0,.37-1.84V98.92h2v7.29Z"/><path class="cls-2" d="M57.12,98.92h2.17l1.38,4.1a5.23,5.23,0,0,1,.24,1.26h0a5.52,5.52,0,0,1,.28-1.26l1.35-4.1h2.13l-3.08,8.22a3.65,3.65,0,0,1-1.21,1.71,3.13,3.13,0,0,1-1.84.56,4.28,4.28,0,0,1-1-.11v-1.58a3.21,3.21,0,0,0,.78.09,1.46,1.46,0,0,0,.93-.32,2.14,2.14,0,0,0,.61-1l.12-.36Z"/><path class="cls-2" d="M75.21,106.21l-.69-2.27H71.05l-.69,2.27H68.18l3.36-9.58H74l3.38,9.58Zm-1.17-4c-.64-2-1-3.22-1.08-3.49s-.14-.48-.17-.64c-.15.56-.56,1.94-1.23,4.13Z"/><path class="cls-2" d="M78.35,97c0-.65.36-1,1.08-1s1.08.32,1.08,1a.94.94,0,0,1-.27.72,1.14,1.14,0,0,1-.81.26C78.71,98,78.35,97.68,78.35,97Zm2.07,9.18h-2V98.92h2Z"/><path class="cls-2" d="M86.58,98.78a3.13,3.13,0,0,1,.67.06l-.15,1.86a2.49,2.49,0,0,0-.59-.06,2.08,2.08,0,0,0-1.48.49,1.74,1.74,0,0,0-.53,1.37v3.71h-2V98.92H84l.3,1.22h.1a2.71,2.71,0,0,1,.91-1A2.26,2.26,0,0,1,86.58,98.78Z"/><path class="cls-2" d="M91.64,104.75a4,4,0,0,0,1.25-.23V106a4.44,4.44,0,0,1-1.82.34,2.24,2.24,0,0,1-1.74-.61,2.63,2.63,0,0,1-.54-1.81v-3.51h-1v-.84l1.09-.67.57-1.54h1.28v1.56h2v1.49h-2v3.51a.77.77,0,0,0,.23.63A1,1,0,0,0,91.64,104.75Z"/><path class="cls-2" d="M94.28,97c0-.65.36-1,1.09-1s1.08.32,1.08,1a.94.94,0,0,1-.27.72,1.14,1.14,0,0,1-.81.26C94.64,98,94.28,97.68,94.28,97Zm2.08,9.18h-2V98.92h2Z"/><path class="cls-2" d="M105,106.21h-2V102a2.23,2.23,0,0,0-.26-1.19,1,1,0,0,0-.84-.39,1.21,1.21,0,0,0-1.1.56,3.68,3.68,0,0,0-.35,1.85v3.43h-2V98.92H100l.27.93h.11a2,2,0,0,1,.85-.79,2.73,2.73,0,0,1,1.27-.28,2.31,2.31,0,0,1,2.22,1.07h.17a2,2,0,0,1,.87-.79,2.8,2.8,0,0,1,1.28-.28,2.53,2.53,0,0,1,1.88.64,2.79,2.79,0,0,1,.63,2v4.76h-2V102a2.14,2.14,0,0,0-.27-1.19.92.92,0,0,0-.83-.39,1.24,1.24,0,0,0-1.09.52,3,3,0,0,0-.36,1.66Z"/><path class="cls-2" d="M114.85,106.34a3.76,3.76,0,0,1-2.75-1,3.66,3.66,0,0,1-1-2.75,4,4,0,0,1,.92-2.83,3.24,3.24,0,0,1,2.53-1,3.18,3.18,0,0,1,2.4.88,3.32,3.32,0,0,1,.87,2.43v1h-4.71a1.93,1.93,0,0,0,.51,1.32,1.74,1.74,0,0,0,1.31.48,5.57,5.57,0,0,0,1.25-.14,6,6,0,0,0,1.22-.44v1.54a5,5,0,0,1-1.11.39A7.41,7.41,0,0,1,114.85,106.34Zm-.28-6.15a1.26,1.26,0,0,0-1,.41,1.78,1.78,0,0,0-.41,1.13H116a1.67,1.67,0,0,0-.38-1.13A1.32,1.32,0,0,0,114.57,100.19Z"/><path class="cls-2" d="M99.25,46.81A12.45,12.45,0,1,1,86.79,34.23,12.53,12.53,0,0,1,99.25,46.81Zm-2.54-.05c.28-5.28-4.52-10.08-10-10a10,10,0,0,0,.07,19.92C91.87,56.82,97.1,51.81,96.71,46.76Z"/><circle class="cls-2" cx="73.58" cy="80.27" r="1.39"/><path class="cls-2" d="M86.81,63c-.44,0-.87,0-1.3-.06,0,7,0,10.91,0,14.78,0,3.28-1.42,4.63-4.57,4.64q-7.38,0-14.76,0c-3.24,0-5.07-1.88-5.07-5.13q0-17.08,0-34.17c0-3.43,2.07-5.33,5.54-5.22,2.13.07,5.86.05,8.2,0a13.5,13.5,0,0,1,2.91-2.52c-4,0-9.4-.1-12.83,0a7,7,0,0,0-6.33,6.78q-.09,18,0,36.06a7,7,0,0,0,6.67,6.64q8.33.12,16.66,0a6,6,0,0,0,5.95-5.72c.11-4.32.1-8.65.08-16.17C87.56,63,87.19,63,86.81,63Z"/><path class="cls-2" d="M83.46,62.65A15.39,15.39,0,0,1,81,61.88c0,5.82,0,8.71,0,11.59,0,1.62-.4,2.22-2.1,2.17-3.77-.12-7.55-.1-11.33,0-1.53,0-2.06-.38-2-2,.08-9.38,0-18.77,0-28.15,0-.56.07-1.12.11-1.85h6.21a13,13,0,0,1,.87-2.6H69c-1.33,0-2.65,0-4,0s-2,.53-2,1.91q0,16.65,0,33.3c0,1.48.62,2,2.07,2q8.15-.06,16.3,0c1.56,0,2.11-.61,2.09-2.16C83.44,72.48,83.4,68.89,83.46,62.65Z"/><path class="cls-2" d="M91,47.89a2.84,2.84,0,0,0-.7-1,3.68,3.68,0,0,0-1-.63,12.19,12.19,0,0,0-1.15-.42L87,45.54a5.53,5.53,0,0,1-1-.36,2.16,2.16,0,0,1-.71-.51,1.08,1.08,0,0,1-.26-.76,1.12,1.12,0,0,1,.43-.93,2.09,2.09,0,0,1,1.17-.33h.51a2.22,2.22,0,0,1,.56.11,1.4,1.4,0,0,1,.94.93,2.77,2.77,0,0,1,.15.75l2.34-.27a4.22,4.22,0,0,0-.45-1.74,3.16,3.16,0,0,0-1-1.08,3.56,3.56,0,0,0-1.09-.47V39.21h-3.1v1.6l-.39.08a4.23,4.23,0,0,0-1.39.7,3.41,3.41,0,0,0-.94,1.13,3.5,3.5,0,0,0-.34,1.55,3.38,3.38,0,0,0,.27,1.43,2.78,2.78,0,0,0,.7,1,3.48,3.48,0,0,0,1,.62,9.2,9.2,0,0,0,1.15.4l1.15.3a6.47,6.47,0,0,1,1,.34,2.28,2.28,0,0,1,.71.49,1.13,1.13,0,0,1,.26.76,1.39,1.39,0,0,1-.16.7,1.45,1.45,0,0,1-.44.45,1.77,1.77,0,0,1-.63.25,3.7,3.7,0,0,1-.76.07,2.78,2.78,0,0,1-1.08-.17,2,2,0,0,1-.69-.46,2.13,2.13,0,0,1-.41-.68,4.46,4.46,0,0,1-.2-.82L82,49.26a4.41,4.41,0,0,0,.52,1.92,3.45,3.45,0,0,0,1.08,1.16,4.15,4.15,0,0,0,1.44.58l.47.07v1.65h3.1V52.79a4.24,4.24,0,0,0,1.23-.59,3.54,3.54,0,0,0,1-1.18,3.67,3.67,0,0,0,.38-1.74A3.19,3.19,0,0,0,91,47.89Z"/></g></g></svg>