<svg xmlns="http://www.w3.org/2000/svg" xmlns:xlink="http://www.w3.org/1999/xlink" viewBox="0 0 20.86 18.07"><defs><style>.cls-1{fill:url(#linear-gradient);}.cls-2{fill:url(#linear-gradient-2);}.cls-3{fill:url(#linear-gradient-3);}</style><linearGradient id="linear-gradient" y1="1.35" x2="20.86" y2="1.35" gradientUnits="userSpaceOnUse"><stop offset="0" stop-color="#5cd0c0"/><stop offset="1" stop-color="#236c78"/></linearGradient><linearGradient id="linear-gradient-2" y1="9.03" x2="20.86" y2="9.03" xlink:href="#linear-gradient"/><linearGradient id="linear-gradient-3" y1="16.72" x2="20.86" y2="16.72" xlink:href="#linear-gradient"/></defs><g id="Layer_2" data-name="Layer 2"><g id="Layer_1-2" data-name="Layer 1"><path class="cls-1" d="M19.59,2.69H1.27A1.31,1.31,0,0,1,0,1.35,1.31,1.31,0,0,1,1.27,0H19.59a1.31,1.31,0,0,1,1.27,1.35,1.31,1.31,0,0,1-1.27,1.34"/><path class="cls-2" d="M19.59,10.38H1.27a1.35,1.35,0,0,1,0-2.69H19.59a1.35,1.35,0,0,1,0,2.69"/><path class="cls-3" d="M19.59,18.07H1.27a1.35,1.35,0,0,1,0-2.7H19.59a1.35,1.35,0,0,1,0,2.7"/></g></g></svg>