<svg xmlns="http://www.w3.org/2000/svg" xmlns:xlink="http://www.w3.org/1999/xlink" viewBox="0 0 157.77 157.77"><defs><style>.cls-1{fill:#2f5f62;stroke-miterlimit:10;stroke-width:5px;stroke:url(#New_Gradient_Swatch);}.cls-2{fill:#fff;}.cls-3{fill:#e6e7e8;}</style><linearGradient id="New_Gradient_Swatch" y1="78.88" x2="157.77" y2="78.88" gradientUnits="userSpaceOnUse"><stop offset="0" stop-color="#5cd0c0"/><stop offset="1" stop-color="#236c78"/></linearGradient></defs><g id="Layer_2" data-name="Layer 2"><g id="Layer_1-2" data-name="Layer 1"><circle class="cls-1" cx="78.88" cy="78.88" r="76.38"/><path class="cls-2" d="M72.09,123.33a2,2,0,1,0-2.8,2.8l5.1,5.1-5.1,5.1a2,2,0,0,0,0,2.8,2,2,0,0,0,2.8,0l7.9-7.9Zm9.07,0a2,2,0,1,0-2.81,2.8l5.1,5.1-5.1,5.1a2,2,0,0,0,2.81,2.8l7.9-7.9Z"/><path class="cls-3" d="M74.38,131.23l-5.09,5.1a2,2,0,0,0,0,2.8,2,2,0,0,0,2.8,0l7.9-7.9Z"/><path class="cls-3" d="M83.44,131.23l-5.09,5.1a2,2,0,0,0,2.81,2.8l7.89-7.9Z"/><path class="cls-2" d="M34,96.67h3a5.75,5.75,0,0,1,2.94.58,2,2,0,0,1,.92,1.84,2.37,2.37,0,0,1-.4,1.4,1.67,1.67,0,0,1-1.07.66v.06a2.15,2.15,0,0,1,1.31.76,2.51,2.51,0,0,1,.4,1.47,2.43,2.43,0,0,1-.94,2,4.08,4.08,0,0,1-2.56.73H34Zm2,3.78h1.18a2.16,2.16,0,0,0,1.19-.26,1,1,0,0,0,.36-.84.83.83,0,0,0-.4-.78,2.54,2.54,0,0,0-1.27-.24H36Zm0,1.6v2.49h1.32a2,2,0,0,0,1.23-.32,1.18,1.18,0,0,0,.4-1c0-.79-.57-1.19-1.7-1.19Z"/><path class="cls-2" d="M48,106.2l-.27-.93h-.1a2.2,2.2,0,0,1-.91.79,3.18,3.18,0,0,1-1.34.28,2.53,2.53,0,0,1-1.93-.69,2.75,2.75,0,0,1-.65-2V98.92h2v4.25a2.13,2.13,0,0,0,.28,1.19,1,1,0,0,0,.9.39,1.31,1.31,0,0,0,1.2-.56,3.39,3.39,0,0,0,.38-1.84V98.92h2v7.28Z"/><path class="cls-2" d="M50.52,98.92H52.7l1.37,4.1a5.23,5.23,0,0,1,.24,1.26h0a5.52,5.52,0,0,1,.28-1.26L56,98.92h2.13L55,107.14a3.59,3.59,0,0,1-1.21,1.71,3.11,3.11,0,0,1-1.84.56,4.28,4.28,0,0,1-1-.11v-1.58a3.24,3.24,0,0,0,.79.09,1.43,1.43,0,0,0,.92-.32,2.06,2.06,0,0,0,.61-1l.12-.36Z"/><path class="cls-2" d="M66.4,100.85h3.78v4.94a10.56,10.56,0,0,1-1.73.42,10.05,10.05,0,0,1-1.66.13,4.23,4.23,0,0,1-3.3-1.27,5.32,5.32,0,0,1-1.13-3.64,4.8,4.8,0,0,1,1.32-3.6,5,5,0,0,1,3.66-1.29,7.1,7.1,0,0,1,2.83.58l-.67,1.62a4.79,4.79,0,0,0-2.18-.52,2.65,2.65,0,0,0-2.09.88,3.39,3.39,0,0,0-.79,2.37,3.84,3.84,0,0,0,.63,2.37,2.22,2.22,0,0,0,1.85.81,6.42,6.42,0,0,0,1.29-.13v-2H66.4Z"/><path class="cls-2" d="M76.36,98.78a3.13,3.13,0,0,1,.67.06l-.15,1.86a2.4,2.4,0,0,0-.58-.06,2.11,2.11,0,0,0-1.49.49,1.77,1.77,0,0,0-.53,1.37v3.7h-2V98.92H73.8l.29,1.22h.1a2.73,2.73,0,0,1,.92-1A2.23,2.23,0,0,1,76.36,98.78Z"/><path class="cls-2" d="M85,102.55a3.9,3.9,0,0,1-.94,2.78,3.4,3.4,0,0,1-2.61,1,3.77,3.77,0,0,1-1.86-.46,3.14,3.14,0,0,1-1.23-1.32,4.57,4.57,0,0,1-.43-2,3.91,3.91,0,0,1,.93-2.78,3.45,3.45,0,0,1,2.63-1,3.63,3.63,0,0,1,1.85.46,3.06,3.06,0,0,1,1.23,1.31A4.34,4.34,0,0,1,85,102.55Zm-5,0a3,3,0,0,0,.36,1.63,1.26,1.26,0,0,0,1.15.56,1.28,1.28,0,0,0,1.15-.55,3.15,3.15,0,0,0,.35-1.64,3,3,0,0,0-.36-1.63,1.49,1.49,0,0,0-2.3,0A3.06,3.06,0,0,0,79.94,102.55Z"/><path class="cls-2" d="M89.58,106.34q-3.4,0-3.4-3.74a4,4,0,0,1,.92-2.84,3.51,3.51,0,0,1,2.66-1,5.08,5.08,0,0,1,2.27.49l-.59,1.54c-.31-.12-.6-.23-.87-.31a2.84,2.84,0,0,0-.81-.12c-1,0-1.55.74-1.55,2.21s.51,2.13,1.55,2.13a3.62,3.62,0,0,0,1.06-.15,3.7,3.7,0,0,0,1-.48v1.7a3.12,3.12,0,0,1-1,.43A5.3,5.3,0,0,1,89.58,106.34Z"/><path class="cls-2" d="M96.79,106.34a3.74,3.74,0,0,1-2.75-1,3.63,3.63,0,0,1-1-2.75A4,4,0,0,1,94,99.78a3.26,3.26,0,0,1,2.53-1,3.2,3.2,0,0,1,2.41.88,3.35,3.35,0,0,1,.86,2.43v1h-4.7a1.92,1.92,0,0,0,.5,1.32,1.75,1.75,0,0,0,1.32.48,5.48,5.48,0,0,0,1.24-.14,6.32,6.32,0,0,0,1.23-.44v1.54a5.11,5.11,0,0,1-1.12.39A7.23,7.23,0,0,1,96.79,106.34Zm-.28-6.15a1.26,1.26,0,0,0-1,.4,1.9,1.9,0,0,0-.42,1.14h2.79a1.62,1.62,0,0,0-.38-1.14A1.32,1.32,0,0,0,96.51,100.19Z"/><path class="cls-2" d="M105.44,98.78a3.23,3.23,0,0,1,.68.06L106,100.7a2.49,2.49,0,0,0-.59-.06,2.07,2.07,0,0,0-1.48.49,1.74,1.74,0,0,0-.54,1.37v3.7h-2V98.92h1.5l.3,1.22h.09a2.73,2.73,0,0,1,.92-1A2.23,2.23,0,0,1,105.44,98.78Z"/><path class="cls-2" d="M107.35,97c0-.65.37-1,1.09-1s1.08.32,1.08,1a.94.94,0,0,1-.27.72,1.14,1.14,0,0,1-.81.26C107.72,98,107.35,97.68,107.35,97Zm2.08,9.17h-2V98.92h2Z"/><path class="cls-2" d="M114.81,106.34a3.76,3.76,0,0,1-2.75-1,3.66,3.66,0,0,1-1-2.75,4,4,0,0,1,.92-2.83,3.72,3.72,0,0,1,4.94-.12,3.35,3.35,0,0,1,.86,2.43v1h-4.7a1.88,1.88,0,0,0,.5,1.32,1.74,1.74,0,0,0,1.31.48,5.57,5.57,0,0,0,1.25-.14,6.32,6.32,0,0,0,1.23-.44v1.54a5.11,5.11,0,0,1-1.12.39A7.41,7.41,0,0,1,114.81,106.34Zm-.28-6.15a1.29,1.29,0,0,0-1,.4,1.9,1.9,0,0,0-.41,1.14h2.79a1.72,1.72,0,0,0-.38-1.14A1.35,1.35,0,0,0,114.53,100.19Z"/><path class="cls-2" d="M124.49,104a2,2,0,0,1-.78,1.71,3.86,3.86,0,0,1-2.33.59,7.55,7.55,0,0,1-1.36-.11,5.12,5.12,0,0,1-1-.32v-1.64a7.6,7.6,0,0,0,1.25.44,5.38,5.38,0,0,0,1.22.17c.72,0,1.09-.21,1.09-.62a.53.53,0,0,0-.15-.39,2.51,2.51,0,0,0-.49-.33c-.24-.12-.55-.27-.94-.43a6.46,6.46,0,0,1-1.24-.65,1.85,1.85,0,0,1-.57-.69,2.28,2.28,0,0,1-.18-1,1.73,1.73,0,0,1,.75-1.5,3.72,3.72,0,0,1,2.14-.53,6.08,6.08,0,0,1,2.56.57l-.6,1.44a10.39,10.39,0,0,0-1-.39,3.22,3.22,0,0,0-1-.15c-.59,0-.89.16-.89.48a.56.56,0,0,0,.29.46,7.16,7.16,0,0,0,1.24.58,5.57,5.57,0,0,1,1.25.65,1.91,1.91,0,0,1,.59.69A2.2,2.2,0,0,1,124.49,104Z"/><path class="cls-2" d="M62,60.05l-1.71-1.6-6.19-5.78a2.43,2.43,0,0,1-.12-3.6c1-1.13,2.1-2.25,3.15-3.37.55-.59.84-.6,1.47-.09a4.2,4.2,0,0,0,6.24-5.46,7.49,7.49,0,0,0-.67-.82.78.78,0,0,1,0-1.16c1.14-1.24,2.27-2.49,3.45-3.68a2.42,2.42,0,0,1,3.5,0l5.17,4.83q10.94,10.2,21.87,20.42a1.32,1.32,0,0,0,1,.38c1,0,1.92,0,2.88,0a2.44,2.44,0,0,1,2.56,2.54c0,1.55,0,3.11,0,4.67,0,.75-.21.95-1,1a4.21,4.21,0,0,0-.81,8.29,7.63,7.63,0,0,0,1,.12c.52,0,.81.3.82.82,0,1.7,0,3.4,0,5.1A2.36,2.36,0,0,1,102,85H58.92a2.37,2.37,0,0,1-2.5-2.42c0-1.62,0-3.24,0-4.86,0-.67.23-.88,1-.93a4.21,4.21,0,0,0,.77-8.3,6.7,6.7,0,0,0-.9-.11c-.54,0-.81-.28-.81-.82,0-1.7-.05-3.4,0-5.1a2.38,2.38,0,0,1,2.43-2.3h3.07Zm5.25,1.73-.17-.05H58.87a.86.86,0,0,0-.89,1c0,1.26,0,2.51,0,3.76,0,.28.07.41.37.48a5.76,5.76,0,0,1,0,11.3c-.28.06-.36.17-.36.44,0,1.22,0,2.44,0,3.66,0,.81.29,1.1,1.1,1.1h7.6l.54,0c0-.57,0-1.08,0-1.59a1,1,0,0,1,.28-.67,1,1,0,0,1,.79-.1,1,1,0,0,1,.46.7,15.72,15.72,0,0,1,0,1.69h32.88c.13,0,.26,0,.39,0a.87.87,0,0,0,.91-.91c0-1.3,0-2.6,0-3.89a.53.53,0,0,0-.3-.37,17.32,17.32,0,0,1-1.78-.7A5.75,5.75,0,0,1,102.51,67c.37-.08.47-.23.46-.6,0-1.17,0-2.34,0-3.51,0-.83-.3-1.13-1.13-1.13h-33v1.61c0,.57-.3.9-.78.89s-.77-.32-.78-.89S67.22,62.3,67.22,61.78ZM57.91,47.13c-1,1-1.92,2-2.84,3-.44.47-.37.94.15,1.42L60,56.1l1.14,1L62.24,56c.42-.44.86-.49,1.22-.15a.84.84,0,0,1-.08,1.24c-.33.36-.68.72-1,1.12.61.57,1.18,1.13,1.78,1.65a1.16,1.16,0,0,0,.67.26H95.62l.56,0-19-17.77-1,1.11c-.43.44-.86.51-1.22.19s-.35-.81.07-1.27l1-1.1-1.7-1.58c-1.43-1.34-2.85-2.68-4.29-4-.45-.42-.92-.51-1.28-.14-1,1-2,2.1-3,3.14,1.74,3.14,1.6,5.65-.37,7.71A5.88,5.88,0,0,1,57.91,47.13Z"/><path class="cls-2" d="M76.1,68.88c.12-.56.18-1.14.35-1.68a3.42,3.42,0,0,1,4.34-2.33A2.83,2.83,0,0,1,82.41,66,5.12,5.12,0,0,1,82,72.23a3.28,3.28,0,0,1-5.16-.67A5.91,5.91,0,0,1,76.1,68.88Zm5.19.08-.05,0c0-.33,0-.67-.08-1a2.7,2.7,0,0,0-.14-.56,1.3,1.3,0,0,0-1.23-1,1.27,1.27,0,0,0-1.3,1,5.23,5.23,0,0,0,0,3.25,1.17,1.17,0,0,0,1.19.93,1.21,1.21,0,0,0,1.23-.9A15.46,15.46,0,0,0,81.29,69Z"/><path class="cls-2" d="M92.32,76a5.67,5.67,0,0,1-.65,2.46,3.4,3.4,0,0,1-5.9,0,5.06,5.06,0,0,1,.56-5.65A3.29,3.29,0,0,1,92,74.09,14.87,14.87,0,0,1,92.32,76Zm-2,0-.08,0c0-.36-.06-.73-.1-1.09a2.47,2.47,0,0,0-.11-.47,1.26,1.26,0,0,0-1.16-1,1.29,1.29,0,0,0-1.33.84,4.91,4.91,0,0,0,0,3.48,1.16,1.16,0,0,0,1.17.83,1.11,1.11,0,0,0,1.15-.77C90.05,77.17,90.17,76.56,90.32,76Z"/><path class="cls-2" d="M89.91,64.78c-.26.44-.46.78-.67,1.12Q85,72.79,80.72,79.68a.78.78,0,0,1-.81.44c-.42,0-.85,0-1.38,0l1-1.62,8.29-13.35a.63.63,0,0,1,.65-.36C88.91,64.8,89.36,64.78,89.91,64.78Z"/><path class="cls-2" d="M68.78,72.6c0,.28,0,.55,0,.82a.78.78,0,1,1-1.55,0c0-.58,0-1.15,0-1.72A.75.75,0,0,1,68,71a.77.77,0,0,1,.8.73c0,.3,0,.6,0,.9Z"/><path class="cls-2" d="M68.77,77.57c0,.29,0,.58,0,.87a.77.77,0,0,1-.77.75.74.74,0,0,1-.77-.75c0-.58,0-1.15,0-1.73A.75.75,0,0,1,68,76a.77.77,0,0,1,.77.75c0,.29,0,.58,0,.86Z"/><path class="cls-2" d="M68.77,67.6c0,.29,0,.58,0,.86a.77.77,0,0,1-.78.75.75.75,0,0,1-.76-.76c0-.57,0-1.15,0-1.72A.76.76,0,0,1,68,66a.78.78,0,0,1,.77.76,3.09,3.09,0,0,1,0,.43v.43Z"/><path class="cls-2" d="M65.11,54.85c-.19-.14-.48-.25-.57-.46a.94.94,0,0,1,0-.79,11.48,11.48,0,0,1,1.29-1.41.7.7,0,0,1,1,0,.67.67,0,0,1,.14,1,18.79,18.79,0,0,1-1.36,1.47C65.53,54.75,65.34,54.76,65.11,54.85Z"/><path class="cls-2" d="M73.91,45.36c0,.62-1.4,2.15-1.84,2.12a1,1,0,0,1-.71-.36,1,1,0,0,1,0-.84,7.17,7.17,0,0,1,1.28-1.36,1,1,0,0,1,.83-.08C73.7,44.93,73.83,45.25,73.91,45.36Z"/><path class="cls-2" d="M68.68,51.14c-.68,0-1.11-.66-.75-1.14a9.85,9.85,0,0,1,1.4-1.49.66.66,0,0,1,1,.1.68.68,0,0,1,.1,1c-.41.51-.88,1-1.34,1.44C68.94,51.1,68.76,51.11,68.68,51.14Z"/></g></g></svg>