<svg xmlns="http://www.w3.org/2000/svg" viewBox="0 0 21.19 17.66"><defs><style>.cls-1{fill:#fff;}</style></defs><g id="Layer_2" data-name="Layer 2"><g id="Layer_1-2" data-name="Layer 1"><path class="cls-1" d="M3.52.6A2.06,2.06,0,0,0,.6,3.52L5.91,8.83.6,14.14a2.06,2.06,0,0,0,2.92,2.92l8.23-8.23ZM13,.6A2.06,2.06,0,0,0,10,3.52l5.31,5.31L10,14.14A2.06,2.06,0,0,0,13,17.06l8.23-8.23Z"/><path class="cls-1" d="M5.9,8.84.6,14.14a2.06,2.06,0,0,0,2.92,2.92l8.22-8.22Z"/><path class="cls-1" d="M15.34,8.84,10,14.14A2.06,2.06,0,0,0,13,17.06l8.22-8.22Z"/></g></g></svg>