<svg xmlns="http://www.w3.org/2000/svg" xmlns:xlink="http://www.w3.org/1999/xlink" viewBox="0 0 114.29 114.29"><defs><style>.cls-1{fill:url(#linear-gradient);}.cls-2{fill:#fff;}</style><linearGradient id="linear-gradient" x1="7200.3" y1="-981.88" x2="7314.59" y2="-981.88" gradientTransform="translate(-924.74 -7200.3) rotate(90)" gradientUnits="userSpaceOnUse"><stop offset="0" stop-color="#193233"/><stop offset="1" stop-color="#002d55"/></linearGradient></defs><g id="Layer_2" data-name="Layer 2"><g id="Layer_1-2" data-name="Layer 1"><circle class="cls-1" cx="57.15" cy="57.15" r="57.15"/><g id="lock"><path class="cls-2" d="M57.69,79.09a4,4,0,0,1-4-4V73.23a6,6,0,0,1,4-10.37,6,6,0,0,1,4.05,10.36v1.84A4,4,0,0,1,57.69,79.09Zm0-13.38a3.13,3.13,0,0,0-3.12,3.13,3.06,3.06,0,0,0,1.32,2.53,1.45,1.45,0,0,1,.61,1.18v2.51a1.2,1.2,0,0,0,2.39,0V72.55a1.45,1.45,0,0,1,.6-1.17,3.1,3.1,0,0,0,1.32-2.54A3.13,3.13,0,0,0,57.69,65.71Z"/><path class="cls-2" d="M74.35,57.26a1.41,1.41,0,0,1-1.42-1.42V40.06c0-8.5-6.67-15.53-14.86-15.67a14.87,14.87,0,0,0-10.89,4.34,15,15,0,0,0-4.53,10.8v5.58a2.83,2.83,0,0,0,2.82,2.82h2a1.43,1.43,0,0,1,0,2.85h-2a5.68,5.68,0,0,1-5.67-5.67V39.53a17.84,17.84,0,0,1,5.39-12.84,18,18,0,0,1,12.93-5.15c9.74.17,17.65,8.48,17.65,18.52V55.84A1.41,1.41,0,0,1,74.35,57.26Z"/><path class="cls-2" d="M68.11,52.1a1.43,1.43,0,0,1-1.42-1.43V40A8.9,8.9,0,1,0,48.9,40V43.5a1.43,1.43,0,0,1-2.85,0V40a11.75,11.75,0,1,1,23.49,0V50.67A1.43,1.43,0,0,1,68.11,52.1Z"/><path class="cls-2" d="M76.47,87.06H37.82a5.32,5.32,0,0,1-5.31-5.32V60.22a5.32,5.32,0,0,1,5.31-5.32H76.47a5.32,5.32,0,0,1,5.31,5.32V81.74A5.32,5.32,0,0,1,76.47,87.06ZM37.82,57.75a2.47,2.47,0,0,0-2.46,2.47V81.74a2.47,2.47,0,0,0,2.46,2.47H76.47a2.48,2.48,0,0,0,2.47-2.47V60.22a2.48,2.48,0,0,0-2.47-2.47Z"/><path class="cls-2" d="M43.13,80.31a1.43,1.43,0,0,1-1.42-1.43V63.07a1.43,1.43,0,0,1,2.85,0V78.88A1.43,1.43,0,0,1,43.13,80.31Z"/><path class="cls-2" d="M71.16,80.31a1.43,1.43,0,0,1-1.43-1.43V63.07a1.43,1.43,0,0,1,2.85,0V78.88A1.43,1.43,0,0,1,71.16,80.31Z"/></g></g></g></svg>