<svg xmlns="http://www.w3.org/2000/svg" xmlns:xlink="http://www.w3.org/1999/xlink" viewBox="0 0 157.77 157.77"><defs><style>.cls-1{fill:#2f5f62;stroke-miterlimit:10;stroke-width:5px;stroke:url(#New_Gradient_Swatch);}.cls-2{fill:#fff;}.cls-3{fill:#e6e7e8;}</style><linearGradient id="New_Gradient_Swatch" y1="78.88" x2="157.77" y2="78.88" gradientUnits="userSpaceOnUse"><stop offset="0" stop-color="#5cd0c0"/><stop offset="1" stop-color="#236c78"/></linearGradient></defs><g id="Layer_2" data-name="Layer 2"><g id="Layer_1-2" data-name="Layer 1"><circle class="cls-1" cx="78.88" cy="78.88" r="76.38"/><path class="cls-2" d="M72.09,123.33a2,2,0,1,0-2.8,2.8l5.1,5.1-5.1,5.1a2,2,0,0,0,0,2.8,2,2,0,0,0,2.8,0l7.9-7.9Zm9.07,0a2,2,0,1,0-2.81,2.8l5.1,5.1-5.1,5.1a2,2,0,0,0,2.81,2.8l7.9-7.9Z"/><path class="cls-3" d="M74.38,131.23l-5.09,5.1a2,2,0,0,0,0,2.8,2,2,0,0,0,2.8,0l7.9-7.9Z"/><path class="cls-3" d="M83.44,131.23l-5.09,5.1a2,2,0,0,0,2.81,2.8l7.89-7.9Z"/><path class="cls-2" d="M74.65,89.65a2.92,2.92,0,0,1-1,2.35,4.12,4.12,0,0,1-2.73.81h-.87v3.4h-2V86.67h3a4,4,0,0,1,2.63.75A2.74,2.74,0,0,1,74.65,89.65Zm-4.57,1.51h.67a2.18,2.18,0,0,0,1.39-.37,1.28,1.28,0,0,0,.46-1.07,1.3,1.3,0,0,0-.38-1A1.81,1.81,0,0,0,71,88.33h-.92Z"/><path class="cls-2" d="M80.92,96.21l-.39-1h0a2.82,2.82,0,0,1-1,.88,3.42,3.42,0,0,1-1.39.25,2.23,2.23,0,0,1-1.65-.6,2.31,2.31,0,0,1-.6-1.71,1.91,1.91,0,0,1,.81-1.71,4.66,4.66,0,0,1,2.45-.61l1.26,0v-.32a1,1,0,0,0-1.13-1.11,5.22,5.22,0,0,0-2.06.53l-.66-1.35a6,6,0,0,1,2.79-.65,3.45,3.45,0,0,1,2.25.64,2.33,2.33,0,0,1,.79,1.94v4.86Zm-.59-3.38-.77,0a2.48,2.48,0,0,0-1.29.32,1,1,0,0,0-.42.87q0,.84,1,.84a1.53,1.53,0,0,0,1.11-.4,1.39,1.39,0,0,0,.41-1Z"/><path class="cls-2" d="M83.31,88.92h2.18L86.86,93a5.23,5.23,0,0,1,.24,1.26h0A5.52,5.52,0,0,1,87.42,93l1.35-4.1H90.9l-3.08,8.22a3.52,3.52,0,0,1-1.21,1.71,3.08,3.08,0,0,1-1.83.56,4.23,4.23,0,0,1-1-.11V97.72a3.21,3.21,0,0,0,.78.09,1.43,1.43,0,0,0,.92-.32,2.15,2.15,0,0,0,.62-1l.11-.36Z"/><path class="cls-2" d="M52.29,112.23H46.8V102.7h5.49v1.65H48.82v2.09h3.23v1.66H48.82v2.46h3.47Z"/><path class="cls-2" d="M56.11,112.23h-2V102.08h2Z"/><path class="cls-2" d="M61.49,112.36a3.79,3.79,0,0,1-2.75-1,3.69,3.69,0,0,1-1-2.75,4.06,4.06,0,0,1,.92-2.84,3.28,3.28,0,0,1,2.53-1,3.22,3.22,0,0,1,2.4.88,3.31,3.31,0,0,1,.86,2.43v1h-4.7a1.93,1.93,0,0,0,.51,1.32,1.74,1.74,0,0,0,1.31.48,5.57,5.57,0,0,0,1.25-.14,6,6,0,0,0,1.22-.44v1.54a4.18,4.18,0,0,1-1.11.39A6.71,6.71,0,0,1,61.49,112.36Zm-.28-6.14a1.25,1.25,0,0,0-1,.4,1.78,1.78,0,0,0-.41,1.13H62.6a1.67,1.67,0,0,0-.38-1.13A1.31,1.31,0,0,0,61.21,106.22Z"/><path class="cls-2" d="M69,112.36q-3.41,0-3.4-3.74a4,4,0,0,1,.92-2.84,3.51,3.51,0,0,1,2.66-1,5.08,5.08,0,0,1,2.27.5l-.59,1.54a8.43,8.43,0,0,0-.87-.31,2.84,2.84,0,0,0-.81-.12c-1,0-1.55.73-1.55,2.2s.51,2.14,1.55,2.14a3.32,3.32,0,0,0,1.06-.16,4,4,0,0,0,1-.47v1.7a3.34,3.34,0,0,1-1,.42A5.3,5.3,0,0,1,69,112.36Z"/><path class="cls-2" d="M76,110.77a4.33,4.33,0,0,0,1.25-.22V112a4.5,4.5,0,0,1-1.83.33,2.19,2.19,0,0,1-1.73-.61,2.57,2.57,0,0,1-.55-1.8v-3.52h-1v-.84l1.1-.66.57-1.54h1.27v1.55h2v1.49h-2V110a.76.76,0,0,0,.24.62A.92.92,0,0,0,76,110.77Z"/><path class="cls-2" d="M82.81,104.8a3.13,3.13,0,0,1,.67.06l-.15,1.87a2,2,0,0,0-.58-.07,2.11,2.11,0,0,0-1.49.49,1.77,1.77,0,0,0-.53,1.37v3.71h-2v-7.29h1.51l.29,1.22h.1a2.79,2.79,0,0,1,.92-1A2.24,2.24,0,0,1,82.81,104.8Z"/><path class="cls-2" d="M84.72,103.05c0-.64.36-1,1.08-1s1.09.33,1.09,1a.94.94,0,0,1-.27.72,1.14,1.14,0,0,1-.82.26C85.08,104,84.72,103.71,84.72,103.05Zm2.07,9.18h-2v-7.29h2Z"/><path class="cls-2" d="M91.84,112.36q-3.41,0-3.4-3.74a4,4,0,0,1,.92-2.84,3.49,3.49,0,0,1,2.66-1,5.08,5.08,0,0,1,2.27.5l-.59,1.54a8.56,8.56,0,0,0-.88-.31,2.72,2.72,0,0,0-.8-.12c-1,0-1.56.73-1.56,2.2s.52,2.14,1.56,2.14a3.32,3.32,0,0,0,1.06-.16,4,4,0,0,0,1-.47v1.7a3.34,3.34,0,0,1-1,.42A5.36,5.36,0,0,1,91.84,112.36Z"/><path class="cls-2" d="M95.66,103.05c0-.64.36-1,1.08-1s1.09.33,1.09,1a.94.94,0,0,1-.27.72,1.14,1.14,0,0,1-.82.26C96,104,95.66,103.71,95.66,103.05Zm2.07,9.18h-2v-7.29h2Z"/><path class="cls-2" d="M102.89,110.77a4.28,4.28,0,0,0,1.25-.22V112a4.45,4.45,0,0,1-1.82.33,2.2,2.2,0,0,1-1.74-.61A2.62,2.62,0,0,1,100,110v-3.52h-1v-.84l1.1-.66.57-1.54H102v1.55h2v1.49h-2V110a.76.76,0,0,0,.24.62A.92.92,0,0,0,102.89,110.77Z"/><path class="cls-2" d="M104.57,104.94h2.18l1.38,4.1a6.73,6.73,0,0,1,.24,1.26h0a5.24,5.24,0,0,1,.28-1.26l1.35-4.1h2.13l-3.08,8.22a3.65,3.65,0,0,1-1.21,1.71,3.07,3.07,0,0,1-1.84.57,4.29,4.29,0,0,1-1-.12v-1.57a3.81,3.81,0,0,0,.78.08,1.43,1.43,0,0,0,.92-.32,2.08,2.08,0,0,0,.62-1l.12-.35Z"/><path class="cls-2" d="M64.74,78.52c3.82-8.76,7.64-17.52,11.52-26.4H66.64c.65-1.36,1.25-2.61,1.84-3.87.45-.94.87-1.88,1.33-2.82.6-1.24,1.23-2.47,1.83-3.72.46-1,.87-1.93,1.32-2.89.82-1.72,1.63-3.45,2.46-5.17s1.74-3.51,2.59-5.27c.33-.69.61-1.4,1-2.08a.7.7,0,0,1,.48-.35c3.46,0,6.93,0,10.39,0a2.43,2.43,0,0,1,.42.1L81.19,43.87H92c-.44.61-.77,1.08-1.12,1.53-1.28,1.65-2.58,3.29-3.86,4.93l-5.1,6.49c-1.44,1.84-2.89,3.68-4.33,5.53-1.24,1.59-2.46,3.19-3.69,4.77S71.53,70,70.38,71.51s-2.23,2.93-3.35,4.4c-.66.86-1.34,1.71-2,2.56a1,1,0,0,1-.16.12Z"/><path class="cls-2" d="M69.36,75.27a2.22,2.22,0,0,1,.22-.41l1.89-2.44a.75.75,0,0,1,.81-.35,20.43,20.43,0,0,0,6.52.39,15.71,15.71,0,0,0,4.37-1c1-.47,2.16-.81,3.18-1.33a20.33,20.33,0,0,0,5.12-3.78,18.76,18.76,0,0,0,2.86-3.57,27.66,27.66,0,0,0,1.86-4,17.64,17.64,0,0,0,1.21-7.15,16.74,16.74,0,0,0-.23-3.17,23,23,0,0,0-1.7-5.41,20,20,0,0,0-2.69-4.27,36.89,36.89,0,0,0-3.56-3.39c-.36-.34-.83-.56-1.2-.89a.7.7,0,0,1-.21-.61c.39-.88.84-1.74,1.28-2.6.18-.35.4-.5.8-.22a23.92,23.92,0,0,1,4.51,3.69,31.3,31.3,0,0,1,2.82,3.48A27.88,27.88,0,0,1,99,41.62a24.12,24.12,0,0,1,1.68,4.77,21.11,21.11,0,0,1,.56,7.33,28.56,28.56,0,0,1-.87,4.87,19.36,19.36,0,0,1-2.14,5.13A40.82,40.82,0,0,1,96,67.21a22,22,0,0,1-2.75,2.88,28.88,28.88,0,0,1-3.6,2.73A23.3,23.3,0,0,1,86,74.59c-1.4.55-2.86,1-4.31,1.38a8.46,8.46,0,0,1-1.74.22c-1.37.09-2.74.25-4.11.22A26.4,26.4,0,0,1,72.07,76,27.3,27.3,0,0,1,69.36,75.27Z"/><path class="cls-2" d="M76.8,27.36c-.18.51-.26.85-.41,1.17-.32.68-.7,1.34-1,2a1.25,1.25,0,0,1-1.14.88,13.69,13.69,0,0,0-4.5,1.1A39,39,0,0,0,66,34.32a16.69,16.69,0,0,0-2.77,2.1,23.34,23.34,0,0,0-2.71,2.83,21.07,21.07,0,0,0-2,3.19A25.71,25.71,0,0,0,57,45.9a20,20,0,0,0-.63,9.44,17.16,17.16,0,0,0,1.3,4.43,20.4,20.4,0,0,0,2.06,3.79A19.29,19.29,0,0,0,62,66.36c1.17,1.09,2.5,2,3.77,3,.22.17.5.27.71.45s.26.35.22.47c-.37,1-.78,1.88-1.17,2.82-.15.37-.37.43-.69.22a44.73,44.73,0,0,1-3.72-2.5,30,30,0,0,1-3-3A16.1,16.1,0,0,1,55.4,63.9c-.64-1.34-1.35-2.65-1.85-4a21.54,21.54,0,0,1-.94-4,25.71,25.71,0,0,1-.34-4.21,20.08,20.08,0,0,1,1-6.52,43,43,0,0,1,1.48-4.08,22,22,0,0,1,2.13-3.5,24,24,0,0,1,2.64-3.14,24.38,24.38,0,0,1,3.2-2.62,31,31,0,0,1,3.61-2.12A15.25,15.25,0,0,1,69,28.65a39.67,39.67,0,0,1,4.3-1.06A30.63,30.63,0,0,1,76.8,27.36Z"/></g></g></svg>