<svg xmlns="http://www.w3.org/2000/svg" xmlns:xlink="http://www.w3.org/1999/xlink" viewBox="0 0 75.91 75.91"><defs><style>.cls-1{fill:url(#New_Gradient_Swatch);}.cls-2{fill:url(#New_Gradient_Swatch-2);}.cls-3{fill:url(#New_Gradient_Swatch-3);}</style><linearGradient id="New_Gradient_Swatch" y1="37.96" x2="75.91" y2="37.96" gradientUnits="userSpaceOnUse"><stop offset="0" stop-color="#5cd0c0"/><stop offset="1" stop-color="#236c78"/></linearGradient><linearGradient id="New_Gradient_Swatch-2" x1="23.6" y1="30.84" x2="52.53" y2="30.84" xlink:href="#New_Gradient_Swatch"/><linearGradient id="New_Gradient_Swatch-3" x1="31.63" y1="58.52" x2="44.28" y2="58.52" xlink:href="#New_Gradient_Swatch"/></defs><g id="Layer_2" data-name="Layer 2"><g id="Layer_1-2" data-name="Layer 1"><path class="cls-1" d="M38,75.91A38,38,0,1,1,75.91,38,38,38,0,0,1,38,75.91ZM38,3.16A34.8,34.8,0,1,0,72.75,38,34.84,34.84,0,0,0,38,3.16Z"/><path class="cls-2" d="M42.7,49H33.21V42.7c0-7,3.61-10.59,6.79-13.77a3.43,3.43,0,0,0,1.08-3.61c-.42-1-1.56-1.6-3.12-1.6-5,0-6.32,4.93-6.38,5.14L31,31,23.6,26.07l.14-1c0-.12,1.93-12.43,15.8-12.43a12.61,12.61,0,0,1,10.23,4.74,13.59,13.59,0,0,1,2.37,11.46c-.8,3.2-2.9,5.26-4.94,7.25-2.41,2.36-4.5,4.4-4.5,8.18Zm-6.32-3.16h3.16V44.28c0-5.11,2.89-7.94,5.45-10.44,1.8-1.76,3.5-3.42,4.09-5.75a10.44,10.44,0,0,0-1.8-8.76,9.38,9.38,0,0,0-7.74-3.51c-9.12,0-11.77,6.32-12.46,8.77l2.21,1.47A9.58,9.58,0,0,1,38,20.56c2.86,0,5.12,1.33,6,3.55a6.57,6.57,0,0,1-1.76,7.06C39.09,34.31,36.38,37,36.38,42.7Z"/><path class="cls-3" d="M38,64.84a6.33,6.33,0,1,1,6.32-6.32A6.33,6.33,0,0,1,38,64.84Zm0-9.49a3.17,3.17,0,1,0,3.16,3.17A3.17,3.17,0,0,0,38,55.35Z"/></g></g></svg>