<svg id="Layer_1" data-name="Layer 1" xmlns="http://www.w3.org/2000/svg" xmlns:xlink="http://www.w3.org/1999/xlink" viewBox="0 0 52.45 52.45"><defs><style>.cls-1{fill:url(#linear-gradient);}</style><linearGradient id="linear-gradient" x1="26.23" x2="26.23" y2="52.45" gradientUnits="userSpaceOnUse"><stop offset="0" stop-color="#e90a0a"/><stop offset="1" stop-color="#4e0202"/></linearGradient></defs><g id="Layer_2" data-name="Layer 2"><g id="Layer_1-2" data-name="Layer 1-2"><path class="cls-1" d="M26.23,0A26.23,26.23,0,1,0,52.45,26.23,26.17,26.17,0,0,0,26.23,0ZM29.1,39.23a4,4,0,0,1-2.86,1,4.19,4.19,0,0,1-2.91-1,3.37,3.37,0,0,1-1.08-2.64v0a3.51,3.51,0,0,1,1-2.66,4.16,4.16,0,0,1,3-.91,4,4,0,0,1,2.89.94,3.51,3.51,0,0,1,1,2.66A3.4,3.4,0,0,1,29.1,39.23ZM29.32,30H23.13l-.95-17.74h8.1Z" transform="translate(0 0)"/></g></g></svg>
