<svg xmlns="http://www.w3.org/2000/svg" xmlns:xlink="http://www.w3.org/1999/xlink" viewBox="0 0 69.33 69.33"><defs><style>.cls-1{fill:url(#linear-gradient);}.cls-2{fill:#fff;}</style><linearGradient id="linear-gradient" y1="34.67" x2="69.33" y2="34.67" gradientUnits="userSpaceOnUse"><stop offset="0" stop-color="#193233"/><stop offset="1" stop-color="#002d55"/></linearGradient></defs><g id="Layer_2" data-name="Layer 2"><g id="Layer_1-2" data-name="Layer 1"><circle class="cls-1" cx="34.67" cy="34.67" r="34.67"/><g id="icon_settings"><path class="cls-2" d="M53.66,33.16a.84.84,0,0,0-.66-.68l-4.1-.85a15.25,15.25,0,0,0-2.82-4.87l1.32-4a.85.85,0,0,0-.26-.91,19.16,19.16,0,0,0-6-3.44.84.84,0,0,0-.91.22l-2.9,3.12a15.34,15.34,0,0,0-5.53,0l-2.79-3.13a.83.83,0,0,0-.91-.23,19.2,19.2,0,0,0-6,3.51.84.84,0,0,0-.25.93l1.38,3.89a15.33,15.33,0,0,0-2.81,4.87l-4.09.85a.85.85,0,0,0-.67.68,19.87,19.87,0,0,0,0,6.88.84.84,0,0,0,.66.68l4.1.84a15.37,15.37,0,0,0,2.82,4.88l-1.29,4a.85.85,0,0,0,.26.91,19.21,19.21,0,0,0,5.93,3.42.86.86,0,0,0,.92-.24l2.78-3.12a15.23,15.23,0,0,0,5.63,0l2.79,3.12a.82.82,0,0,0,.63.29,1,1,0,0,0,.29,0,19,19,0,0,0,6-3.45.85.85,0,0,0,.26-.91l-1.32-4a15.19,15.19,0,0,0,2.82-4.88l4.1-.84a.84.84,0,0,0,.66-.68,19.24,19.24,0,0,0,0-6.88Zm-1.57,6-4,.82a.84.84,0,0,0-.64.58,13.32,13.32,0,0,1-2.94,5.08.85.85,0,0,0-.18.85l1.29,3.88A17.46,17.46,0,0,1,41.15,53l-2.72-3a.85.85,0,0,0-.64-.29l-.18,0a13.61,13.61,0,0,1-5.89,0,.86.86,0,0,0-.81.27l-2.72,3a17.4,17.4,0,0,1-4.44-2.56L25,46.5a.87.87,0,0,0-.19-.84,13.37,13.37,0,0,1-2.94-5.08.84.84,0,0,0-.64-.58l-4-.82a17.23,17.23,0,0,1-.19-2.58A17,17,0,0,1,17.25,34l4-.83a.83.83,0,0,0,.64-.57,13.48,13.48,0,0,1,2.94-5.09.85.85,0,0,0,.18-.86l-1.36-3.81a17.5,17.5,0,0,1,4.54-2.64l2.72,3.06a.83.83,0,0,0,.82.26,13.53,13.53,0,0,1,5.77,0,.84.84,0,0,0,.8-.25l2.84-3.05a17.35,17.35,0,0,1,4.47,2.58l-1.29,3.89a.84.84,0,0,0,.18.84,13.35,13.35,0,0,1,2.94,5.09.84.84,0,0,0,.64.57l4,.83a18.58,18.58,0,0,1,0,5.16Z"/><path class="cls-2" d="M34.67,28.31A8.29,8.29,0,1,0,43,36.6,8.3,8.3,0,0,0,34.67,28.31Zm0,14.89a6.6,6.6,0,1,1,6.59-6.6A6.61,6.61,0,0,1,34.67,43.2Z"/></g></g></g></svg>