<svg xmlns="http://www.w3.org/2000/svg" xmlns:xlink="http://www.w3.org/1999/xlink" viewBox="0 0 85.32 100.66"><defs><style>.cls-1{font-size:21px;fill:#193233;font-family:OpenSans-Bold, Open Sans;font-weight:700;}.cls-2{fill:url(#linear-gradient);}.cls-3{fill:#fff;}</style><linearGradient id="linear-gradient" x1="7.47" y1="34.67" x2="76.8" y2="34.67" gradientUnits="userSpaceOnUse"><stop offset="0" stop-color="#193233"/><stop offset="1" stop-color="#002d55"/></linearGradient></defs><g id="Layer_2" data-name="Layer 2"><g id="Layer_1-2" data-name="Layer 1"><text class="cls-1" transform="translate(0 94.51)">Request</text><circle class="cls-2" cx="42.14" cy="34.67" r="34.67"/><path class="cls-3" d="M39.14,48.42a.75.75,0,0,1-.75-.75V42l-6.87-6.87a1.29,1.29,0,0,0-1.77,0l-.17.17a1.25,1.25,0,0,0,0,1.77l4.59,4.59a.75.75,0,0,1-1.06,1.06l-4.59-4.59a2.76,2.76,0,0,1,0-3.89l.17-.17a2.82,2.82,0,0,1,3.89,0l7.09,7.09a.75.75,0,0,1,.22.53v6A.76.76,0,0,1,39.14,48.42Z"/><path class="cls-3" d="M31.14,48.42a.75.75,0,0,1-.75-.75V47l-5.14-5.14a9.7,9.7,0,0,1-2.86-6.91V23.67a2.75,2.75,0,0,1,5.5,0v9a.75.75,0,0,1-1.5,0v-9a1.25,1.25,0,0,0-2.5,0V34.93a8.22,8.22,0,0,0,2.42,5.85l5.36,5.36a.75.75,0,0,1,.22.53v1A.76.76,0,0,1,31.14,48.42Z"/><path class="cls-3" d="M45.14,48.42a.75.75,0,0,1-.75-.75v-6a.75.75,0,0,1,.22-.53l7.08-7.09a2.82,2.82,0,0,1,3.89,0l.17.17a2.76,2.76,0,0,1,0,3.89L51.17,42.7a.75.75,0,0,1-1.06,0,.74.74,0,0,1,0-1.06l4.58-4.59a1.25,1.25,0,0,0,0-1.77l-.17-.17a1.29,1.29,0,0,0-1.77,0L45.89,42v5.69A.76.76,0,0,1,45.14,48.42Z"/><path class="cls-3" d="M53.14,48.42a.75.75,0,0,1-.75-.75v-1a.75.75,0,0,1,.22-.53L58,40.78a8.22,8.22,0,0,0,2.42-5.85V23.67a1.25,1.25,0,0,0-2.5,0v9a.75.75,0,0,1-1.5,0v-9a2.75,2.75,0,0,1,5.5,0V34.93A9.74,9.74,0,0,1,59,41.84L53.89,47v.69A.76.76,0,0,1,53.14,48.42Z"/><path class="cls-3" d="M42.14,36.42a9.75,9.75,0,1,1,9.75-9.75A9.76,9.76,0,0,1,42.14,36.42Zm0-18a8.25,8.25,0,1,0,8.25,8.25A8.26,8.26,0,0,0,42.14,18.42Z"/><path class="cls-3" d="M43.14,31.42h-4a.75.75,0,0,1,0-1.5h4a1.25,1.25,0,0,0,0-2.5h-2a2.75,2.75,0,0,1,0-5.5h4a.75.75,0,0,1,0,1.5h-4a1.25,1.25,0,0,0,0,2.5h2a2.75,2.75,0,0,1,0,5.5Z"/><path class="cls-3" d="M42.14,23.42a.75.75,0,0,1-.75-.75v-2a.75.75,0,0,1,1.5,0v2A.76.76,0,0,1,42.14,23.42Z"/><path class="cls-3" d="M42.14,33.42a.75.75,0,0,1-.75-.75v-2a.75.75,0,0,1,1.5,0v2A.76.76,0,0,1,42.14,33.42Z"/><path class="cls-3" d="M40.14,52.42a.75.75,0,0,1-.75-.75V50.42h-8.5v1.25a.75.75,0,0,1-1.5,0v-2a.74.74,0,0,1,.75-.75h10a.75.75,0,0,1,.75.75v2A.76.76,0,0,1,40.14,52.42Z"/><path class="cls-3" d="M54.14,52.42a.75.75,0,0,1-.75-.75V50.42h-8.5v1.25a.75.75,0,0,1-1.5,0v-2a.74.74,0,0,1,.75-.75h10a.75.75,0,0,1,.75.75v2A.76.76,0,0,1,54.14,52.42Z"/></g></g></svg>