<svg xmlns="http://www.w3.org/2000/svg" xmlns:xlink="http://www.w3.org/1999/xlink" viewBox="0 0 52.45 52.45"><defs><style>.cls-1{fill:url(#linear-gradient);}.cls-2{fill:#fff;}</style><linearGradient id="linear-gradient" x1="9.38" y1="6.13" x2="43.08" y2="46.33" gradientUnits="userSpaceOnUse"><stop offset="0" stop-color="#193233"/><stop offset="1" stop-color="#002d55"/></linearGradient></defs><g id="Layer_2" data-name="Layer 2"><g id="Layer_1-2" data-name="Layer 1"><rect class="cls-1" width="52.45" height="52.45" rx="26.23"/><path class="cls-2" d="M29.32,30H23.13l-.95-17.74h8.1Zm-7.07,6.57a3.5,3.5,0,0,1,1-2.66A4.18,4.18,0,0,1,26.21,33a4,4,0,0,1,2.89.94,3.52,3.52,0,0,1,1,2.66,3.41,3.41,0,0,1-1,2.63,4.06,4.06,0,0,1-2.86,1,4.2,4.2,0,0,1-2.91-1A3.36,3.36,0,0,1,22.25,36.59Z"/></g></g></svg>