<svg xmlns="http://www.w3.org/2000/svg" xmlns:xlink="http://www.w3.org/1999/xlink" viewBox="0 0 86.16 86.16"><defs><style>.cls-1{fill:none;stroke-miterlimit:10;stroke-width:3px;stroke:url(#New_Gradient_Swatch);}.cls-2{fill:#fff;}</style><linearGradient id="New_Gradient_Swatch" y1="43.08" x2="86.16" y2="43.08" gradientUnits="userSpaceOnUse"><stop offset="0" stop-color="#ea9302"/><stop offset="1" stop-color="#c76319"/></linearGradient></defs><g id="Layer_2" data-name="Layer 2"><g id="Layer_1-2" data-name="Layer 1"><circle class="cls-1" cx="43.08" cy="43.08" r="41.58"/><path class="cls-2" d="M49.56,50.66a.62.62,0,0,1-.23,0l-28-11a2.92,2.92,0,0,1-1.64-3.78l6.29-16a3,3,0,0,1,1.55-1.61,2.88,2.88,0,0,1,2.23,0L55.62,28.39a2.93,2.93,0,0,1,1.64,3.79l-4.38,11.1a.6.6,0,0,1-.79.34.62.62,0,0,1-.35-.79l4.38-11.1a1.68,1.68,0,0,0,0-1.3,1.71,1.71,0,0,0-.93-.9L29.32,19.35a1.65,1.65,0,0,0-1.29,0,1.68,1.68,0,0,0-.9.93l-6.29,16a1.68,1.68,0,0,0,0,1.3,1.71,1.71,0,0,0,.93.9l28,11a.61.61,0,0,1-.22,1.18Z"/><path class="cls-2" d="M54.87,56a.6.6,0,0,1-.43-.18L45.65,47a3.83,3.83,0,1,1,5.42-5.42L58,48.48a.62.62,0,0,1-.87.87l-6.9-6.9a2.61,2.61,0,0,0-3.69,3.69l8.79,8.79a.62.62,0,0,1,0,.87A.6.6,0,0,1,54.87,56Z"/><path class="cls-2" d="M48.57,55.7a5.24,5.24,0,0,1-1.75-.3l-8.6-3.07a3.73,3.73,0,0,1-2.46-3.82L36,45.33a.61.61,0,1,1,1.22.1L37,48.61a2.5,2.5,0,0,0,1.65,2.56l8.6,3.07a4.05,4.05,0,0,0,3.55-.42l1.64-1.08a.61.61,0,1,1,.67,1l-1.64,1.08A5.22,5.22,0,0,1,48.57,55.7Z"/><path class="cls-2" d="M66.05,68.16a.62.62,0,0,1-.61-.54L63,47a8,8,0,0,0-1.46-3.75,8.08,8.08,0,0,0-3.11-2.57l-4.38-2a.61.61,0,0,1,.52-1.11l4.38,2a9.25,9.25,0,0,1,5.27,7.29l2.46,20.66a.62.62,0,0,1-.54.69Z"/><path class="cls-2" d="M49.1,64.17a1.87,1.87,0,0,1-.34,0l-6.54-1a4,4,0,0,1-3.33-3.45l-.24-2A3.92,3.92,0,0,1,36.76,55a.34.34,0,0,1,0-.1L36.67,51a.6.6,0,0,1,.6-.62.61.61,0,0,1,.62.6L38,54.78a2.73,2.73,0,0,0,2.15,2.16L48,58.49a3.39,3.39,0,0,0,2-.21l3.63-1.55a.58.58,0,0,1,.5,0,.6.6,0,0,1,.33.37l.54,1.77a4,4,0,0,1,0,1.73,2.89,2.89,0,0,1-1.76,2.22c-1.53.62-2.5,1-2.88,1.1A4.75,4.75,0,0,1,49.1,64.17Zm-9.16-6,.17,1.4a2.75,2.75,0,0,0,2.3,2.38l6.54,1a2.79,2.79,0,0,0,1.14-.17c.33-.1,1.32-.48,2.77-1.07a1.63,1.63,0,0,0,1-1.27,2.8,2.8,0,0,0,0-1.18l-.34-1.12-3,1.29a4.63,4.63,0,0,1-2.75.28Z"/><path class="cls-2" d="M52.36,67.41h-.09l-4.41-.68a4.41,4.41,0,0,1-3.62-3.33.61.61,0,1,1,1.18-.29,3.21,3.21,0,0,0,2.63,2.41l4.4.68a.61.61,0,0,1-.09,1.22Z"/><path class="cls-2" d="M53.92,57.9a.62.62,0,0,1-.6-.49l-.63-3.13a.61.61,0,1,1,1.2-.25l.63,3.14a.6.6,0,0,1-.48.72Z"/><path class="cls-2" d="M35.58,30.19a2.78,2.78,0,0,1-1-.18,2.68,2.68,0,1,1,2,0A2.63,2.63,0,0,1,35.58,30.19Zm0-4.13a1.44,1.44,0,0,0-1.35.93,1.38,1.38,0,0,0,0,1.11,1.44,1.44,0,0,0,.8.77,1.47,1.47,0,0,0,1.11,0,1.43,1.43,0,0,0,.77-.81,1.38,1.38,0,0,0,0-1.11,1.44,1.44,0,0,0-.8-.77A1.39,1.39,0,0,0,35.58,26.06Z"/><path class="cls-2" d="M31.73,28.69a2.5,2.5,0,0,1-1-.19,2.68,2.68,0,1,1,2.05,0A2.72,2.72,0,0,1,31.73,28.69Zm0-4.13a1.47,1.47,0,0,0-.58.12,1.41,1.41,0,0,0-.77.8,1.45,1.45,0,0,0,.82,1.88,1.38,1.38,0,0,0,1.11,0,1.46,1.46,0,0,0,.78-.8,1.43,1.43,0,0,0,0-1.11,1.41,1.41,0,0,0-.8-.77A1.39,1.39,0,0,0,31.73,24.56Z"/><path class="cls-2" d="M37.15,37.66a.54.54,0,0,1-.22,0l-10.35-4a.6.6,0,0,1-.34-.79.61.61,0,0,1,.79-.35l10.34,4a.61.61,0,0,1,.35.79A.63.63,0,0,1,37.15,37.66Z"/><path class="cls-2" d="M35.87,40.93a.59.59,0,0,1-.22,0l-10.34-4a.6.6,0,0,1-.35-.79.61.61,0,0,1,.79-.35l10.34,4a.62.62,0,0,1,.35.8A.61.61,0,0,1,35.87,40.93Z"/><path class="cls-2" d="M45.14,44.55a.62.62,0,0,1-.23,0l-7-2.75a.61.61,0,0,1,.45-1.14l7,2.75a.61.61,0,0,1,.35.79A.63.63,0,0,1,45.14,44.55Z"/></g></g></svg>