<svg xmlns="http://www.w3.org/2000/svg" xmlns:xlink="http://www.w3.org/1999/xlink" viewBox="0 0 86.16 86.16"><defs><style>.cls-1{fill:none;stroke-miterlimit:10;stroke-width:3px;stroke:url(#New_Gradient_Swatch);}.cls-2{fill:#fff;}</style><linearGradient id="New_Gradient_Swatch" y1="43.08" x2="86.16" y2="43.08" gradientUnits="userSpaceOnUse"><stop offset="0" stop-color="#ea9302"/><stop offset="1" stop-color="#c76319"/></linearGradient></defs><g id="Layer_2" data-name="Layer 2"><g id="Layer_1-2" data-name="Layer 1"><circle class="cls-1" cx="43.08" cy="43.08" r="41.58"/><path class="cls-2" d="M53.5,64.8H47.71a.87.87,0,0,1-.87-.87V60.47a.28.28,0,0,0-.09-.22.32.32,0,0,0-.22-.09H35a.33.33,0,0,0-.32.32v3.45a.87.87,0,0,1-.87.87H28a.86.86,0,0,1-.86-.87V59.09a1.79,1.79,0,0,0-.78-1.45c-3.81-2.59-6.17-7.72-6.17-13.4,0-7.29,4.38-13.2,10.92-14.72a.87.87,0,1,1,.39,1.69c-5.82,1.35-9.58,6.47-9.58,13,0,5.11,2.08,9.69,5.41,12a3.46,3.46,0,0,1,1.54,2.88v4H33V60.48a2.05,2.05,0,0,1,2-2H46.53a2,2,0,0,1,2,2v2.59h4.06V58.69a3.08,3.08,0,0,1,1.21-2.43l.27-.2C56,54.64,57.78,53.3,58.84,51a3.05,3.05,0,0,1,2.76-1.81A1.48,1.48,0,0,0,63.11,48l1.11-6.19c0-1.38-.88-1.38-1.16-1.38H61.69a3,3,0,0,1-2.77-1.69,10.1,10.1,0,0,0-2.87-3.28l-.81-.72a.88.88,0,0,1-.29-.65V28.2L52.2,31a.87.87,0,0,1-.62.26H50a.87.87,0,0,1,0-1.74h1.19l2.72-2.71a1.61,1.61,0,0,1,2.75,1.14v5.84l.51.45A11.6,11.6,0,0,1,60.48,38a1.33,1.33,0,0,0,1.21.71h1.37C64.82,38.74,66,40,66,41.92a.92.92,0,0,1,0,.16l-1.13,6.31a3.19,3.19,0,0,1-3.12,2.51,1.35,1.35,0,0,0-1.27.79c-1.24,2.73-3.28,4.27-5.26,5.76l-.27.2a1.34,1.34,0,0,0-.52,1v5.24A.87.87,0,0,1,53.5,64.8Z"/><path class="cls-2" d="M25.72,44.81h0a.86.86,0,0,1-.83-.9,12.29,12.29,0,0,1,3.59-8.41.87.87,0,0,1,1.2,1.25A10.56,10.56,0,0,0,26.59,44,.87.87,0,0,1,25.72,44.81Z"/><path class="cls-2" d="M40.19,35.84a7.24,7.24,0,1,1,7.23-7.24A7.24,7.24,0,0,1,40.19,35.84Zm0-12.74a5.5,5.5,0,1,0,5.5,5.5A5.51,5.51,0,0,0,40.19,23.1Z"/><path class="cls-2" d="M55.82,41.63a.87.87,0,0,1-.87-.87V38.45a.87.87,0,0,1,1.74,0v2.31A.87.87,0,0,1,55.82,41.63Z"/></g></g></svg>