<svg xmlns="http://www.w3.org/2000/svg" xmlns:xlink="http://www.w3.org/1999/xlink" viewBox="0 0 86.16 86.16"><defs><style>.cls-1{fill:none;stroke-miterlimit:10;stroke-width:3px;stroke:url(#New_Gradient_Swatch);}.cls-2{fill:#fff;}</style><linearGradient id="New_Gradient_Swatch" y1="43.08" x2="86.16" y2="43.08" gradientUnits="userSpaceOnUse"><stop offset="0" stop-color="#ea9302"/><stop offset="1" stop-color="#c76319"/></linearGradient></defs><g id="Layer_2" data-name="Layer 2"><g id="Layer_1-2" data-name="Layer 1"><circle class="cls-1" cx="43.08" cy="43.08" r="41.58"/><path class="cls-2" d="M52.81,60.15h-36a.85.85,0,0,1-.86-.86V43.55a.85.85,0,0,1,.86-.86h36a.85.85,0,0,1,.86.86V59.29A.85.85,0,0,1,52.81,60.15ZM17.63,58.43H52v-14H17.63Z"/><path class="cls-2" d="M34.79,60.15c-3.61,0-6.55-3.91-6.55-8.73s2.94-8.73,6.55-8.73,6.55,3.91,6.55,8.73S38.4,60.15,34.79,60.15Zm0-15.74c-2.66,0-4.83,3.14-4.83,7s2.17,7,4.83,7,4.83-3.14,4.83-7S37.45,44.41,34.79,44.41Z"/><path class="cls-2" d="M34.79,49.14a.86.86,0,0,1-.86-.86v-.63a.86.86,0,0,1,1.72,0v.63A.85.85,0,0,1,34.79,49.14Z"/><path class="cls-2" d="M34.79,55.42A2.41,2.41,0,0,1,32.41,53a.86.86,0,1,1,1.72,0,.66.66,0,1,0,.66-.71,2.43,2.43,0,1,1,2.38-2.43.86.86,0,0,1-1.72,0,.66.66,0,1,0-.66.71,2.43,2.43,0,0,1,0,4.86Z"/><path class="cls-2" d="M34.79,56.14a.87.87,0,0,1-.86-.86v-.72a.86.86,0,0,1,1.72,0v.72A.86.86,0,0,1,34.79,56.14Z"/><path class="cls-2" d="M46.45,52.28H43.8a.86.86,0,0,1,0-1.72h2.65a.86.86,0,0,1,0,1.72Z"/><path class="cls-2" d="M48.05,57.08H43.33a.86.86,0,0,1,0-1.72h4a2.56,2.56,0,0,1,1.47-1.61V49.09a2.56,2.56,0,0,1-1.47-1.61h-4a.86.86,0,0,1,0-1.72h4.72a.86.86,0,0,1,.86.86.85.85,0,0,0,.74.92.85.85,0,0,1,.86.86v6a.85.85,0,0,1-.86.86.85.85,0,0,0-.74.92A.87.87,0,0,1,48.05,57.08Z"/><path class="cls-2" d="M25.78,52.28H23.13a.86.86,0,1,1,0-1.72h2.65a.86.86,0,0,1,0,1.72Z"/><path class="cls-2" d="M26.25,57.08H21.53a.87.87,0,0,1-.86-.86.85.85,0,0,0-.74-.92.85.85,0,0,1-.86-.86v-6a.85.85,0,0,1,.86-.86.85.85,0,0,0,.74-.92.86.86,0,0,1,.86-.86h4.72a.86.86,0,1,1,0,1.72h-4a2.56,2.56,0,0,1-1.47,1.61v4.66a2.56,2.56,0,0,1,1.47,1.61h4a.86.86,0,0,1,0,1.72Z"/><path class="cls-2" d="M66.77,49.55H56.24a.86.86,0,0,1,0-1.72H66.77a1.76,1.76,0,0,0,1.76-1.76V29.48a1.76,1.76,0,0,0-1.76-1.76H37.39a1.76,1.76,0,0,0-1.76,1.76V40.2a.86.86,0,0,1-1.72,0V29.48A3.48,3.48,0,0,1,37.39,26H66.77a3.48,3.48,0,0,1,3.48,3.48V46.07A3.48,3.48,0,0,1,66.77,49.55Z"/><path class="cls-2" d="M69.39,37H34.77a.86.86,0,0,1-.86-.86v-5a.86.86,0,0,1,.86-.86H44.92a.86.86,0,0,1,0,1.72H35.63v3.26h32.9V32H50.72a.86.86,0,0,1,0-1.72H69.39a.86.86,0,0,1,.86.86v5A.86.86,0,0,1,69.39,37Z"/><path class="cls-2" d="M64.06,41.13H59.14a.87.87,0,0,1,0-1.73h4.92a.87.87,0,1,1,0,1.73Z"/><path class="cls-2" d="M64.06,45.06H56.24a.86.86,0,1,1,0-1.72h7.82a.86.86,0,1,1,0,1.72Z"/></g></g></svg>