<svg xmlns="http://www.w3.org/2000/svg" xmlns:xlink="http://www.w3.org/1999/xlink" viewBox="0 0 86.16 86.16"><defs><style>.cls-1{fill:none;stroke-miterlimit:10;stroke-width:3px;stroke:url(#New_Gradient_Swatch);}.cls-2{fill:#fff;}</style><linearGradient id="New_Gradient_Swatch" y1="43.08" x2="86.16" y2="43.08" gradientUnits="userSpaceOnUse"><stop offset="0" stop-color="#ea9302"/><stop offset="1" stop-color="#c76319"/></linearGradient></defs><g id="Layer_2" data-name="Layer 2"><g id="Layer_1-2" data-name="Layer 1"><circle class="cls-1" cx="43.08" cy="43.08" r="41.58"/><path class="cls-2" d="M53,62.1A18.94,18.94,0,0,1,38.13,55a.91.91,0,0,1,1.42-1.14A17.2,17.2,0,1,0,41,30.76a18.36,18.36,0,0,0-1.4,1.54.9.9,0,0,1-1.28.14.92.92,0,0,1-.14-1.28,20.67,20.67,0,0,1,1.55-1.7A19,19,0,1,1,53,62.1Z"/><path class="cls-2" d="M53.43,57.75A14.62,14.62,0,0,1,42,52.28.92.92,0,0,1,42.13,51a.91.91,0,0,1,1.28.13,12.85,12.85,0,1,0,1.05-17.26A14.45,14.45,0,0,0,43.41,35,.91.91,0,0,1,42,33.89a15,15,0,0,1,1.2-1.32A14.67,14.67,0,1,1,53.43,57.75Z"/><path class="cls-2" d="M53,36a.91.91,0,0,1-.91-.91V33.5a.91.91,0,1,1,1.82,0v1.59A.91.91,0,0,1,53,36Z"/><path class="cls-2" d="M53,51.76a5,5,0,0,1-5.13-4.85.91.91,0,1,1,1.82,0,3.32,3.32,0,1,0,3.31-3A4.86,4.86,0,1,1,58.08,39a.91.91,0,0,1-1.82,0,3.32,3.32,0,1,0-3.31,3,4.86,4.86,0,1,1,0,9.7Z"/><path class="cls-2" d="M53,53.57a.91.91,0,0,1-.91-.91V35.09a.91.91,0,0,1,1.82,0V52.66A.91.91,0,0,1,53,53.57Z"/><path class="cls-2" d="M36.08,44h-21a.91.91,0,0,1,0-1.82h21a.91.91,0,0,1,0,1.82Z"/><path class="cls-2" d="M38.84,37.79H21.05a.91.91,0,1,1,0-1.81H38.84a.91.91,0,1,1,0,1.81Z"/><path class="cls-2" d="M38.84,50.19H21.05a.91.91,0,0,1,0-1.82H38.84a.91.91,0,1,1,0,1.82Z"/></g></g></svg>