<svg xmlns="http://www.w3.org/2000/svg" xmlns:xlink="http://www.w3.org/1999/xlink" viewBox="0 0 52.45 52.45"><defs><style>.cls-1{fill:url(#linear-gradient);}.cls-2{fill:#fff;}</style><linearGradient id="linear-gradient" x1="9.38" y1="6.13" x2="43.08" y2="46.33" gradientUnits="userSpaceOnUse"><stop offset="0" stop-color="#193233"/><stop offset="1" stop-color="#002d55"/></linearGradient></defs><g id="Layer_2" data-name="Layer 2"><g id="Layer_1-2" data-name="Layer 1"><rect class="cls-1" width="52.45" height="52.45" rx="26.23"/><path class="cls-2" d="M33.32,37.34H8.07a.6.6,0,0,1-.61-.6v-11a.6.6,0,0,1,.61-.6H33.32a.6.6,0,0,1,.61.6v11A.6.6,0,0,1,33.32,37.34ZM8.67,36.13h24V26.31h-24Z"/><path class="cls-2" d="M20.69,37.34c-2.52,0-4.58-2.75-4.58-6.12s2.06-6.12,4.58-6.12,4.59,2.75,4.59,6.12S23.22,37.34,20.69,37.34Zm0-11c-1.86,0-3.38,2.2-3.38,4.91s1.52,4.91,3.38,4.91,3.39-2.2,3.39-4.91S22.56,26.31,20.69,26.31Z"/><path class="cls-2" d="M20.69,29.63a.6.6,0,0,1-.6-.61v-.44a.61.61,0,1,1,1.21,0V29A.61.61,0,0,1,20.69,29.63Z"/><path class="cls-2" d="M20.69,34A1.68,1.68,0,0,1,19,32.32a.6.6,0,0,1,1.2,0,.47.47,0,1,0,.46-.5,1.7,1.7,0,1,1,1.67-1.7.6.6,0,0,1-1.2,0,.47.47,0,1,0-.47.5,1.7,1.7,0,0,1,0,3.4Z"/><path class="cls-2" d="M20.69,34.53a.6.6,0,0,1-.6-.61v-.5a.61.61,0,0,1,1.21,0v.5A.61.61,0,0,1,20.69,34.53Z"/><path class="cls-2" d="M28.86,31.82H27a.6.6,0,1,1,0-1.2h1.85a.6.6,0,1,1,0,1.2Z"/><path class="cls-2" d="M30,35.19h-3.3a.61.61,0,0,1,0-1.21h2.8a1.76,1.76,0,0,1,1-1.13V29.59a1.76,1.76,0,0,1-1-1.13h-2.8a.61.61,0,0,1,0-1.21H30a.61.61,0,0,1,.61.61.59.59,0,0,0,.52.64.6.6,0,0,1,.6.6v4.24a.6.6,0,0,1-.6.6.59.59,0,0,0-.52.64A.61.61,0,0,1,30,35.19Z"/><path class="cls-2" d="M14.38,31.82H12.53a.6.6,0,1,1,0-1.2h1.85a.6.6,0,1,1,0,1.2Z"/><path class="cls-2" d="M14.71,35.19h-3.3a.61.61,0,0,1-.61-.61.59.59,0,0,0-.52-.64.6.6,0,0,1-.6-.6V29.1a.6.6,0,0,1,.6-.6.59.59,0,0,0,.52-.64.61.61,0,0,1,.61-.61h3.3a.61.61,0,0,1,0,1.21h-2.8a1.76,1.76,0,0,1-1,1.13v3.26a1.76,1.76,0,0,1,1,1.13h2.8a.61.61,0,0,1,0,1.21Z"/><path class="cls-2" d="M43.1,29.91H35.73a.6.6,0,1,1,0-1.2H43.1a1.25,1.25,0,0,0,1.24-1.24V15.85a1.25,1.25,0,0,0-1.24-1.24H22.52a1.25,1.25,0,0,0-1.24,1.24v7.51a.61.61,0,0,1-1.21,0V15.85a2.45,2.45,0,0,1,2.45-2.44H43.1a2.44,2.44,0,0,1,2.44,2.44V27.47A2.44,2.44,0,0,1,43.1,29.91Z"/><path class="cls-2" d="M44.94,21.09H20.68a.6.6,0,0,1-.61-.6V17a.6.6,0,0,1,.61-.6h7.11a.61.61,0,1,1,0,1.21H21.28v2.28H44.34V17.61H31.86a.61.61,0,1,1,0-1.21H44.94a.6.6,0,0,1,.6.6v3.49A.6.6,0,0,1,44.94,21.09Z"/><path class="cls-2" d="M41.21,24H37.76a.61.61,0,0,1,0-1.21h3.45a.61.61,0,0,1,0,1.21Z"/><path class="cls-2" d="M41.21,26.77H35.73a.61.61,0,1,1,0-1.21h5.48a.61.61,0,0,1,0,1.21Z"/></g></g></svg>