<svg xmlns="http://www.w3.org/2000/svg" viewBox="0 0 123.57 123.57"><defs><style>.cls-1{fill:#005a5f;}.cls-2{fill:#fff;}</style></defs><g id="Layer_2" data-name="Layer 2"><g id="Layer_1-2" data-name="Layer 1"><circle class="cls-1" cx="61.79" cy="61.79" r="61.79"/><path class="cls-2" d="M74,64.63c-.9-.43-1.82-.79-2.74-1.13a19.42,19.42,0,1,0-21.44,0A31.09,31.09,0,0,0,29.46,92.63h5.18A25.91,25.91,0,0,1,60.53,66.75,25.53,25.53,0,0,1,71.75,69.3ZM46.29,47.33A14.24,14.24,0,1,1,60.53,61.57,14.26,14.26,0,0,1,46.29,47.33Z"/><path class="cls-2" d="M84.52,65.81A13.59,13.59,0,1,0,98.11,79.4,13.6,13.6,0,0,0,84.52,65.81Zm0,23.29a9.71,9.71,0,1,1,9.71-9.7A9.72,9.72,0,0,1,84.52,89.1Z"/><polygon class="cls-2" points="86.46 72.82 82.58 72.82 82.58 77.46 77.94 77.46 77.94 81.34 82.58 81.34 82.58 85.98 86.46 85.98 86.46 81.34 91.1 81.34 91.1 77.46 86.46 77.46 86.46 72.82"/></g></g></svg>