<svg xmlns="http://www.w3.org/2000/svg" xmlns:xlink="http://www.w3.org/1999/xlink" viewBox="0 0 52.45 52.45"><defs><style>.cls-1{fill:url(#linear-gradient);}.cls-2{fill:#fff;}</style><linearGradient id="linear-gradient" x1="9.38" y1="6.13" x2="43.08" y2="46.33" gradientUnits="userSpaceOnUse"><stop offset="0" stop-color="#193233"/><stop offset="1" stop-color="#002d55"/></linearGradient></defs><g id="Layer_2" data-name="Layer 2"><g id="Layer_1-2" data-name="Layer 1"><rect class="cls-1" width="52.45" height="52.45" rx="26.23"/><path class="cls-2" d="M31.77,38.65a11.83,11.83,0,0,1-9.25-4.44.57.57,0,0,1,.08-.8.56.56,0,0,1,.8.09,10.75,10.75,0,1,0,.88-14.43,11.37,11.37,0,0,0-.88,1,.56.56,0,0,1-.8.09.57.57,0,0,1-.08-.8,12.08,12.08,0,0,1,1-1.06,11.88,11.88,0,1,1,8.29,20.39Z"/><path class="cls-2" d="M32.07,35.93a9.13,9.13,0,0,1-7.14-3.42.57.57,0,0,1,.89-.71A8,8,0,1,0,26.47,21a6.4,6.4,0,0,0-.65.72.57.57,0,0,1-.8.08.56.56,0,0,1-.09-.8,9.58,9.58,0,0,1,.75-.82,9.16,9.16,0,1,1,6.39,15.73Z"/><path class="cls-2" d="M31.77,22.34a.56.56,0,0,1-.56-.56v-1a.57.57,0,1,1,1.13,0v1A.56.56,0,0,1,31.77,22.34Z"/><path class="cls-2" d="M31.77,32.19a3.13,3.13,0,0,1-3.2-3,.57.57,0,1,1,1.13,0,2.08,2.08,0,1,0,2.07-1.89,3,3,0,1,1,3.21-3,.57.57,0,1,1-1.13,0,2.08,2.08,0,1,0-2.08,1.89,3,3,0,1,1,0,6.06Z"/><path class="cls-2" d="M31.77,33.32a.56.56,0,0,1-.56-.57v-11a.57.57,0,1,1,1.13,0v11A.56.56,0,0,1,31.77,33.32Z"/><path class="cls-2" d="M21.24,27.33H8.13a.57.57,0,1,1,0-1.13H21.24a.57.57,0,1,1,0,1.13Z"/><path class="cls-2" d="M23,23.46H11.85a.57.57,0,1,1,0-1.13H23a.57.57,0,1,1,0,1.13Z"/><path class="cls-2" d="M23,31.21H11.85a.57.57,0,0,1-.57-.57.56.56,0,0,1,.57-.57H23a.57.57,0,0,1,.57.57A.58.58,0,0,1,23,31.21Z"/></g></g></svg>