<svg xmlns="http://www.w3.org/2000/svg" xmlns:xlink="http://www.w3.org/1999/xlink" viewBox="0 0 69.33 69.33"><defs><style>.cls-1{fill:url(#linear-gradient);}.cls-2{fill:#fff;}</style><linearGradient id="linear-gradient" y1="34.67" x2="69.33" y2="34.67" gradientUnits="userSpaceOnUse"><stop offset="0" stop-color="#193233"/><stop offset="1" stop-color="#002d55"/></linearGradient></defs><g id="Layer_2" data-name="Layer 2"><g id="Layer_1-2" data-name="Layer 1"><circle class="cls-1" cx="34.67" cy="34.67" r="34.67"/><path class="cls-2" d="M42.29,49.38H14.05a.68.68,0,0,1-.67-.68V36.37a.67.67,0,0,1,.67-.68H42.29a.67.67,0,0,1,.67.68V48.7A.68.68,0,0,1,42.29,49.38ZM14.73,48H41.62V37H14.73Z"/><path class="cls-2" d="M28.17,49.38c-2.83,0-5.13-3.07-5.13-6.85s2.3-6.84,5.13-6.84,5.13,3.07,5.13,6.84S31,49.38,28.17,49.38Zm0-12.34c-2.08,0-3.78,2.46-3.78,5.49s1.7,5.5,3.78,5.5S32,45.56,32,42.53,30.26,37,28.17,37Z"/><path class="cls-2" d="M28.17,40.75a.67.67,0,0,1-.67-.67v-.5a.68.68,0,0,1,.67-.68.69.69,0,0,1,.68.68v.5A.68.68,0,0,1,28.17,40.75Z"/><path class="cls-2" d="M28.17,45.67a1.89,1.89,0,0,1-1.86-1.91.67.67,0,0,1,.67-.67.68.68,0,0,1,.68.67.52.52,0,1,0,.51-.55A1.91,1.91,0,1,1,30,41.3a.68.68,0,0,1-.68.68.67.67,0,0,1-.67-.68.52.52,0,1,0-.52.56,1.91,1.91,0,0,1,0,3.81Z"/><path class="cls-2" d="M28.17,46.23a.67.67,0,0,1-.67-.68V45a.67.67,0,0,1,.67-.67.68.68,0,0,1,.68.67v.56A.68.68,0,0,1,28.17,46.23Z"/><path class="cls-2" d="M37.3,43.21H35.23a.68.68,0,0,1,0-1.35H37.3a.68.68,0,1,1,0,1.35Z"/><path class="cls-2" d="M38.56,47h-3.7a.68.68,0,0,1,0-1.35H38a2,2,0,0,1,1.15-1.26V40.71A2,2,0,0,1,38,39.45H34.86a.68.68,0,0,1,0-1.35h3.7a.67.67,0,0,1,.67.67.66.66,0,0,0,.58.72.67.67,0,0,1,.68.67V44.9a.68.68,0,0,1-.68.68.66.66,0,0,0-.58.71A.67.67,0,0,1,38.56,47Z"/><path class="cls-2" d="M21.11,43.21H19a.68.68,0,1,1,0-1.35h2.07a.68.68,0,1,1,0,1.35Z"/><path class="cls-2" d="M21.48,47H17.79a.67.67,0,0,1-.68-.68.66.66,0,0,0-.58-.71.68.68,0,0,1-.67-.68V40.16a.67.67,0,0,1,.67-.67.66.66,0,0,0,.58-.72.67.67,0,0,1,.68-.67h3.69a.68.68,0,1,1,0,1.35H18.35a2,2,0,0,1-1.15,1.26v3.65a2,2,0,0,1,1.15,1.26h3.13a.68.68,0,1,1,0,1.35Z"/><path class="cls-2" d="M53.22,41.07H45a.68.68,0,0,1-.68-.67.69.69,0,0,1,.68-.68h8.24a1.38,1.38,0,0,0,1.38-1.38v-13A1.38,1.38,0,0,0,53.22,24h-23a1.38,1.38,0,0,0-1.38,1.39v8.4a.68.68,0,0,1-1.35,0v-8.4a2.73,2.73,0,0,1,2.73-2.73h23A2.73,2.73,0,0,1,56,25.35v13A2.73,2.73,0,0,1,53.22,41.07Z"/><path class="cls-2" d="M55.28,31.21H28.15a.67.67,0,0,1-.67-.67v-3.9a.68.68,0,0,1,.67-.68h8a.68.68,0,0,1,.67.68.67.67,0,0,1-.67.67H28.83v2.55H54.6V27.31h-14a.67.67,0,0,1-.67-.67.68.68,0,0,1,.67-.68H55.28a.68.68,0,0,1,.67.68v3.9A.67.67,0,0,1,55.28,31.21Z"/><path class="cls-2" d="M51.11,34.47H47.25a.68.68,0,1,1,0-1.35h3.86a.68.68,0,0,1,0,1.35Z"/><path class="cls-2" d="M51.11,37.55H45a.67.67,0,1,1,0-1.34h6.13a.67.67,0,1,1,0,1.34Z"/></g></g></svg>