<svg xmlns="http://www.w3.org/2000/svg" xmlns:xlink="http://www.w3.org/1999/xlink" viewBox="0 0 69.33 69.33"><defs><style>.cls-1{fill:url(#linear-gradient);}.cls-2{fill:#fff;}</style><linearGradient id="linear-gradient" y1="34.67" x2="69.33" y2="34.67" gradientUnits="userSpaceOnUse"><stop offset="0" stop-color="#193233"/><stop offset="1" stop-color="#002d55"/></linearGradient></defs><g id="Layer_2" data-name="Layer 2"><g id="Layer_1-2" data-name="Layer 1"><circle class="cls-1" cx="34.67" cy="34.67" r="34.67"/><path class="cls-2" d="M41.3,49.38a14.66,14.66,0,0,1-11.46-5.5.69.69,0,0,1,.1-1,.7.7,0,0,1,1,.1A13.31,13.31,0,1,0,32,25.14a12.3,12.3,0,0,0-1.09,1.19.71.71,0,0,1-1,.11.7.7,0,0,1-.1-1A14.89,14.89,0,0,1,31,24.13,14.71,14.71,0,1,1,41.3,49.38Z"/><path class="cls-2" d="M41.67,46a11.3,11.3,0,0,1-8.84-4.24.7.7,0,1,1,1.09-.88,10,10,0,1,0,0-12.46.7.7,0,0,1-1.09-.89,10.89,10.89,0,0,1,.92-1A11.35,11.35,0,1,1,41.67,46Z"/><path class="cls-2" d="M41.3,29.19a.7.7,0,0,1-.7-.7V27.25a.7.7,0,0,1,1.4,0v1.24A.7.7,0,0,1,41.3,29.19Z"/><path class="cls-2" d="M41.3,41.38a3.87,3.87,0,0,1-4-3.75.71.71,0,0,1,1.41,0,2.57,2.57,0,1,0,2.56-2.34,3.76,3.76,0,1,1,4-3.75.7.7,0,0,1-.7.7.71.71,0,0,1-.71-.7,2.57,2.57,0,1,0-2.56,2.34,3.76,3.76,0,1,1,0,7.5Z"/><path class="cls-2" d="M41.3,42.78a.7.7,0,0,1-.7-.7V28.49a.7.7,0,1,1,1.4,0V42.08A.7.7,0,0,1,41.3,42.78Z"/><path class="cls-2" d="M28.25,35.37H12A.71.71,0,1,1,12,34H28.25a.71.71,0,1,1,0,1.41Z"/><path class="cls-2" d="M30.39,30.58H16.62a.71.71,0,0,1-.7-.71.7.7,0,0,1,.7-.7H30.39a.7.7,0,0,1,.7.7A.71.71,0,0,1,30.39,30.58Z"/><path class="cls-2" d="M30.39,40.16H16.62a.7.7,0,0,1,0-1.4H30.39a.7.7,0,0,1,0,1.4Z"/></g></g></svg>