<svg xmlns="http://www.w3.org/2000/svg" xmlns:xlink="http://www.w3.org/1999/xlink" viewBox="0 0 52.45 52.45"><defs><style>.cls-1{fill:url(#linear-gradient);}.cls-2{fill:#fff;}</style><linearGradient id="linear-gradient" x1="9.38" y1="6.13" x2="43.08" y2="46.33" gradientUnits="userSpaceOnUse"><stop offset="0" stop-color="#193233"/><stop offset="1" stop-color="#002d55"/></linearGradient></defs><g id="Layer_2" data-name="Layer 2"><g id="Layer_1-2" data-name="Layer 1"><rect class="cls-1" width="52.45" height="52.45" rx="26.23"/><path class="cls-2" d="M30.49,31.22a.4.4,0,0,1-.15,0L11.91,23.93a1.91,1.91,0,0,1-1.08-2.49L15,10.93a1.9,1.9,0,0,1,1-1.06,1.92,1.92,0,0,1,1.47,0l17,6.71A1.92,1.92,0,0,1,35.57,19l-2.89,7.32a.4.4,0,0,1-.52.23.41.41,0,0,1-.23-.53l2.89-7.31a1.14,1.14,0,0,0-.63-1.45l-17-6.71a1.12,1.12,0,0,0-.86,0,1.14,1.14,0,0,0-.59.61L11.58,21.73a1.09,1.09,0,0,0,0,.85,1.11,1.11,0,0,0,.62.6l18.43,7.26a.41.41,0,0,1,.23.53A.42.42,0,0,1,30.49,31.22Z"/><path class="cls-2" d="M34,34.72a.39.39,0,0,1-.28-.12l-5.79-5.79a2.52,2.52,0,1,1,3.57-3.57L36,29.79a.4.4,0,0,1,0,.57.42.42,0,0,1-.57,0l-4.54-4.55a1.72,1.72,0,1,0-2.43,2.43L34.28,34a.41.41,0,0,1-.29.69Z"/><path class="cls-2" d="M29.84,34.54a3.48,3.48,0,0,1-1.15-.2l-5.67-2a2.47,2.47,0,0,1-1.62-2.51l.18-2.1a.4.4,0,0,1,.43-.37.41.41,0,0,1,.37.44l-.17,2.09a1.65,1.65,0,0,0,1.09,1.69l5.66,2a2.66,2.66,0,0,0,2.34-.28l1.08-.71a.41.41,0,0,1,.56.11.4.4,0,0,1-.12.56L31.74,34A3.41,3.41,0,0,1,29.84,34.54Z"/><path class="cls-2" d="M41.36,42.75a.41.41,0,0,1-.4-.36L39.34,28.78a5.29,5.29,0,0,0-3-4.17l-2.88-1.34a.4.4,0,0,1-.19-.54.39.39,0,0,1,.53-.19l2.88,1.34A6,6,0,0,1,39,25.83a6.15,6.15,0,0,1,1.12,2.85l1.62,13.61a.4.4,0,0,1-.36.45Z"/><path class="cls-2" d="M30.19,40.12l-.22,0-4.31-.66a2.62,2.62,0,0,1-2.19-2.27l-.16-1.33a2.6,2.6,0,0,1-1.25-1.79V34L22,31.47a.41.41,0,0,1,.81,0l.05,2.49a1.78,1.78,0,0,0,1.42,1.41l5.2,1a2.29,2.29,0,0,0,1.34-.14l2.39-1a.38.38,0,0,1,.33,0,.4.4,0,0,1,.21.25l.36,1.16a2.64,2.64,0,0,1,0,1.14A1.89,1.89,0,0,1,33,39.23c-1,.41-1.65.66-1.9.73A3.23,3.23,0,0,1,30.19,40.12Zm-6-4,.11.92a1.8,1.8,0,0,0,1.51,1.57l4.31.66a1.73,1.73,0,0,0,.75-.11c.22-.07.87-.32,1.83-.7a1.09,1.09,0,0,0,.66-.84,1.87,1.87,0,0,0,0-.78l-.23-.74-2,.85a3.12,3.12,0,0,1-1.81.19Z"/><path class="cls-2" d="M32.34,42.25h-.06l-2.9-.44A2.93,2.93,0,0,1,27,39.6a.39.39,0,0,1,.29-.48.4.4,0,0,1,.49.29A2.11,2.11,0,0,0,29.5,41l2.9.45a.4.4,0,0,1-.06.8Z"/><path class="cls-2" d="M33.37,36a.41.41,0,0,1-.4-.32l-.41-2.07a.39.39,0,0,1,.31-.47.4.4,0,0,1,.48.31l.41,2.07a.39.39,0,0,1-.31.47Z"/><path class="cls-2" d="M21.29,17.74a1.82,1.82,0,0,1-.65-.12,1.79,1.79,0,0,1-1-.94,1.76,1.76,0,0,1,0-1.35,1.79,1.79,0,0,1,.94-1,1.77,1.77,0,0,1,2.35,2.26,1.72,1.72,0,0,1-.94,1A1.69,1.69,0,0,1,21.29,17.74Zm0-2.72a.91.91,0,0,0-.39.08,1,1,0,0,0-.49,1.26,1,1,0,0,0,.53.51,1,1,0,0,0,.73,0,.95.95,0,0,0,.49-1.26,1,1,0,0,0-.52-.51A1.12,1.12,0,0,0,21.29,15Z"/><path class="cls-2" d="M18.75,16.75a1.81,1.81,0,0,1-.64-.12,1.79,1.79,0,0,1-1-.94,1.76,1.76,0,0,1,0-1.35,1.74,1.74,0,0,1,.93-1,1.77,1.77,0,0,1,2.36,2.26,1.82,1.82,0,0,1-.94,1A1.78,1.78,0,0,1,18.75,16.75Zm0-2.72a.84.84,0,0,0-.38.08.93.93,0,0,0-.51.52,1,1,0,0,0,0,.74,1.05,1.05,0,0,0,.53.51,1,1,0,0,0,.74,0,1,1,0,0,0,.49-1.26,1,1,0,0,0-.53-.51A1,1,0,0,0,18.75,14Z"/><path class="cls-2" d="M22.32,22.66a.4.4,0,0,1-.15,0L15.36,20a.41.41,0,0,1,.29-.76l6.82,2.67a.41.41,0,0,1,.23.52A.42.42,0,0,1,22.32,22.66Z"/><path class="cls-2" d="M21.48,24.81a.4.4,0,0,1-.15,0l-6.81-2.66a.4.4,0,1,1,.29-.75L21.63,24a.41.41,0,0,1-.15.78Z"/><path class="cls-2" d="M27.58,27.19a.32.32,0,0,1-.14,0l-4.63-1.81a.4.4,0,0,1,.29-.75l4.63,1.81a.4.4,0,0,1-.15.77Z"/></g></g></svg>