<svg xmlns="http://www.w3.org/2000/svg" xmlns:xlink="http://www.w3.org/1999/xlink" viewBox="0 0 84.72 100.66"><defs><style>.cls-1{font-size:21px;fill:#193233;font-family:OpenSans-Bold, Open Sans;font-weight:700;}.cls-2{fill:url(#linear-gradient);}.cls-3{fill:#fff;}</style><linearGradient id="linear-gradient" x1="7.77" y1="34.67" x2="77.1" y2="34.67" gradientUnits="userSpaceOnUse"><stop offset="0" stop-color="#193233"/><stop offset="1" stop-color="#002d55"/></linearGradient></defs><g id="Layer_2" data-name="Layer 2"><g id="Layer_1-2" data-name="Layer 1"><text class="cls-1" transform="translate(0 94.51)">Settings</text><circle class="cls-2" cx="42.43" cy="34.67" r="34.67"/><g id="icon_settings"><path class="cls-3" d="M61.43,33.16a.84.84,0,0,0-.66-.68l-4.1-.85a15.25,15.25,0,0,0-2.82-4.87l1.32-4a.87.87,0,0,0-.26-.91,19.21,19.21,0,0,0-6-3.44.83.83,0,0,0-.9.22l-2.9,3.12a15.34,15.34,0,0,0-5.53,0l-2.79-3.13a.84.84,0,0,0-.92-.23,19.2,19.2,0,0,0-6,3.51.86.86,0,0,0-.24.93L31,26.76a15.33,15.33,0,0,0-2.81,4.87l-4.1.85a.84.84,0,0,0-.66.68,19.73,19.73,0,0,0-.31,3.44A19,19,0,0,0,23.44,40a.84.84,0,0,0,.66.68l4.1.84A15.19,15.19,0,0,0,31,46.44l-1.29,4a.83.83,0,0,0,.26.91,19.09,19.09,0,0,0,5.93,3.42.85.85,0,0,0,.91-.24l2.79-3.12a15.23,15.23,0,0,0,5.63,0L48,54.53a.82.82,0,0,0,.63.29.92.92,0,0,0,.28,0,19,19,0,0,0,6-3.45.86.86,0,0,0,.26-.91l-1.32-4a15.19,15.19,0,0,0,2.82-4.88l4.1-.84a.84.84,0,0,0,.66-.68,19.87,19.87,0,0,0,0-6.88Zm-1.58,6-4,.82a.84.84,0,0,0-.64.58,13.45,13.45,0,0,1-2.94,5.08.85.85,0,0,0-.18.85l1.28,3.88A17.12,17.12,0,0,1,48.91,53l-2.72-3a.82.82,0,0,0-.63-.29l-.18,0a13.61,13.61,0,0,1-5.89,0,.85.85,0,0,0-.81.27L36,53a17.51,17.51,0,0,1-4.43-2.56l1.26-3.91a.84.84,0,0,0-.18-.84,13.24,13.24,0,0,1-2.94-5.08A.84.84,0,0,0,29,40l-4-.82a18.65,18.65,0,0,1-.18-2.58A18.43,18.43,0,0,1,25,34l4-.83a.84.84,0,0,0,.64-.57,13.35,13.35,0,0,1,2.94-5.09.84.84,0,0,0,.17-.86l-1.35-3.81A17.61,17.61,0,0,1,36,20.22l2.73,3.06a.82.82,0,0,0,.81.26,13.57,13.57,0,0,1,5.78,0,.85.85,0,0,0,.8-.25l2.83-3.05a17.35,17.35,0,0,1,4.47,2.58l-1.28,3.89a.84.84,0,0,0,.18.84,13.48,13.48,0,0,1,2.94,5.09.84.84,0,0,0,.64.57l4,.83a17.61,17.61,0,0,1,0,5.16Z"/><path class="cls-3" d="M42.43,28.31a8.29,8.29,0,1,0,8.3,8.29A8.3,8.3,0,0,0,42.43,28.31Zm0,14.89A6.6,6.6,0,1,1,49,36.6,6.61,6.61,0,0,1,42.43,43.2Z"/></g></g></g></svg>