<svg xmlns="http://www.w3.org/2000/svg" xmlns:xlink="http://www.w3.org/1999/xlink" viewBox="0 0 52.45 52.45"><defs><style>.cls-1{fill:url(#linear-gradient);}.cls-2{fill:#fff;}</style><linearGradient id="linear-gradient" x1="9.38" y1="6.13" x2="43.08" y2="46.33" gradientUnits="userSpaceOnUse"><stop offset="0" stop-color="#193233"/><stop offset="1" stop-color="#002d55"/></linearGradient></defs><g id="Layer_2" data-name="Layer 2"><g id="Layer_1-2" data-name="Layer 1"><rect class="cls-1" width="52.45" height="52.45" rx="26.23"/><path class="cls-2" d="M37.56,37.77H14.89a.31.31,0,0,1-.31-.31V36.2A1.15,1.15,0,0,1,15.73,35h21a1.16,1.16,0,0,1,1.16,1.16v1.26A.31.31,0,0,1,37.56,37.77Zm-22.35-.63h22V36.2a.53.53,0,0,0-.53-.53h-21a.52.52,0,0,0-.52.53Z"/><path class="cls-2" d="M36.72,20.56h-21a1.15,1.15,0,0,1-1.15-1.16V18.15a.31.31,0,0,1,.31-.32H37.56a.32.32,0,0,1,.32.32V19.4A1.16,1.16,0,0,1,36.72,20.56Zm-21.51-2.1v.94a.52.52,0,0,0,.52.53h21a.53.53,0,0,0,.53-.53v-.94Z"/><path class="cls-2" d="M39.66,18.46H12.79a.31.31,0,0,1-.15-.59l13.43-7.56a.34.34,0,0,1,.31,0l13.44,7.56a.34.34,0,0,1,.15.36A.32.32,0,0,1,39.66,18.46ZM14,17.83H38.46L26.23,11Z"/><path class="cls-2" d="M26.23,16.78a2,2,0,1,1,2-2A2,2,0,0,1,26.23,16.78Zm0-3.36a1.37,1.37,0,1,0,1.36,1.37A1.37,1.37,0,0,0,26.23,13.42Z"/><path class="cls-2" d="M35.46,35.67H17a.31.31,0,0,1-.31-.31V20.24a.31.31,0,0,1,.31-.31H35.46a.31.31,0,0,1,.32.31V35.36A.31.31,0,0,1,35.46,35.67ZM17.31,35H35.15V20.56H17.31Z"/><path class="cls-2" d="M32.1,35.67H20.35a.32.32,0,0,1-.32-.31V28.64a6.2,6.2,0,0,1,12.39,0v6.72A.31.31,0,0,1,32.1,35.67ZM20.66,35H31.79v-6.4a5.57,5.57,0,0,0-11.13,0Z"/><path class="cls-2" d="M28,32.94H24.43a.32.32,0,0,1-.24-.11.35.35,0,0,1-.07-.26l.67-3.33a2.08,2.08,0,0,1-.67-1.53,2.11,2.11,0,1,1,3.54,1.53l.67,3.33a.31.31,0,0,1-.07.26A.29.29,0,0,1,28,32.94Zm-3.2-.63h2.82L27,29.18a.32.32,0,0,1,.12-.31,1.48,1.48,0,1,0-2.38-1.16,1.45,1.45,0,0,0,.58,1.16.32.32,0,0,1,.11.31Z"/></g></g></svg>