<svg xmlns="http://www.w3.org/2000/svg" xmlns:xlink="http://www.w3.org/1999/xlink" viewBox="0 0 52.45 52.45"><defs><style>.cls-1{fill:url(#linear-gradient);}.cls-2{fill:#fff;}</style><linearGradient id="linear-gradient" x1="9.38" y1="6.13" x2="43.08" y2="46.33" gradientUnits="userSpaceOnUse"><stop offset="0" stop-color="#193233"/><stop offset="1" stop-color="#002d55"/></linearGradient></defs><g id="Layer_2" data-name="Layer 2"><g id="Layer_1-2" data-name="Layer 1"><rect class="cls-1" width="52.45" height="52.45" rx="26.23"/><path class="cls-2" d="M33.62,41.63H29.51A.61.61,0,0,1,28.9,41V38.56a.22.22,0,0,0-.23-.22H20.5a.23.23,0,0,0-.23.23V41a.61.61,0,0,1-.61.62H15.55a.62.62,0,0,1-.62-.62V37.58a1.24,1.24,0,0,0-.55-1c-2.7-1.83-4.37-5.48-4.37-9.5,0-5.17,3.11-9.36,7.74-10.44a.62.62,0,1,1,.28,1.2c-4.13,1-6.79,4.58-6.79,9.24,0,3.62,1.47,6.87,3.83,8.48a2.49,2.49,0,0,1,1.1,2V40.4H19V38.57a1.46,1.46,0,0,1,1.46-1.46h8.17a1.45,1.45,0,0,1,1,.42,1.44,1.44,0,0,1,.43,1V40.4H33V37.3a2.15,2.15,0,0,1,.86-1.72l.19-.15a9.48,9.48,0,0,0,3.35-3.61,2.17,2.17,0,0,1,2-1.28,1,1,0,0,0,1.07-.8l.79-4.39c0-1-.62-1-.82-1h-1a2.16,2.16,0,0,1-2-1.2,7.23,7.23,0,0,0-2-2.33l-.58-.51a.61.61,0,0,1-.2-.46V15.67l-2,2a.62.62,0,0,1-.43.18h-1.1a.62.62,0,0,1-.62-.62.61.61,0,0,1,.62-.61H32l1.93-1.93a1.14,1.14,0,0,1,1.24-.25,1.15,1.15,0,0,1,.71,1.06v4.15l.36.31a8.43,8.43,0,0,1,2.33,2.73.93.93,0,0,0,.85.5h1a2,2,0,0,1,2.05,2.26.34.34,0,0,1,0,.1L41.64,30a2.27,2.27,0,0,1-2.22,1.78,1,1,0,0,0-.9.56,10.57,10.57,0,0,1-3.72,4.08l-.2.15a.92.92,0,0,0-.36.74V41A.62.62,0,0,1,33.62,41.63Z"/><path class="cls-2" d="M13.92,27.46h0a.63.63,0,0,1-.59-.65,8.73,8.73,0,0,1,2.54-6,.62.62,0,0,1,.86.89,7.52,7.52,0,0,0-2.17,5.13A.62.62,0,0,1,13.92,27.46Z"/><path class="cls-2" d="M24.17,21.09A5.13,5.13,0,1,1,29.31,16,5.13,5.13,0,0,1,24.17,21.09Zm0-9A3.9,3.9,0,1,0,28.08,16,3.91,3.91,0,0,0,24.17,12.06Z"/><path class="cls-2" d="M35.26,25.2a.61.61,0,0,1-.61-.62V22.94a.61.61,0,0,1,.61-.61.61.61,0,0,1,.62.61v1.64A.62.62,0,0,1,35.26,25.2Z"/></g></g></svg>