<svg xmlns="http://www.w3.org/2000/svg" xmlns:xlink="http://www.w3.org/1999/xlink" viewBox="0 0 86.16 86.16"><defs><style>.cls-1{fill:none;stroke-miterlimit:10;stroke-width:3px;stroke:url(#New_Gradient_Swatch);}.cls-2{fill:#fff;}</style><linearGradient id="New_Gradient_Swatch" y1="43.08" x2="86.16" y2="43.08" gradientUnits="userSpaceOnUse"><stop offset="0" stop-color="#ea9302"/><stop offset="1" stop-color="#c76319"/></linearGradient></defs><g id="Layer_2" data-name="Layer 2"><g id="Layer_1-2" data-name="Layer 1"><circle class="cls-1" cx="43.08" cy="43.08" r="41.58"/><path class="cls-2" d="M48.41,50.37a9.66,9.66,0,1,0-10.66,0A15.47,15.47,0,0,0,27.62,64.86H30.2a12.88,12.88,0,0,1,25.76,0h2.58A15.47,15.47,0,0,0,48.41,50.37ZM36,42.32a7.09,7.09,0,1,1,7.08,7.09A7.08,7.08,0,0,1,36,42.32Z"/><path class="cls-2" d="M61.29,43.93a9.65,9.65,0,1,0-12-15A9.82,9.82,0,0,0,47.65,31a11.8,11.8,0,0,1,2.28,1.2,6.86,6.86,0,0,1,1.73-1.91A7,7,0,0,1,56,28.8a7.08,7.08,0,0,1,1.91,13.9A7,7,0,0,1,56,43c-.23,0-.45,0-.67,0a11.91,11.91,0,0,1-.44,2.69c.37,0,.74-.08,1.11-.08A12.95,12.95,0,0,1,68.84,58.42h2.58A15.47,15.47,0,0,0,61.29,43.93Z"/><path class="cls-2" d="M30.2,45.54c.38,0,.74.05,1.11.08a12.49,12.49,0,0,1-.44-2.69c-.22,0-.44,0-.67,0a7.08,7.08,0,0,1,0-14.16,7,7,0,0,1,4.3,1.47,6.86,6.86,0,0,1,1.73,1.91A12.09,12.09,0,0,1,38.51,31a9.82,9.82,0,0,0-1.65-2.08,9.65,9.65,0,1,0-12,15A15.47,15.47,0,0,0,14.74,58.42h2.58A12.95,12.95,0,0,1,30.2,45.54Z"/></g></g></svg>