<svg xmlns="http://www.w3.org/2000/svg" xmlns:xlink="http://www.w3.org/1999/xlink" viewBox="0 0 78.32 78.32"><defs><style>.cls-1{fill:none;stroke-miterlimit:10;stroke-width:3px;stroke:url(#New_Gradient_Swatch);}.cls-2{fill:#fff;}</style><linearGradient id="New_Gradient_Swatch" y1="39.16" x2="78.32" y2="39.16" gradientUnits="userSpaceOnUse"><stop offset="0" stop-color="#ea9302"/><stop offset="1" stop-color="#c76319"/></linearGradient></defs><g id="Layer_2" data-name="Layer 2"><g id="Layer_1-2" data-name="Layer 1"><circle class="cls-1" cx="39.16" cy="39.16" r="37.66"/><path class="cls-2" d="M47.25,30.83V25.64a.83.83,0,0,0-.84-.84h-.64a.84.84,0,0,0-.85.84v2.85c0,.47-.27.58-.6.25l-4.6-4.61a.84.84,0,0,0-1.19,0l-17.9,18c-.33.34-.22.61.25.61l4.55,0a.84.84,0,0,1,.84.85l0,12.28a.85.85,0,0,0,.84.85h7.66a.85.85,0,0,0,.85-.85v-11a2.15,2.15,0,0,1,.51-1.51,5.22,5.22,0,0,1,3-.82,5,5,0,0,1,3,.81,2.17,2.17,0,0,1,.5,1.52v11a.85.85,0,0,0,.85.85h7.65a.86.86,0,0,0,.85-.85l0-12.31a.83.83,0,0,1,.85-.84l4.62,0c.47,0,.58-.26.25-.59l-9.84-9.87a2.36,2.36,0,0,1-.6-1.45m2.39,10.38,0,12.33a.86.86,0,0,1-.85.85h-3a.85.85,0,0,1-.85-.85V44.72c0-.47,0-.91,0-1a3.12,3.12,0,0,0-.3-.92c-.81-1.61-2.86-2.61-5.49-2.61-2.21,0-4.62.82-5.55,2.6a4.37,4.37,0,0,0-.29,1.64l0,9.09a.85.85,0,0,1-.85.85h-3a.85.85,0,0,1-.85-.85l.05-12.27a.85.85,0,0,0-.85-.85h-1.3c-.47,0-.58-.27-.25-.6L38.53,27.44a.84.84,0,0,1,1.19,0L52,39.78c.33.33.22.6-.25.6H50.49a.83.83,0,0,0-.85.84"/></g></g></svg>