<svg xmlns="http://www.w3.org/2000/svg" xmlns:xlink="http://www.w3.org/1999/xlink" viewBox="0 0 86.16 86.16"><defs><style>.cls-1{fill:none;stroke-miterlimit:10;stroke-width:3px;stroke:url(#New_Gradient_Swatch);}.cls-2{fill:#fff;}</style><linearGradient id="New_Gradient_Swatch" y1="43.08" x2="86.16" y2="43.08" gradientUnits="userSpaceOnUse"><stop offset="0" stop-color="#ea9302"/><stop offset="1" stop-color="#c76319"/></linearGradient></defs><g id="Layer_2" data-name="Layer 2"><g id="Layer_1-2" data-name="Layer 1"><circle class="cls-1" cx="43.08" cy="43.08" r="41.58"/><path class="cls-2" d="M58,65.21a1,1,0,0,1-.45-.11l-4.53-2.48L48.53,65.1a1,1,0,0,1-.9,0l-4.54-2.48L38.56,65.1a1,1,0,0,1-.9,0l-4.55-2.48L28.57,65.1a.94.94,0,0,1-1.39-.82V21.88a.94.94,0,0,1,.46-.8,1,1,0,0,1,.93,0l4.53,2.48,4.53-2.48a1,1,0,0,1,.9,0l4.54,2.48,4.54-2.48a.94.94,0,0,1,.89,0l4.55,2.48,4.54-2.48a.94.94,0,0,1,1.39.82v42.4a.94.94,0,0,1-.46.8A.91.91,0,0,1,58,65.21ZM33.11,60.62a1,1,0,0,1,.45.11l4.55,2.48,4.54-2.48a.94.94,0,0,1,.89,0l4.54,2.48,4.54-2.48a.94.94,0,0,1,.89,0l3.6,2V23.46l-3.61,2a1,1,0,0,1-.9,0L48.05,23l-4.53,2.48a1,1,0,0,1-.9,0L38.08,23l-4.53,2.48a1,1,0,0,1-.9,0l-3.6-2V62.7l3.61-2A1,1,0,0,1,33.11,60.62Z"/><path class="cls-2" d="M51.81,34H39.34a.94.94,0,1,1,0-1.87H51.81a.94.94,0,0,1,0,1.87Z"/><path class="cls-2" d="M51.81,45.26H33.11a.94.94,0,1,1,0-1.87h18.7a.94.94,0,0,1,0,1.87Z"/><path class="cls-2" d="M45.57,51.5H33.11a.94.94,0,1,1,0-1.87H45.57a.94.94,0,1,1,0,1.87Z"/><path class="cls-2" d="M48.07,39H39.34a.94.94,0,1,1,0-1.87h8.73a.94.94,0,0,1,0,1.87Z"/><path class="cls-2" d="M35.6,34H33.11a.94.94,0,1,1,0-1.87H35.6a.94.94,0,0,1,0,1.87Z"/><path class="cls-2" d="M35.6,39H33.11a.94.94,0,1,1,0-1.87H35.6a.94.94,0,0,1,0,1.87Z"/></g></g></svg>