<svg xmlns="http://www.w3.org/2000/svg" xmlns:xlink="http://www.w3.org/1999/xlink" viewBox="0 0 52.45 52.45"><defs><style>.cls-1{fill:url(#linear-gradient);}.cls-2{fill:#fff;}</style><linearGradient id="linear-gradient" x1="9.38" y1="6.13" x2="43.08" y2="46.33" gradientUnits="userSpaceOnUse"><stop offset="0" stop-color="#193233"/><stop offset="1" stop-color="#002d55"/></linearGradient></defs><g id="Layer_2" data-name="Layer 2"><g id="Layer_1-2" data-name="Layer 1"><rect class="cls-1" width="52.45" height="52.45" rx="26.23"/><path class="cls-2" d="M36.23,41a.64.64,0,0,1-.3-.08l-3-1.66-3,1.66a.64.64,0,0,1-.6,0l-3-1.66L23.2,41a.64.64,0,0,1-.6,0l-3-1.66-3,1.66a.65.65,0,0,1-.62,0,.62.62,0,0,1-.3-.54V12.05a.62.62,0,0,1,.92-.54l3,1.65,3-1.65a.57.57,0,0,1,.59,0l3,1.65,3-1.65a.61.61,0,0,1,.6,0l3,1.66,3-1.66a.62.62,0,0,1,.62,0,.61.61,0,0,1,.31.53V40.4a.63.63,0,0,1-.31.54A.62.62,0,0,1,36.23,41ZM19.56,38a.61.61,0,0,1,.3.08l3,1.66,3-1.66a.64.64,0,0,1,.6,0l3,1.66,3-1.66a.64.64,0,0,1,.6,0l2.41,1.32V13.11l-2.42,1.31a.59.59,0,0,1-.6,0l-3-1.65-3,1.65a.59.59,0,0,1-.6,0l-3-1.65-3,1.65a.59.59,0,0,1-.6,0l-2.4-1.31V39.35L19.26,38A.67.67,0,0,1,19.56,38Z"/><path class="cls-2" d="M32.06,20.18H23.73a.63.63,0,1,1,0-1.25h8.33a.63.63,0,1,1,0,1.25Z"/><path class="cls-2" d="M32.06,27.69H19.56a.63.63,0,1,1,0-1.25h12.5a.63.63,0,1,1,0,1.25Z"/><path class="cls-2" d="M27.89,31.85H19.56a.63.63,0,1,1,0-1.25h8.33a.63.63,0,1,1,0,1.25Z"/><path class="cls-2" d="M29.56,23.52H23.73a.63.63,0,1,1,0-1.25h5.83a.63.63,0,1,1,0,1.25Z"/><path class="cls-2" d="M21.22,20.18H19.56a.63.63,0,1,1,0-1.25h1.66a.63.63,0,1,1,0,1.25Z"/><path class="cls-2" d="M21.22,23.52H19.56a.63.63,0,1,1,0-1.25h1.66a.63.63,0,1,1,0,1.25Z"/></g></g></svg>