<svg xmlns="http://www.w3.org/2000/svg" viewBox="0 0 32.75 33.9"><defs><style>.cls-1{fill:#193233;}</style></defs><g id="Layer_2" data-name="Layer 2"><g id="Layer_1-2" data-name="Layer 1"><path class="cls-1" d="M2.1,32.28l-1-3.47h0c0,.59.07,1.05.07,1.38v2.09H0V27.46H1.73l1,3.42h0l1-3.42H5.48v4.82H4.29V29.8c0-.13,0-.46,0-1h0l-1,3.46Z"/><path class="cls-1" d="M6,28.55H7.35L8,30.69a3.27,3.27,0,0,1,.07.4h0a3,3,0,0,1,.08-.39l.65-2.15h1.31l-1.47,4a2.34,2.34,0,0,1-.7,1.07,1.77,1.77,0,0,1-1.08.31,2.37,2.37,0,0,1-.52-.06v-1a1.56,1.56,0,0,0,.39,0,.67.67,0,0,0,.3-.06.71.71,0,0,0,.23-.19,1.71,1.71,0,0,0,.2-.39Z"/><path class="cls-1" d="M15.83,32.28H14.3l-.47-2.1c0-.09-.05-.26-.1-.52s-.08-.48-.1-.66c0,.15-.05.32-.09.53s-.08.41-.12.59-.19.9-.47,2.16H11.41l-1.19-4.82h1.25L12,29.88c.12.53.2,1,.25,1.27,0-.22.08-.53.15-.91s.14-.7.21-.95L13,27.46h1.21l.41,1.83c.07.29.14.62.21,1s.12.66.15.85c0-.24.1-.66.23-1.27l.53-2.42H17Z"/><path class="cls-1" d="M20,32.28l-.25-.5h0a1.52,1.52,0,0,1-.53.45,2,2,0,0,1-.7.11,1.09,1.09,0,0,1-.83-.31,1.25,1.25,0,0,1-.31-.89,1,1,0,0,1,.42-.89,2.38,2.38,0,0,1,1.2-.33l.62,0v0a.4.4,0,0,0-.45-.46,2.66,2.66,0,0,0-1,.28l-.37-.85a3.48,3.48,0,0,1,1.65-.34,1.59,1.59,0,0,1,1.11.36,1.27,1.27,0,0,1,.39,1v2.45Zm-1-.84a.57.57,0,0,0,.4-.15.51.51,0,0,0,.17-.39v-.29l-.3,0c-.42,0-.63.17-.63.46A.32.32,0,0,0,19,31.44Z"/><path class="cls-1" d="M23.06,32.28H21.77V27.15h1.29Z"/><path class="cls-1" d="M25.24,32.28H24V27.15h1.29Z"/><path class="cls-1" d="M27.93,32.34a2,2,0,0,1-1.45-.49A1.87,1.87,0,0,1,26,30.44,2.06,2.06,0,0,1,26.44,29a1.8,1.8,0,0,1,1.37-.51,1.83,1.83,0,0,1,1.3.44,1.66,1.66,0,0,1,.46,1.27v.57h-2.3a.62.62,0,0,0,.23.49.86.86,0,0,0,.58.18,3.06,3.06,0,0,0,.63-.06,3.8,3.8,0,0,0,.61-.22v.92a2.09,2.09,0,0,1-.62.22A4.38,4.38,0,0,1,27.93,32.34Zm-.08-3a.56.56,0,0,0-.38.14.72.72,0,0,0-.18.45H28.4a.66.66,0,0,0-.15-.43A.51.51,0,0,0,27.85,29.36Z"/><path class="cls-1" d="M32.12,31.33a2.14,2.14,0,0,0,.63-.13v.94a2.87,2.87,0,0,1-.5.16,3,3,0,0,1-.55,0,1.22,1.22,0,0,1-.94-.31,1.43,1.43,0,0,1-.28-1V29.51H30V29l.57-.41.33-.78h.84v.75h.92v1h-.92V31C31.77,31.21,31.89,31.33,32.12,31.33Z"/><path class="cls-1" d="M26.39,3.3h-1v-1A3,3,0,0,0,24.54.4,1.93,1.93,0,0,0,23.27,0h-.38L6.27,3.3A2.36,2.36,0,0,0,4,5.64V19a2.36,2.36,0,0,0,2.33,2.32h20A2.36,2.36,0,0,0,28.72,19V5.64A2.37,2.37,0,0,0,26.39,3.3ZM22.63,1.18c.7-.1,1.38.32,1.38.9h0V3.26L9.3,3.8S9,3.5,10,3.34C13,2.86,20.46,1.51,22.63,1.18ZM27.36,19a1,1,0,0,1-1,1h-20a1.06,1.06,0,0,1-1.07-1V5.64a1.06,1.06,0,0,1,1.07-1h20a1,1,0,0,1,1,1V7.48H18a.67.67,0,0,0-.67.68v8.35a.66.66,0,0,0,.67.68h9.34Zm.29-2.92H18.42V8.55h9.23Z"/><path class="cls-1" d="M22.89,10a2.33,2.33,0,1,0,0,4.65,2.33,2.33,0,0,0,0-4.65Zm0,3.78a1.52,1.52,0,0,1-1.56-1.46,1.52,1.52,0,0,1,1.56-1.46,1.46,1.46,0,0,1,0,2.92Z"/></g></g></svg>