<svg xmlns="http://www.w3.org/2000/svg" viewBox="0 0 154.42 51.47"><defs><style>.cls-1{fill:#fff;}</style></defs><g id="Layer_2" data-name="Layer 2"><g id="Layer_1-2" data-name="Layer 1"><path d="M0,6.86A6.86,6.86,0,0,1,6.86,0h140.7a6.86,6.86,0,0,1,6.86,6.86V44.61a6.86,6.86,0,0,1-6.86,6.86H6.86A6.86,6.86,0,0,1,0,44.61Z"/><path class="cls-1" d="M47.61,10.29v8.9h3.07c2.7,0,4.29-1.64,4.29-4.45s-1.59-4.45-4.29-4.45Zm1.14,1H50.6c2.07,0,3.21,1.24,3.21,3.46s-1.15,3.44-3.21,3.44H48.75Zm10.19,8A3,3,0,0,0,62,16a3,3,0,0,0-3-3.32c-1.82,0-3,1.27-3,3.32A3,3,0,0,0,58.94,19.3Zm0-.94C57.78,18.36,57,17.5,57,16s.77-2.38,1.93-2.38,1.92.86,1.92,2.38S60.1,18.36,58.94,18.36Zm12.5-5.58H70.35L69,18h0l-1.49-5.22H66.46L65,18h0l-1.32-5.22H62.55l1.84,6.41H65.5l1.48-5h0l1.48,5h1.12Zm.9,6.41h1.1V15.42a1.65,1.65,0,0,1,1.71-1.8c1,0,1.51.57,1.51,1.6v4h1.1V15a2.13,2.13,0,0,0-2.27-2.36A2.22,2.22,0,0,0,73.4,13.8h0v-1h-1Zm6.88,0h1.09v-8.9H79.22Zm5.3.11a3,3,0,0,0,3-3.31,3,3,0,0,0-3-3.32c-1.82,0-3,1.27-3,3.32A3,3,0,0,0,84.52,19.3Zm0-.94c-1.16,0-1.93-.86-1.93-2.37s.77-2.38,1.93-2.38,1.92.86,1.92,2.38S85.68,18.36,84.52,18.36Zm6.31,0c-.79,0-1.31-.4-1.31-1s.5-1,1.39-1l1.75-.11v.53A1.71,1.71,0,0,1,90.83,18.39Zm-.24.91a2.4,2.4,0,0,0,2.1-1.21h0v1.1h1V14.76c0-1.28-1-2.09-2.51-2.09s-2.53.85-2.6,2h1.06a1.37,1.37,0,0,1,1.51-1c.91,0,1.44.47,1.44,1.25v.54l-1.88.1c-1.51.09-2.38.78-2.38,1.88A2,2,0,0,0,90.59,19.3Zm7,0a2.35,2.35,0,0,0,2.12-1.19h0v1.08h1v-8.9h-1.1v3.53h0a2.32,2.32,0,0,0-2.09-1.15C96,12.67,94.83,14,94.83,16S96,19.3,97.64,19.3Zm.21-5.69c1.13,0,1.89,1,1.89,2.38s-.76,2.37-1.89,2.37S96,17.44,96,16,96.69,13.61,97.85,13.61Zm9.84,5.69a3,3,0,0,0,3-3.31c0-2.05-1.22-3.32-3-3.32a3,3,0,0,0-3,3.32A3,3,0,0,0,107.69,19.3Zm0-.94c-1.16,0-1.93-.86-1.93-2.37s.77-2.38,1.93-2.38,1.92.86,1.92,2.38S108.85,18.36,107.69,18.36Zm4.14.83h1.1V15.42a1.65,1.65,0,0,1,1.71-1.8c1,0,1.51.57,1.51,1.6v4h1.1V15A2.13,2.13,0,0,0,115,12.67a2.19,2.19,0,0,0-2.08,1.13h0v-1h-1Zm9.83-8v1.55h-1v.88h1v3.87c0,1.23.46,1.71,1.67,1.71a4.21,4.21,0,0,0,.7,0v-.9l-.46,0c-.56,0-.81-.26-.81-.85V13.66H124v-.88h-1.27V11.23Zm3.6,8h1.1V15.46a1.69,1.69,0,0,1,1.77-1.84,1.44,1.44,0,0,1,1.55,1.63v3.94h1.1V15.05a2.37,2.37,0,0,0-4.39-1.25h0V10.29h-1.1Zm9.55-5.59a1.74,1.74,0,0,1,1.75,1.84H133A1.82,1.82,0,0,1,134.81,13.6Zm1.72,3.75a1.57,1.57,0,0,1-1.63,1,1.85,1.85,0,0,1-1.92-2v-.06h4.71v-.41c0-1.94-1.09-3.2-2.86-3.2s-3,1.35-3,3.34,1.15,3.29,3,3.29a2.58,2.58,0,0,0,2.73-1.95Z"/><path class="cls-1" d="M58.38,40.05h2.44L55.46,24.71H53L47.61,40.05H50l1.36-4.15H57ZM54.16,27.26h.07L56.44,34H52Zm14.08,1.42a3.72,3.72,0,0,0-3.44,2.11h0V28.86H62.6V43.75h2.23V38.21h0a3.65,3.65,0,0,0,3.4,2c2.72,0,4.51-2.24,4.51-5.78S71,28.68,68.24,28.68Zm-.59,9.62c-1.7,0-2.83-1.51-2.83-3.84s1.14-3.84,2.83-3.84,2.86,1.5,2.86,3.84S69.41,38.3,67.65,38.3Zm12.92-9.62a3.74,3.74,0,0,0-3.45,2.11h0V28.86H74.93V43.75h2.22V38.21h.06a3.65,3.65,0,0,0,3.4,2c2.71,0,4.51-2.24,4.51-5.78S83.31,28.68,80.57,28.68ZM80,38.3c-1.7,0-2.84-1.51-2.84-3.84s1.15-3.84,2.84-3.84,2.86,1.5,2.86,3.84S81.74,38.3,80,38.3Zm11.59-2.52c.14,2.77,2.36,4.53,5.66,4.53,3.51,0,5.72-1.8,5.72-4.67,0-2.25-1.26-3.51-4.31-4.26L97,31c-1.91-.49-2.69-1.13-2.69-2.21,0-1.36,1.22-2.3,3-2.3s3,.93,3.14,2.46h2.25c-.08-2.65-2.22-4.47-5.36-4.47S92,26.27,92,28.92c0,2.13,1.27,3.45,4,4.13l1.92.48c1.93.49,2.74,1.2,2.74,2.4,0,1.37-1.35,2.37-3.22,2.37s-3.38-1-3.55-2.52Zm14.25-9.56v2.64h-1.57v1.82h1.57v6.43c0,2.15.85,3,3,3A6.19,6.19,0,0,0,110.1,40V38.2a5.12,5.12,0,0,1-.73,0c-.91,0-1.32-.43-1.32-1.4V30.68h2.06V28.86h-2.06V26.22Zm10.92,14c3.1,0,5.13-2.2,5.13-5.8s-2-5.8-5.13-5.8-5.13,2.2-5.13,5.8S113.65,40.26,116.74,40.26Zm0-1.89c-1.74,0-2.87-1.42-2.87-3.91s1.13-3.91,2.87-3.91,2.87,1.43,2.87,3.91S118.49,38.37,116.74,38.37ZM124,40.05h2.22v-6.7a2.28,2.28,0,0,1,2.31-2.57,2.88,2.88,0,0,1,1,.13V28.77a3.93,3.93,0,0,0-.76-.09,2.63,2.63,0,0,0-2.6,2.09h-.05V28.86H124Zm11.38-9.54a2.72,2.72,0,0,1,2.66,2.92h-5.41A2.84,2.84,0,0,1,135.39,30.51ZM138,36.77a2.44,2.44,0,0,1-2.49,1.63c-1.78,0-2.91-1.28-2.91-3.23V35h7.64v-.78c0-3.4-1.87-5.59-4.88-5.59s-5,2.34-5,5.85,1.93,5.75,5.11,5.75c2.47,0,4.35-1.45,4.65-3.49Z"/><path class="cls-1" d="M36.35,33.66a16.47,16.47,0,0,1-1.64,3,15,15,0,0,1-2.12,2.56,4.12,4.12,0,0,1-2.72,1.2,6.88,6.88,0,0,1-2.51-.6,7.2,7.2,0,0,0-2.7-.6,7.51,7.51,0,0,0-2.79.6,7.48,7.48,0,0,1-2.4.63,3.85,3.85,0,0,1-2.78-1.23,15.83,15.83,0,0,1-2.21-2.65,18.18,18.18,0,0,1-2.34-4.64,16.9,16.9,0,0,1-1-5.54,10.16,10.16,0,0,1,1.33-5.29,7.72,7.72,0,0,1,2.78-2.81A7.47,7.47,0,0,1,19,17.18a8.81,8.81,0,0,1,2.91.67,9.38,9.38,0,0,0,2.31.68,14.11,14.11,0,0,0,2.55-.8,8.56,8.56,0,0,1,3.48-.62,7.39,7.39,0,0,1,5.79,3.05A6.41,6.41,0,0,0,32.66,26a6.44,6.44,0,0,0,2.11,4.86,7,7,0,0,0,2.12,1.39Q36.64,33,36.35,33.66Zm-5.9-23.18a6.48,6.48,0,0,1-1.67,4.27,5.68,5.68,0,0,1-4.72,2.33,3.52,3.52,0,0,1,0-.58,6.7,6.7,0,0,1,1.77-4.31A7.07,7.07,0,0,1,28,10.56a6.51,6.51,0,0,1,2.47-.69,4.09,4.09,0,0,1,0,.61Z"/></g></g></svg>