<svg xmlns="http://www.w3.org/2000/svg" xmlns:xlink="http://www.w3.org/1999/xlink" viewBox="0 0 154.42 51.47"><defs><style>.cls-1{fill:#c4c4c4;}.cls-2{fill:#fff;}.cls-3{mask:url(#mask);}.cls-4{fill:#00f076;}.cls-5{fill:#00c9ff;}.cls-6{fill:#f53349;}.cls-7{fill:#fc0;fill-rule:evenodd;}</style><mask id="mask" x="6.86" y="8.79" width="35.39" height="36.03" maskUnits="userSpaceOnUse"><g id="mask0"><path class="cls-1" d="M11.15,12.82a1.72,1.72,0,0,1,2.57-1.49L35.25,23.59a1.72,1.72,0,0,1,.06,2.95L13.78,40a1.72,1.72,0,0,1-2.63-1.45Z"/></g></mask></defs><g id="Layer_2" data-name="Layer 2"><g id="Layer_1-2" data-name="Layer 1"><path d="M0,6.86A6.86,6.86,0,0,1,6.86,0h140.7a6.86,6.86,0,0,1,6.86,6.86V44.61a6.86,6.86,0,0,1-6.86,6.86H6.86A6.86,6.86,0,0,1,0,44.61Z"/><path class="cls-2" d="M43.75,32.7a6.36,6.36,0,0,1,.84-3.26,6,6,0,0,1,2.3-2.24,6.7,6.7,0,0,1,6.7.16,5.44,5.44,0,0,1,2.24,2.74H53.39a3.2,3.2,0,0,0-1.33-1.39,4,4,0,0,0-2-.48,4.29,4.29,0,0,0-2.19.55,4,4,0,0,0-1.52,1.57,5,5,0,0,0-.53,2.35,5.17,5.17,0,0,0,.53,2.37,4,4,0,0,0,1.52,1.56,4.29,4.29,0,0,0,2.19.55,3.87,3.87,0,0,0,2.69-.92A4,4,0,0,0,54,33.71H49.38V32.13h6.83v1.58a6,6,0,0,1-1,2.65,6,6,0,0,1-2.15,2,6.14,6.14,0,0,1-2.94.71,6.48,6.48,0,0,1-3.19-.8A6.23,6.23,0,0,1,44.59,36,6.38,6.38,0,0,1,43.75,32.7Zm18.36,6.37a5.16,5.16,0,0,1-2.51-.62,4.63,4.63,0,0,1-1.76-1.78A5.38,5.38,0,0,1,57.2,34a5.3,5.3,0,0,1,.66-2.66,4.53,4.53,0,0,1,1.8-1.78,5.53,5.53,0,0,1,5.09,0,4.6,4.6,0,0,1,1.8,1.78A5.3,5.3,0,0,1,67.21,34a5.17,5.17,0,0,1-.68,2.65,4.78,4.78,0,0,1-1.85,1.8A5.39,5.39,0,0,1,62.11,39.07Zm0-1.71A2.91,2.91,0,0,0,63.58,37a3,3,0,0,0,1.12-1.14A3.75,3.75,0,0,0,65.13,34a3.79,3.79,0,0,0-.41-1.82A2.79,2.79,0,0,0,63.63,31a2.88,2.88,0,0,0-1.46-.39,2.82,2.82,0,0,0-1.45.39,2.73,2.73,0,0,0-1.06,1.14,3.79,3.79,0,0,0-.4,1.82,4.12,4.12,0,0,0,.38,1.83,2.79,2.79,0,0,0,1,1.16A2.86,2.86,0,0,0,62.11,37.36Zm11,1.71a5.13,5.13,0,0,1-2.51-.62,4.66,4.66,0,0,1-1.77-1.78A5.49,5.49,0,0,1,68.2,34a5.3,5.3,0,0,1,.66-2.66,4.6,4.6,0,0,1,1.8-1.78,5.55,5.55,0,0,1,5.1,0,4.6,4.6,0,0,1,1.8,1.78A5.3,5.3,0,0,1,78.22,34a5.17,5.17,0,0,1-.68,2.65,4.78,4.78,0,0,1-1.85,1.8A5.42,5.42,0,0,1,73.12,39.07Zm0-1.71a3,3,0,0,0,2.58-1.53A3.64,3.64,0,0,0,76.13,34a3.68,3.68,0,0,0-.41-1.82A2.71,2.71,0,0,0,74.64,31a2.91,2.91,0,0,0-1.47-.39,2.78,2.78,0,0,0-1.44.39,2.82,2.82,0,0,0-1.07,1.14A3.91,3.91,0,0,0,70.27,34a4.12,4.12,0,0,0,.37,1.83,2.63,2.63,0,0,0,2.48,1.53Zm10.7-8.42a4.33,4.33,0,0,1,2,.46,3.76,3.76,0,0,1,1.39,1.13V29.1h2v10a5,5,0,0,1-.57,2.4,4.13,4.13,0,0,1-1.66,1.68,5.17,5.17,0,0,1-2.57.6,5.53,5.53,0,0,1-3.31-.94,3.43,3.43,0,0,1-1.5-2.53h2a2.14,2.14,0,0,0,1,1.23,3.33,3.33,0,0,0,1.81.48,2.68,2.68,0,0,0,2-.75,2.9,2.9,0,0,0,.77-2.17V37.43a4.23,4.23,0,0,1-1.41,1.18,4.19,4.19,0,0,1-2,.46,4.49,4.49,0,0,1-2.35-.64,4.67,4.67,0,0,1-1.67-1.82A5.6,5.6,0,0,1,79.19,34a5.45,5.45,0,0,1,.61-2.62,4.57,4.57,0,0,1,1.67-1.76A4.49,4.49,0,0,1,83.82,28.94ZM87.23,34a3.46,3.46,0,0,0-.43-1.77,2.83,2.83,0,0,0-1.09-1.13,2.92,2.92,0,0,0-4,1.12A3.42,3.42,0,0,0,81.28,34a3.63,3.63,0,0,0,.41,1.78,3.14,3.14,0,0,0,1.1,1.18,2.93,2.93,0,0,0,1.46.39,2.85,2.85,0,0,0,1.46-.39,2.79,2.79,0,0,0,1.09-1.14A3.55,3.55,0,0,0,87.23,34Zm6.39-8.26V38.91h-2V25.74Zm11.31,8a5.86,5.86,0,0,1-.07,1H97.34a2.87,2.87,0,0,0,.87,2,2.81,2.81,0,0,0,1.94.71A2.38,2.38,0,0,0,102.47,36h2.19A4.43,4.43,0,0,1,103,38.22a4.72,4.72,0,0,1-2.89.85,5.21,5.21,0,0,1-2.53-.62,4.72,4.72,0,0,1-1.74-1.78A5.49,5.49,0,0,1,95.25,34a5.64,5.64,0,0,1,.61-2.66,4.43,4.43,0,0,1,1.73-1.78,5.24,5.24,0,0,1,2.56-.62,4.93,4.93,0,0,1,2.48.61,4.17,4.17,0,0,1,1.69,1.69A4.94,4.94,0,0,1,104.93,33.73Zm-2.12-.5a2.47,2.47,0,0,0-.8-1.89,2.79,2.79,0,0,0-1.94-.69,2.65,2.65,0,0,0-1.84.69,2.89,2.89,0,0,0-.87,1.89Zm17.41-3a3.68,3.68,0,0,1-.45,1.78,3.31,3.31,0,0,1-1.42,1.37,5.31,5.31,0,0,1-2.51.52h-2.25v5h-2V26.54h4.28a5.13,5.13,0,0,1,2.4.5,3.29,3.29,0,0,1,1.48,1.31A3.61,3.61,0,0,1,120.22,30.22Zm-4.38,2.09a2.37,2.37,0,0,0,1.72-.56,2,2,0,0,0,.57-1.53,2.07,2.07,0,0,0-.57-1.55,2.42,2.42,0,0,0-1.72-.55h-2.25v4.19Zm8-6.57V38.91h-2V25.74ZM125.46,34a5.56,5.56,0,0,1,.61-2.62,4.59,4.59,0,0,1,1.68-1.76,4.44,4.44,0,0,1,2.35-.64,4.26,4.26,0,0,1,2,.46,3.93,3.93,0,0,1,1.39,1.13V29.1h2.05v9.81H133.5V37.45a4,4,0,0,1-1.41,1.16,4.59,4.59,0,0,1-4.34-.18,4.69,4.69,0,0,1-1.68-1.82A5.72,5.72,0,0,1,125.46,34Zm8,0a3.46,3.46,0,0,0-.43-1.77A2.87,2.87,0,0,0,132,31.1a2.88,2.88,0,0,0-2.93,0,2.76,2.76,0,0,0-1.1,1.12,3.53,3.53,0,0,0-.41,1.74,3.74,3.74,0,0,0,.41,1.78,3.14,3.14,0,0,0,1.1,1.18,3,3,0,0,0,1.46.39,2.89,2.89,0,0,0,1.47-.39,2.83,2.83,0,0,0,1.08-1.14A3.55,3.55,0,0,0,133.5,34ZM139,29.1l2.76,7.48,2.87-7.48h2.1l-6,14.42h-2.1l2-4.77L136.7,29.1Z"/><path class="cls-2" d="M43.75,16.09a4.7,4.7,0,0,1,.58-2.32,4.29,4.29,0,0,1,1.61-1.61,4.5,4.5,0,0,1,2.24-.58,4.42,4.42,0,0,1,2.48.7,3.94,3.94,0,0,1,1.58,2H50.86a2.62,2.62,0,0,0-1.06-1.19,3,3,0,0,0-1.62-.43,3.27,3.27,0,0,0-1.67.43,3,3,0,0,0-1.16,1.21,3.83,3.83,0,0,0-.42,1.83,3.82,3.82,0,0,0,.42,1.82,3,3,0,0,0,1.16,1.21,3.37,3.37,0,0,0,1.67.42,3.05,3.05,0,0,0,2.14-.77,3.19,3.19,0,0,0,1-2.12H47.76v-.91h4.75v.89a4.58,4.58,0,0,1-.68,2,4.32,4.32,0,0,1-1.54,1.43,4.37,4.37,0,0,1-2.11.52A4.5,4.5,0,0,1,45.94,20a4.44,4.44,0,0,1-1.61-1.61A4.66,4.66,0,0,1,43.75,16.09Zm12.07-3.51v3H59v.89H55.82v3.1h3.59v.91H54.66V11.67h4.75v.91Zm11.39-.9v.9h-2.4V20.5H63.66V12.58H61.24v-.9Zm7.61,0V20.5H73.67V11.68Zm8,0v.9h-2.4V20.5H79.29V12.58H76.87v-.9Zm10.45,8.91A4.5,4.5,0,0,1,91.05,20a4.36,4.36,0,0,1-1.61-1.61,4.93,4.93,0,0,1,0-4.64,4.29,4.29,0,0,1,1.61-1.61,4.63,4.63,0,0,1,4.49,0,4.1,4.1,0,0,1,1.6,1.6,4.6,4.6,0,0,1,.58,2.33,4.59,4.59,0,0,1-.58,2.32A4.19,4.19,0,0,1,95.54,20,4.48,4.48,0,0,1,93.29,20.59Zm0-1A3.19,3.19,0,0,0,95,19.12a2.88,2.88,0,0,0,1.16-1.21,3.71,3.71,0,0,0,.43-1.82,3.72,3.72,0,0,0-.43-1.83A2.83,2.83,0,0,0,95,13.05a3.19,3.19,0,0,0-1.66-.43,3.27,3.27,0,0,0-1.67.43,3,3,0,0,0-1.16,1.21A3.83,3.83,0,0,0,90,16.09a3.82,3.82,0,0,0,.42,1.82,3,3,0,0,0,1.16,1.21A3.27,3.27,0,0,0,93.29,19.55Zm13.52.95h-1.15l-4.63-7v7H99.87V11.67H101l4.63,7v-7h1.15Z"/><g class="cls-3"><path class="cls-4" d="M11.15,12.82a1.72,1.72,0,0,1,2.57-1.49L35.25,23.59a1.72,1.72,0,0,1,.06,2.95L13.78,40a1.72,1.72,0,0,1-2.63-1.45Z"/><path class="cls-5" d="M35.17,35.17,9,8.79,6.86,40.32l5.79,4.51Z"/><path class="cls-6" d="M7.51,42.68,32.39,18.45l9.86,4.07-17.8,21Z"/><path class="cls-7" d="M33.21,33.19l9-10.67-9.86-4.07-7,6.83Zm-3.75,4.43L16.59,43.14l7.86.4Zm-19.4,5.19L8.57,41.65l-1.06,1Z"/></g></g></g></svg>