<svg xmlns="http://www.w3.org/2000/svg" xmlns:xlink="http://www.w3.org/1999/xlink" viewBox="0 0 15.41 12.11"><defs><style>.cls-1{fill:url(#New_Gradient_Swatch);}</style><linearGradient id="New_Gradient_Swatch" y1="6.05" x2="15.41" y2="6.05" gradientUnits="userSpaceOnUse"><stop offset="0" stop-color="#ea9302"/><stop offset="1" stop-color="#c76319"/></linearGradient></defs><g id="Layer_2" data-name="Layer 2"><g id="Layer_1-2" data-name="Layer 1"><path class="cls-1" d="M13.19,0h-11A2.23,2.23,0,0,0,0,2.22V9.88a2.23,2.23,0,0,0,2.22,2.23h11a2.23,2.23,0,0,0,2.22-2.23V2.22A2.23,2.23,0,0,0,13.19,0Zm0,1.06a1.09,1.09,0,0,1,.26,0L8.83,6.34a1.53,1.53,0,0,1-1.12.51,1.49,1.49,0,0,1-1.12-.51L2,1.1a1.17,1.17,0,0,1,.26,0Zm1.16,8.82A1.16,1.16,0,0,1,13.19,11h-11A1.16,1.16,0,0,1,1.06,9.88V2.22a1.12,1.12,0,0,1,.09-.44L5.79,7.05a2.56,2.56,0,0,0,3.83,0l4.64-5.27a1.12,1.12,0,0,1,.09.44Z"/></g></g></svg>