<svg xmlns="http://www.w3.org/2000/svg" xmlns:xlink="http://www.w3.org/1999/xlink" viewBox="0 0 10.9 11.7"><defs><style>.cls-1{fill:url(#New_Gradient_Swatch);}</style><linearGradient id="New_Gradient_Swatch" y1="5.85" x2="10.9" y2="5.85" gradientUnits="userSpaceOnUse"><stop offset="0" stop-color="#ea9302"/><stop offset="1" stop-color="#c76319"/></linearGradient></defs><g id="Layer_2" data-name="Layer 2"><g id="Layer_1-2" data-name="Layer 1"><path class="cls-1" d="M4.1,3.44C4.75,2.69,4,1.7,3.61,1,3.36.63,3,.07,2.49,0S1.57.49,1.25.78A3.73,3.73,0,0,0,0,3.43c0,.11,0,.31,0,.13a7.89,7.89,0,0,0,.37,1.8,7.74,7.74,0,0,0,.8,1.57A14.4,14.4,0,0,0,3.59,9.8a7.19,7.19,0,0,0,3.18,1.81,3.72,3.72,0,0,0,3.17-.75c.33-.27.94-.66,1-1.13a1.51,1.51,0,0,0-.66-1.12C9.55,8,8.55,7,7.62,7.72c-.36.3-.75.85-1.23.93a1.81,1.81,0,0,1-1.3-.55,8,8,0,0,1-2-2.4A1.29,1.29,0,0,1,3,4.39C3.3,4,3.79,3.81,4.1,3.44Z"/></g></g></svg>