<svg xmlns="http://www.w3.org/2000/svg" xmlns:xlink="http://www.w3.org/1999/xlink" viewBox="0 0 79.75 79.75"><defs><style>.cls-1{fill:url(#linear-gradient);}.cls-2{fill:url(#linear-gradient-2);}</style><linearGradient id="linear-gradient" y1="39.87" x2="79.75" y2="39.87" gradientUnits="userSpaceOnUse"><stop offset="0" stop-color="#5cd0c0"/><stop offset="1" stop-color="#236c78"/></linearGradient><linearGradient id="linear-gradient-2" x1="26.12" y1="39.87" x2="53.63" y2="39.87" xlink:href="#linear-gradient"/></defs><g id="Layer_2" data-name="Layer 2"><g id="Layer_1-2" data-name="Layer 1"><path class="cls-1" d="M39.87,79.75A39.88,39.88,0,1,1,79.75,39.87,39.92,39.92,0,0,1,39.87,79.75Zm0-76.43A36.56,36.56,0,1,0,76.43,39.87,36.6,36.6,0,0,0,39.87,3.32Z"/><path class="cls-2" d="M28.06,57.13H51.68a2,2,0,0,0,2-2v-19a1.94,1.94,0,0,0-2-1.94H33.81v-2a5.86,5.86,0,0,1,6-5.73,6,6,0,0,1,5.72,4.08,1.52,1.52,0,0,0,.89,1,1.56,1.56,0,0,0,1.3-.1l.77-.45a1.5,1.5,0,0,0,.68-1.79,9.9,9.9,0,0,0-19.22,3v2H28.06a1.94,1.94,0,0,0-1.94,1.94v19A2,2,0,0,0,28.06,57.13ZM37.93,42.8a1.95,1.95,0,0,1,3.89,0v5.78a1.95,1.95,0,0,1-3.89,0Z"/></g></g></svg>