<svg xmlns="http://www.w3.org/2000/svg" xmlns:xlink="http://www.w3.org/1999/xlink" viewBox="0 0 79.75 79.75"><defs><style>.cls-1{fill:url(#linear-gradient);}.cls-2{fill:url(#linear-gradient-2);}</style><linearGradient id="linear-gradient" y1="39.87" x2="79.75" y2="39.87" gradientUnits="userSpaceOnUse"><stop offset="0" stop-color="#5cd0c0"/><stop offset="1" stop-color="#236c78"/></linearGradient><linearGradient id="linear-gradient-2" x1="15.32" y1="40.86" x2="64.43" y2="40.86" xlink:href="#linear-gradient"/></defs><g id="Layer_2" data-name="Layer 2"><g id="Layer_1-2" data-name="Layer 1"><path class="cls-1" d="M39.87,79.75A39.88,39.88,0,1,1,79.75,39.87,39.92,39.92,0,0,1,39.87,79.75Zm0-76.43A36.56,36.56,0,1,0,76.43,39.87,36.6,36.6,0,0,0,39.87,3.32Z"/><path class="cls-2" d="M64,36.48a1.05,1.05,0,0,0-.84-.86L58,34.54a19.65,19.65,0,0,0-3.59-6.2l1.67-5.06a1.08,1.08,0,0,0-.32-1.16,24.49,24.49,0,0,0-7.58-4.38A1.08,1.08,0,0,0,47,18l-3.69,4a19.37,19.37,0,0,0-7,0l-3.54-4a1.08,1.08,0,0,0-1.17-.3,24.4,24.4,0,0,0-7.68,4.47,1.08,1.08,0,0,0-.32,1.18l1.76,5a19.49,19.49,0,0,0-3.58,6.19l-5.21,1.08a1.07,1.07,0,0,0-.84.86,24.73,24.73,0,0,0,0,8.75,1.07,1.07,0,0,0,.84.87l5.21,1.07a19.42,19.42,0,0,0,3.6,6.21l-1.65,5.09A1.05,1.05,0,0,0,24,59.62,24.32,24.32,0,0,0,31.58,64a1.07,1.07,0,0,0,1.17-.3l3.54-4a19.21,19.21,0,0,0,7.17,0l3.54,4a1.11,1.11,0,0,0,.81.36,1.13,1.13,0,0,0,.36-.06,24.52,24.52,0,0,0,7.58-4.39,1.08,1.08,0,0,0,.32-1.16l-1.67-5A19.51,19.51,0,0,0,58,47.17L63.2,46.1a1.07,1.07,0,0,0,.84-.87,24.73,24.73,0,0,0,0-8.75ZM39.88,51.41A10.55,10.55,0,1,1,50.43,40.86,10.56,10.56,0,0,1,39.88,51.41Z"/></g></g></svg>