<svg xmlns="http://www.w3.org/2000/svg" xmlns:xlink="http://www.w3.org/1999/xlink" viewBox="0 0 83.35 83.35"><defs><style>.cls-1{fill:url(#linear-gradient);}</style><linearGradient id="linear-gradient" y1="41.68" x2="83.35" y2="41.68" gradientUnits="userSpaceOnUse"><stop offset="0" stop-color="#5cd0c0"/><stop offset="1" stop-color="#236c78"/></linearGradient></defs><g id="Layer_2" data-name="Layer 2"><g id="Layer_1-2" data-name="Layer 1"><path class="cls-1" d="M41.68,0A41.68,41.68,0,1,0,83.35,41.68,41.73,41.73,0,0,0,41.68,0Zm0,79.88a38.21,38.21,0,1,1,38.2-38.2A38.25,38.25,0,0,1,41.68,79.88Zm8-16.65H65.39a1.29,1.29,0,0,0,1.29-1.29V49.36a1.28,1.28,0,0,0-1.29-1.28H53.54V46.74a3.89,3.89,0,0,1,4-3.8,4,4,0,0,1,3.79,2.71,1,1,0,0,0,1.45.56l.51-.29a1,1,0,0,0,.45-1.19,6.56,6.56,0,0,0-12.74,2v1.34H49.73a1.28,1.28,0,0,0-1.28,1.28V61.94A1.28,1.28,0,0,0,49.73,63.23Zm6.54-9.49a1.29,1.29,0,1,1,2.58,0v3.83a1.29,1.29,0,1,1-2.58,0Zm-7.78-8a20.23,20.23,0,0,0-4.79-2.56,12.56,12.56,0,1,0-13.86,0A20.11,20.11,0,0,0,16.67,62H20A16.72,16.72,0,0,1,46.56,48.43,4.33,4.33,0,0,1,48.49,45.71ZM36.77,41.89A9.21,9.21,0,1,1,46,32.68,9.22,9.22,0,0,1,36.77,41.89Z"/></g></g></svg>