<svg xmlns="http://www.w3.org/2000/svg" xmlns:xlink="http://www.w3.org/1999/xlink" viewBox="0 0 79.75 79.75"><defs><style>.cls-1{fill:url(#linear-gradient);}</style><linearGradient id="linear-gradient" y1="39.87" x2="79.75" y2="39.87" gradientUnits="userSpaceOnUse"><stop offset="0" stop-color="#5cd0c0"/><stop offset="1" stop-color="#236c78"/></linearGradient></defs><g id="Layer_2" data-name="Layer 2"><g id="Layer_1-2" data-name="Layer 1"><path class="cls-1" d="M39.87,79.75A39.88,39.88,0,1,1,79.75,39.87,39.92,39.92,0,0,1,39.87,79.75Zm0-76.43A36.56,36.56,0,1,0,76.43,39.87,36.6,36.6,0,0,0,39.87,3.32ZM52.79,41.05h-.1a1,1,0,0,0-1,.91L50.19,57.29a1,1,0,0,0,.91,1.11h.1a1,1,0,0,0,1-.91l1.49-15.33A1,1,0,0,0,52.79,41.05Zm-.09.37h0ZM46.56,41h-.05v.37h0V41a1,1,0,0,0-1,1l-.82,15.33a1,1,0,0,0,1,1.06h.06a1,1,0,0,0,1-.95l.82-15.33A1,1,0,0,0,46.56,41Zm15-8.71H53.38l2.23-6.2a4.36,4.36,0,0,0-4.11-5.85H49.86a3,3,0,0,0-3-2.78H34.29a3,3,0,0,0-3,2.78H29.64a4.36,4.36,0,0,0-4.11,5.85l2.24,6.2h-8.2a2.36,2.36,0,0,0-2.35,2.36V36.8a2.36,2.36,0,0,0,2.35,2.36h.48l3,18.89a5,5,0,0,0,5,4.26H53.15a5,5,0,0,0,5-4.26l3-18.89h.48a2.36,2.36,0,0,0,2.36-2.36V34.63A2.36,2.36,0,0,0,61.57,32.27ZM28,60.29a3,3,0,0,1-3-2.56L22.1,39.16H59.05L56.14,57.73a3,3,0,0,1-3,2.56Zm6.3-35.59H46.85a3,3,0,0,0,3-2.47H51.5a2.35,2.35,0,0,1,1.93,1,2.37,2.37,0,0,1,.29,2.16l-2.49,6.88H29.91l-2.48-6.88a2.36,2.36,0,0,1,2.21-3.16h1.68A3,3,0,0,0,34.29,24.7Zm-1-4.24a1,1,0,0,1,1-1H46.85a1,1,0,0,1,1,1v1.21a1,1,0,0,1-1,1H34.29a1,1,0,0,1-1-1Zm-14,16.34V34.63a.34.34,0,0,1,.33-.34h42a.34.34,0,0,1,.34.34V36.8a.34.34,0,0,1-.34.34h-42A.34.34,0,0,1,19.24,36.8ZM40.57,41a1,1,0,0,0-1,1V57.33a1,1,0,0,0,2,0V42A1,1,0,0,0,40.57,41Zm-12.12.07h-.09a1,1,0,0,0-.91,1.11l1.49,15.33a1,1,0,0,0,1,.91h.1a1,1,0,0,0,.9-1.11L29.46,42A1,1,0,0,0,28.45,41.05Zm6.73,10.26v.37h0v-.37h0a1,1,0,0,0-1,1.06l.27,5a1,1,0,0,0,1,.95h0a1,1,0,0,0,1-1.06l-.27-5A1,1,0,0,0,35.18,51.31Zm-.24-2.72H35a1,1,0,0,0,.95-1.07l-.29-5.58a1,1,0,0,0-1-1h-.05a1,1,0,0,0-.95,1.07l.3,5.58A1,1,0,0,0,34.94,48.59Z"/></g></g></svg>