<svg xmlns="http://www.w3.org/2000/svg" xmlns:xlink="http://www.w3.org/1999/xlink" viewBox="0 0 79.75 79.75"><defs><style>.cls-1{fill:url(#linear-gradient);}</style><linearGradient id="linear-gradient" y1="39.87" x2="79.75" y2="39.87" gradientUnits="userSpaceOnUse"><stop offset="0" stop-color="#5cd0c0"/><stop offset="1" stop-color="#236c78"/></linearGradient></defs><g id="Layer_2" data-name="Layer 2"><g id="Layer_1-2" data-name="Layer 1"><path class="cls-1" d="M39.87,79.75A39.88,39.88,0,1,1,79.75,39.87,39.92,39.92,0,0,1,39.87,79.75Zm0-76.43A36.56,36.56,0,1,0,76.43,39.87,36.6,36.6,0,0,0,39.87,3.32ZM59,29H56.81a1,1,0,1,0,0,2H59a2.55,2.55,0,0,1,2.55,2.55v8.88H43.29V38.73a1,1,0,1,0-2,0v3.76H38.48V38.73a1,1,0,1,0-2,0v3.76H18.24V33.61a2.55,2.55,0,0,1,2.55-2.55h2a1,1,0,0,0,0-2h-2a4.58,4.58,0,0,0-4.57,4.57V53.79a4.58,4.58,0,0,0,4.57,4.57H59a4.58,4.58,0,0,0,4.57-4.57V33.61A4.58,4.58,0,0,0,59,29Zm2.55,20.28v4.47A2.55,2.55,0,0,1,59,56.34H43.29v-7Zm-20.24,0v7H38.48v-7Zm-20.48,7a2.55,2.55,0,0,1-2.55-2.55V49.32H36.46v7ZM42.28,46.08a1,1,0,0,0,1-1v-.56H61.51V47.3H18.24V44.51h23v.56A1,1,0,0,0,42.28,46.08ZM28.45,38.21a3.46,3.46,0,0,0,1.8.51,3.4,3.4,0,0,0,1.66-.43l5.5-2.94a2.81,2.81,0,0,0,1.29.33h2.35a2.81,2.81,0,0,0,1.29-.33l5.5,2.94a3.4,3.4,0,0,0,1.66.43A3.54,3.54,0,0,0,53,35.2V24.9a3.49,3.49,0,0,0-1.71-3,3.54,3.54,0,0,0-1.8-.5,3.5,3.5,0,0,0-1.66.42l-5.5,3a2.69,2.69,0,0,0-1.29-.33H38.7a2.69,2.69,0,0,0-1.29.33l-5.5-3a3.5,3.5,0,0,0-1.66-.42,3.54,3.54,0,0,0-1.8.5,3.49,3.49,0,0,0-1.71,3V35.2A3.47,3.47,0,0,0,28.45,38.21Zm.31-7.15H31.1a1,1,0,0,0,0-2H28.76V24.9a1.48,1.48,0,0,1,.73-1.28,1.5,1.5,0,0,1,.76-.21,1.53,1.53,0,0,1,.71.18l5.1,2.73a1.55,1.55,0,0,0-.06.23c0,.05,0,.1,0,.15a2.94,2.94,0,0,0-.05.51v5.68a3,3,0,0,0,.05.52c0,.05,0,.1,0,.14a1.55,1.55,0,0,0,.06.23L31,36.52a1.53,1.53,0,0,1-.71.18,1.42,1.42,0,0,1-.76-.22,1.47,1.47,0,0,1-.73-1.28Zm9.17-3.85a.75.75,0,0,1,.24-.55.77.77,0,0,1,.53-.22h2.35a.77.77,0,0,1,.53.22.75.75,0,0,1,.24.55v5.68a.79.79,0,0,1-.77.77H38.7a.79.79,0,0,1-.77-.77Zm11.57-3.8a1.5,1.5,0,0,1,.76.21A1.48,1.48,0,0,1,51,24.9V29H48.65a1,1,0,1,0,0,2H51V35.2a1.47,1.47,0,0,1-.73,1.28,1.42,1.42,0,0,1-.76.22,1.53,1.53,0,0,1-.71-.18l-5.1-2.74a1.8,1.8,0,0,0,.06-.22.8.8,0,0,0,0-.15,2.24,2.24,0,0,0,.06-.52V27.21a2.94,2.94,0,0,0-.05-.51c0-.05,0-.1,0-.15a1.55,1.55,0,0,0-.06-.23l5.1-2.73A1.53,1.53,0,0,1,49.5,23.41Z"/></g></g></svg>