<svg xmlns="http://www.w3.org/2000/svg" xmlns:xlink="http://www.w3.org/1999/xlink" viewBox="0 0 40.02 40.02"><defs><style>.cls-1{fill:url(#linear-gradient);}</style><linearGradient id="linear-gradient" y1="20.01" x2="40.02" y2="20.01" gradientUnits="userSpaceOnUse"><stop offset="0" stop-color="#193233"/><stop offset="1" stop-color="#005d55"/></linearGradient></defs><g id="Layer_2" data-name="Layer 2"><g id="Layer_1-2" data-name="Layer 1"><path class="cls-1" d="M20,40A20,20,0,1,1,40,20,20,20,0,0,1,20,40ZM20,2.31A17.7,17.7,0,1,0,37.71,20,17.72,17.72,0,0,0,20,2.31Zm4.2,6.22h-8.4A7.78,7.78,0,0,0,8,16.31v7.4a7.78,7.78,0,0,0,7.77,7.78h8.4A7.79,7.79,0,0,0,32,23.71v-7.4A7.79,7.79,0,0,0,24.21,8.53Zm0,20.94h-8.4a5.76,5.76,0,0,1-5.75-5.76v-7.4a5.76,5.76,0,0,1,5.75-5.75h8.4A5.76,5.76,0,0,1,30,16.31v7.4A5.76,5.76,0,0,1,24.21,29.47ZM20,14.52a6.16,6.16,0,1,0,6.16,6.16A6.18,6.18,0,0,0,20,14.52ZM20,24.7a4,4,0,1,1,4-4A4,4,0,0,1,20,24.7Zm6.23-11.46a1.37,1.37,0,1,0,1.37,1.37A1.37,1.37,0,0,0,26.24,13.24Z"/></g></g></svg>