<svg xmlns="http://www.w3.org/2000/svg" xmlns:xlink="http://www.w3.org/1999/xlink" viewBox="0 0 40.02 40.02"><defs><style>.cls-1{fill:url(#linear-gradient);}</style><linearGradient id="linear-gradient" y1="20.01" x2="40.02" y2="20.01" gradientUnits="userSpaceOnUse"><stop offset="0" stop-color="#193233"/><stop offset="1" stop-color="#005d55"/></linearGradient></defs><g id="Layer_2" data-name="Layer 2"><g id="Layer_1-2" data-name="Layer 1"><path class="cls-1" d="M12.07,16.91h3.41V27.47H12.07Zm1.69-1.45a2,2,0,1,0-2-2A2,2,0,0,0,13.76,15.46Zm7.18,6.69c0-1.55.72-2.47,2.09-2.47s1.86.88,1.86,2.47v5.27l3.4,0V21c0-3-1.68-4.39-4-4.39a3.86,3.86,0,0,0-3.33,1.83V16.91H17.67V27.47h3.27ZM40,20A20,20,0,1,0,20,40,20,20,0,0,0,40,20Zm-2.31,0A17.7,17.7,0,1,1,20,2.31,17.72,17.72,0,0,1,37.71,20Z"/></g></g></svg>